<?xml version="1.0" encoding="utf-8"?>
<!-- Generator: Adobe Illustrator 16.0.0, SVG Export Plug-In . SVG Version: 6.00 Build 0)  -->
<!DOCTYPE svg PUBLIC "-//W3C//DTD SVG 1.1//EN" "http://www.w3.org/Graphics/SVG/1.1/DTD/svg11.dtd">
<svg version="1.1" id="圖層_1" xmlns="http://www.w3.org/2000/svg" xmlns:xlink="http://www.w3.org/1999/xlink" x="0px" y="0px"
	 width="437.979px" height="700px" viewBox="0 0 437.979 700" enable-background="new 0 0 437.979 700" xml:space="preserve">
<g>
	<polygon fill="#858585" points="361.704,382.894 306.225,324.566 289.13,375.223 328.257,401.807 	"/>
	<polygon fill="#858585" points="89.836,387.322 125.375,327.218 154.42,372.103 113.705,417.673 	"/>
	<polygon fill="#9B9A9A" points="117.914,305.282 123.174,321.71 305.791,319.329 309.371,305.673 	"/>
	<polygon fill="#9B9A9A" points="110.119,125.457 90.795,265.25 116.705,301.12 309.729,301.877 340.393,259.986 310.316,123.11 	
		"/>
	<polygon fill="#9B9A9A" points="192.074,25.644 208.04,16.881 215.193,55.896 309.609,118.889 110.277,119.654 189.108,63.19 	"/>
	<polygon fill="#9B9A9A" points="124.861,326.149 306.557,323.64 328.163,543.663 115.197,545.319 	"/>
	<g>
		<polygon fill="#858585" points="273.255,305.6 281.145,319.65 305.791,319.329 309.371,305.673 		"/>
		<path fill="#858585" d="M267.851,124.47l42.466-1.36l30.076,136.876l-30.663,41.891l-41.204-1.154c0,0,7.76-16.859,19.906-72.966
			C299.298,177.559,267.851,124.47,267.851,124.47z"/>
		<polygon fill="#858585" points="285.565,323.951 281.831,543.719 328.163,543.663 306.557,323.64 		"/>
		<polygon fill="#858585" points="200.691,20.915 204.792,60.528 268.991,119.111 309.609,118.889 215.193,55.896 208.04,16.881 		
			"/>
	</g>
	<polygon fill="#FFFFFF" points="200.933,229.325 223.547,225.666 230.035,258.878 199.18,262.104 	"/>
	<polygon fill="#858585" points="174.248,554.104 198.97,550.456 206.562,661.493 162.846,669.154 160.938,650.984 183.182,647.063 
			"/>
	<polygon fill="#858585" points="243.374,550.026 266.481,554.201 260.432,652.352 283.818,653.314 276.703,669.306 
		238.751,663.912 	"/>
	<path fill="#FFFFFF" d="M177.24,220.785c-2.412,17.537-10.465,27.58-26.955,28.646c-12.564,0.813-24.377-9.5-21.965-27.037
		s18.225-38.186,30.701-36.471C171.497,187.641,179.653,203.248,177.24,220.785z"/>
	<path fill="#FFFFFF" d="M250.032,215.595c2.798,17.479,11.067,27.342,27.578,28.046c12.584,0.536,24.162-10.034,21.365-27.514
		c-2.798-17.479-19.063-37.776-31.495-35.786C255.047,182.332,247.235,198.115,250.032,215.595z"/>
	<path fill="none" stroke="#FFFFFF" stroke-width="4" stroke-linecap="round" stroke-miterlimit="10" d="M148.545,264.084
		c3.45,1.831,23.995,22.344,58.538,24.884c36.936,2.715,70.863-18.337,74.605-19.787"/>
	<polygon fill="#5E5E5E" points="142.331,343.909 288.06,344.752 306.873,486.453 136.369,488.045 	"/>
	<g>
		<g>
			<path opacity="0.9" fill-rule="evenodd" clip-rule="evenodd" fill="#45B19C" d="M168.577,396.38
				c0.034-0.96,0.069-1.92,0.104-2.88c0.503-0.07,1.208,0.418,1.454,0.015c0.367-0.598,0.445-1.394,0.556-2.118
				c0.084-0.558-0.488-0.426-0.785-0.564c-0.301-0.142-0.337-0.357-0.253-0.636c0.119-0.386,0.23-0.777,0.363-1.16
				c0.219-0.622,0.35-1.381,1.323-0.805c0.304,0.18,0.468-0.089,0.585-0.328c0.227-0.465,0.413-0.947,0.66-1.397
				c0.201-0.363,0.194-0.65-0.205-0.805c-0.743-0.287-0.557-0.715-0.229-1.193c0.292-0.427,0.574-0.859,0.851-1.295
				c0.196-0.305,0.439-0.409,0.71-0.131c0.585,0.598,1.013,0.288,1.259-0.278c0.259-0.595,1.661-0.917,0.509-1.893
				c-0.216-0.183-0.344-0.389-0.08-0.642c0.535-0.509,1.062-1.026,1.599-1.531c0.14-0.13,0.318-0.229,0.459-0.001
				c0.758,1.22,1.299,0.212,1.889-0.185c0.529-0.354,1.111-0.686,0.425-1.43c-0.286-0.308-0.009-0.534,0.249-0.703
				c0.339-0.224,0.688-0.434,1.029-0.651c0.545-0.349,1.08-0.746,1.441,0.224c0.143,0.383,0.443,0.274,0.736,0.126
				c0.392-0.205,0.79-0.405,1.206-0.555c0.51-0.182,0.758-0.438,0.428-0.97c-0.312-0.506-0.04-0.723,0.415-0.866
				c0.387-0.122,0.767-0.264,1.148-0.4c0.591-0.212,1.148-0.392,1.271,0.54c0.051,0.386,0.354,0.412,0.678,0.327
				c0.393-0.101,0.784-0.24,1.183-0.279c0.631-0.061,0.962-0.261,0.746-0.97c-0.123-0.41,0.097-0.603,0.522-0.629
				c0.515-0.031,1.025-0.133,1.537-0.159c0.267-0.013,0.754-0.161,0.754,0.207c-0.008,1.594,1.176,0.905,1.903,1.028
				c0.524,0.09,1.069,0.055,0.988-0.749c-0.042-0.435,0.196-0.595,0.611-0.54c0.584,0.077,1.169,0.161,1.755,0.219
				c0.413,0.042,0.564,0.218,0.522,0.646c-0.137,1.398,1.108,0.786,1.698,1.119c0.519,0.293,0.903,0.153,1.008-0.516
				c0.065-0.412,0.361-0.519,0.748-0.39c0.559,0.187,1.122,0.362,1.682,0.554c0.313,0.109,0.523,0.307,0.359,0.665
				c-0.644,1.392,0.787,1.065,1.27,1.493c0.466,0.412,0.997,0.468,1.279-0.294c0.081-0.218,0.268-0.4,0.518-0.26
				c0.672,0.38,1.384,0.725,1.971,1.213c0.454,0.375-0.231,0.66-0.29,1.02c-0.015,0.1-0.043,0.257,0.01,0.299
				c0.564,0.47,1.11,0.98,1.733,1.359c0.432,0.261,0.595-0.3,0.85-0.52c0.288-0.246,0.471-0.067,0.664,0.103
				c0.278,0.244,0.562,0.483,0.815,0.748c0.455,0.477,1.226,0.915,0.209,1.607c-0.307,0.211-0.081,0.445,0.089,0.647
				c0.33,0.395,0.674,0.783,0.982,1.197c0.244,0.327,0.496,0.452,0.8,0.119c0.526-0.578,0.86-0.289,1.194,0.212
				c0.265,0.399,0.561,0.778,0.849,1.162c0.204,0.272,0.28,0.519-0.075,0.731c-1.252,0.749-0.024,1.247,0.211,1.817
				c0.26,0.631,0.658,1.091,1.373,0.417c0.26-0.247,0.453-0.096,0.613,0.164c0.191,0.314,0.409,0.613,0.601,0.93
				c0.338,0.559,0.886,0.965-0.066,1.671c-0.69,0.512,0.373,1.142,0.584,1.743c0.177,0.502,0.502,0.721,1.004,0.327
				c0.457-0.354,0.716-0.122,0.934,0.305c0.235,0.459,0.497,0.905,0.753,1.354c0.133,0.232,0.306,0.512-0.029,0.656
				c-1.25,0.534-0.414,1.182-0.141,1.821c0.383,0.898,1.156,0.555,1.785,0.544c0.839-0.016,0.846-0.882,1.188-1.385
				c0.397-0.583-0.338-0.567-0.551-0.833c-0.087-0.107-0.263-0.272-0.234-0.324c0.371-0.677,0.729-1.37,1.181-1.994
				c0.381-0.525,0.688,0.091,1.03,0.182c0.103,0.025,0.277,0.078,0.306,0.038c0.431-0.594,0.893-1.173,1.242-1.815
				c0.269-0.487-0.313-0.567-0.558-0.788c-0.243-0.221-0.252-0.412-0.071-0.664c0.215-0.3,0.412-0.611,0.617-0.918
				c0.379-0.566,0.695-1.301,1.524-0.485c0.281,0.275,0.451,0.021,0.608-0.19c0.264-0.357,0.495-0.739,0.79-1.066
				c0.387-0.433,0.494-0.791-0.096-1.128c-0.429-0.244-0.407-0.537-0.097-0.892c0.364-0.416,0.692-0.863,1.036-1.297
				c0.204-0.258,0.424-0.425,0.731-0.141c1.128,1.042,1.251-0.406,1.8-0.754c0.541-0.344,0.719-0.808,0.079-1.293
				c-0.305-0.228-0.254-0.483,0.027-0.726c0.306-0.267,0.596-0.552,0.89-0.832c0.492-0.471,0.839-0.864,1.581-0.113
				c0.601,0.611,1.055-0.439,1.604-0.682c0.493-0.219,0.915-0.545,0.384-1.156c-0.348-0.399-0.131-0.653,0.248-0.858
				c0.357-0.192,0.712-0.393,1.06-0.6c0.535-0.317,1.05-0.651,1.356,0.265c0.123,0.362,0.399,0.354,0.719,0.201
				c0.466-0.223,0.944-0.416,1.426-0.604c0.308-0.118,0.569-0.273,0.381-0.637c-0.477-0.925,0.182-1.145,0.817-1.188
				c0.66-0.044,1.614-1.23,1.962,0.38c0.074,0.341,0.309,0.37,0.588,0.315c0.436-0.084,0.865-0.205,1.303-0.251
				c0.562-0.06,0.905-0.243,0.776-0.893c-0.099-0.494,0.203-0.643,0.632-0.686c0.475-0.048,0.945-0.127,1.418-0.192
				c0.295,0.011,0.59,0.021,0.886,0.031c0.027,0.462-0.35,1.141,0.284,1.313c0.679,0.185,1.468,0.199,2.149,0.039
				c0.456-0.105,0.229-0.843,0.446-1.249c0.368,0.014,0.737,0.026,1.107,0.04c0.129,0.063,0.255,0.16,0.389,0.182
				c0.709,0.109,1.608,0.007,1.155,1.226c-0.098,0.261,0.13,0.374,0.374,0.429c0.433,0.092,0.879,0.161,1.286,0.32
				c0.573,0.226,0.999,0.254,1.128-0.49c0.078-0.459,0.391-0.482,0.746-0.358c0.418,0.144,0.824,0.325,1.246,0.457
				c0.631,0.199,1.121,0.439,0.615,1.213c-0.229,0.351-0.031,0.515,0.291,0.659c0.504,0.226,0.996,0.48,1.481,0.744
				c0.218,0.119,0.464,0.212,0.569-0.047c0.516-1.266,1.174-0.519,1.753-0.112c0.579,0.403,1.681,0.658,0.681,1.725
				c-0.211,0.226,0.029,0.394,0.195,0.535c0.311,0.261,0.646,0.497,0.931,0.783c0.442,0.443,0.847,0.721,1.306,0.023
				c0.207-0.312,0.455-0.313,0.718-0.027c0.276,0.298,0.583,0.564,0.863,0.859c0.462,0.487,1.174,0.958,0.123,1.579
				c-0.239,0.142-0.239,0.404-0.016,0.544c0.74,0.459,0.719,2.349,2.304,1.24c0.045-0.032,0.166-0.025,0.203,0.012
				c0.593,0.577,0.953,1.313,1.299,2.042c0.277,0.589-0.423,0.55-0.656,0.816c-0.088,0.1-0.221,0.27-0.188,0.35
				c0.273,0.684,0.515,1.395,0.9,2.015c0.255,0.412,0.655-0.092,0.999-0.09c0.104,0.002,0.27-0.011,0.3,0.042
				c0.402,0.714,0.607,1.503,0.748,2.297c0.109,0.625-0.519,0.484-0.843,0.629c-0.268,0.12-0.286,0.295-0.237,0.53
				c0.083,0.396,0.199,0.79,0.238,1.192c0.06,0.605,0.146,1.111,0.968,0.931c0.426-0.094,0.586,0.167,0.604,0.572
				c0.019,0.442,0.082,0.884,0.12,1.324c0.055,0.594,0.065,1.141-0.811,1.006c-0.367-0.057-0.519,0.166-0.522,0.529
				c-0.005,0.517-0.024,1.034-0.056,1.55c-0.027,0.393,0.065,0.649,0.523,0.635c0.75-0.022,0.828,0.425,0.713,1.021
				c-0.088,0.471-0.163,0.946-0.219,1.422c-0.043,0.345-0.154,0.581-0.553,0.481c-1.489-0.371-0.914,0.967-1.225,1.531
				c-0.294,0.534-0.232,1.083,0.566,1.204c0.397,0.061,0.442,0.321,0.331,0.656c-0.163,0.488-0.328,0.979-0.477,1.474
				c-0.155,0.51-0.337,0.903-0.985,0.536c-0.414-0.232-0.672-0.059-0.826,0.385c-0.158,0.452-0.377,0.881-0.574,1.318
				c-0.132,0.293-0.205,0.552,0.172,0.736c1.446,0.699,0.105,1.37-0.063,2.019c-0.173,0.67-0.588,1.129-1.338,0.513
				c-0.158-0.127-0.354-0.178-0.48,0.01c-0.393,0.58-0.822,1.147-1.124,1.773c-0.257,0.537,0.442,0.561,0.626,0.88
				c0.052,0.087,0.129,0.237,0.094,0.29c-0.432,0.642-0.831,1.313-1.34,1.89c-0.423,0.478-0.667-0.188-1.002-0.301
				c-0.135-0.049-0.269-0.174-0.385-0.027c-0.459,0.575-0.976,1.122-1.329,1.76c-0.233,0.423,0.368,0.541,0.58,0.811
				c0.087,0.112,0.214,0.22,0.095,0.374c-0.484,0.603-0.917,1.266-1.48,1.783c-0.419,0.388-0.654-0.297-1.014-0.396
				c-0.093-0.026-0.245-0.054-0.286-0.007c-0.485,0.553-1.019,1.08-1.41,1.695c-0.272,0.431,0.354,0.535,0.519,0.824
				c0.053,0.092,0.156,0.223,0.127,0.285c-0.346,0.705-0.924,1.238-1.45,1.798c-0.461,0.49-0.664-0.18-0.981-0.323
				c-0.138-0.063-0.282-0.185-0.396-0.064c-0.501,0.54-1.048,1.056-1.442,1.669c-0.264,0.41,0.348,0.554,0.524,0.843
				c0.056,0.089,0.151,0.239,0.12,0.276c-0.484,0.599-0.949,1.221-1.494,1.761c-0.46,0.453-0.697-0.146-0.988-0.344
				c-0.262-0.177-0.408-0.055-0.564,0.108c-0.305,0.32-0.585,0.668-0.906,0.969c-0.451,0.425-0.618,0.808-0.002,1.232
				c0.372,0.255,0.279,0.525-0.008,0.813c-0.363,0.365-0.699,0.76-1.04,1.149c-0.279,0.318-0.574,0.497-0.904,0.084
				c-0.449-0.56-0.813-0.33-1.126,0.121c-0.439,0.639-1.769,1.094-0.471,2.128c0.045,0.035,0.077,0.168,0.05,0.201
				c-0.501,0.587-0.97,1.212-1.535,1.732c-0.467,0.431-0.675-0.206-0.973-0.399c-0.25-0.161-0.396-0.095-0.563,0.092
				c-0.272,0.3-0.532,0.617-0.835,0.885c-0.502,0.444-0.817,0.854-0.065,1.358c0.344,0.229,0.218,0.48-0.027,0.727
				c-0.341,0.338-0.682,0.68-0.984,1.052c-0.362,0.441-0.7,0.65-1.138,0.098c-0.311-0.395-0.594-0.292-0.889,0.052
				c-0.312,0.362-0.66,0.696-0.992,1.042c-0.216,0.227-0.402,0.456-0.08,0.74c1.211,1.074-0.299,1.343-0.61,1.932
				c-0.298,0.564-0.783,0.891-1.341,0.164c-0.244-0.318-0.506-0.182-0.738,0.071c-0.275,0.299-0.549,0.603-0.854,0.868
				c-0.468,0.406-0.661,0.785-0.03,1.213c0.381,0.258,0.282,0.524-0.008,0.799c-0.294,0.279-0.59,0.563-0.844,0.875
				c-0.428,0.523-0.836,0.864-1.377,0.129c-0.097-0.133-0.286-0.314-0.464-0.141c-0.53,0.512-1.104,1.002-1.521,1.598
				c-0.256,0.365,0.317,0.563,0.495,0.851c0.054,0.086,0.129,0.248,0.093,0.287c-0.507,0.578-1.001,1.179-1.566,1.7
				c-0.503,0.461-0.657-0.227-0.95-0.404c-0.302-0.182-0.472-0.071-0.663,0.132c-0.279,0.295-0.539,0.615-0.852,0.872
				c-0.49,0.405-0.653,0.787-0.063,1.232c0.383,0.288,0.245,0.543-0.04,0.811c-0.323,0.303-0.644,0.611-0.929,0.95
				c-0.399,0.472-0.765,0.663-1.224,0.062c-0.26-0.34-0.529-0.271-0.807,0.053c-0.311,0.363-0.659,0.7-1.022,1.012
				c-0.369,0.318-0.378,0.615-0.008,0.904c0.557,0.436,0.354,0.77-0.09,1.131c-0.285,0.23-0.562,0.491-0.778,0.784
				c-0.396,0.534-0.769,0.636-1.199,0.055c-0.265-0.358-0.515-0.293-0.793,0.012c-0.347,0.382-0.724,0.738-1.092,1.1
				c-0.244,0.243-0.333,0.486-0.034,0.748c1.034,0.904-0.136,1.226-0.502,1.681c-0.387,0.482-0.858,1.298-1.586,0.284
				c-0.209-0.292-0.438-0.158-0.639,0.05c-0.311,0.316-0.604,0.655-0.945,0.934c-0.461,0.372-0.601,0.714-0.074,1.136
				c0.33,0.265,0.267,0.511,0.013,0.836c-1.299,1.672-1.593,1.694-3,0.146c-0.05-0.054-0.096-0.114-0.15-0.162
				c-0.346-0.296-0.423-0.587,0.002-0.88c0.678-0.465,0.354-0.961-0.113-1.188c-0.542-0.261-0.614-1.678-1.629-0.758
				c-0.437,0.396-0.67,0.267-0.979-0.086c-0.244-0.276-0.518-0.528-0.786-0.78c-0.44-0.411-0.797-0.812-0.077-1.302
				c0.377-0.257,0.276-0.532-0.009-0.814c-0.339-0.338-0.67-0.688-0.981-1.054c-0.293-0.348-0.582-0.449-0.899-0.055
				c-0.436,0.54-0.78,0.349-1.137-0.103c-0.253-0.316-0.535-0.612-0.829-0.892c-0.367-0.352-0.568-0.668-0.045-1.065
				c0.798-0.604,0.062-1.007-0.294-1.269c-0.439-0.323-0.597-1.58-1.546-0.642c-0.417,0.41-0.693,0.247-0.991-0.116
				c-0.306-0.37-0.639-0.718-0.937-1.094c-0.146-0.179-0.521-0.411-0.242-0.624c1.283-0.981-0.019-1.426-0.404-2.035
				c-0.336-0.533-0.771-0.798-1.286-0.143c-0.247,0.313-0.496,0.214-0.728-0.05c-0.39-0.444-0.777-0.889-1.186-1.316
				c-0.266-0.278-0.244-0.504,0.041-0.739c1.074-0.89-0.141-1.211-0.467-1.704c-0.299-0.449-0.693-1.096-1.344-0.303
				c-0.292,0.354-0.551,0.236-0.809-0.07c-0.261-0.312-0.538-0.61-0.832-0.891c-0.477-0.453-0.836-0.883-0.023-1.361
				c0.145-0.085,0.33-0.271,0.174-0.455c-0.476-0.562-0.933-1.157-1.495-1.62c-0.392-0.322-0.581,0.289-0.891,0.428
				c-0.091,0.041-0.25,0.109-0.284,0.074c-0.564-0.58-1.173-1.133-1.639-1.787c-0.29-0.408,0.287-0.588,0.51-0.838
				c0.249-0.279,0.088-0.457-0.09-0.658c-0.27-0.304-0.553-0.599-0.8-0.918c-0.366-0.472-0.725-0.734-1.216-0.14
				c-0.283,0.345-0.558,0.239-0.814-0.07c-0.356-0.425-0.72-0.845-1.097-1.248c-0.29-0.311-0.262-0.557,0.051-0.838
				c1.081-0.977-0.312-1.235-0.569-1.803c-0.262-0.575-0.739-0.789-1.264-0.177c-0.319,0.374-0.567,0.159-0.801-0.13
				c-0.207-0.261-0.432-0.505-0.648-0.758c-0.424-0.489-0.903-0.815-0.142-1.588c0.604-0.611-0.479-1.021-0.776-1.532
				c-0.264-0.45-0.641-0.866-1.188-0.24c-0.336,0.386-0.61,0.25-0.887-0.113c-0.312-0.41-0.678-0.78-1.007-1.178
				c-0.186-0.226-0.425-0.481-0.075-0.751c1.288-0.994-0.195-1.359-0.467-1.974c-0.315-0.714-0.798-0.603-1.275-0.097
				c-0.082,0.087-0.337,0.158-0.379,0.114c-0.523-0.569-1.069-1.125-1.516-1.754c-0.371-0.526,0.302-0.635,0.518-0.913
				c0.225-0.289,0.076-0.456-0.095-0.661c-0.258-0.313-0.533-0.615-0.757-0.953c-0.348-0.525-0.7-0.733-1.207-0.179
				c-0.236,0.258-0.496,0.268-0.734-0.047c-0.357-0.471-0.735-0.924-1.106-1.383c-0.209-0.254-0.326-0.494,0.015-0.744
				c1.249-0.91-0.141-1.312-0.401-1.902c-0.251-0.57-0.684-0.86-1.253-0.252c-0.265,0.279-0.51,0.187-0.724-0.112
				c-0.277-0.392-0.565-0.778-0.878-1.141c-0.403-0.466-0.531-0.865,0.125-1.22c0.413-0.225,0.306-0.511,0.065-0.814
				c-0.295-0.377-0.579-0.766-0.854-1.159c-0.221-0.32-0.478-0.496-0.808-0.185c-0.556,0.525-0.877,0.246-1.186-0.28
				c-0.244-0.411-0.531-0.798-0.813-1.188c-0.202-0.281-0.275-0.542,0.104-0.714c0.714-0.325,0.711-0.826,0.211-1.267
				c-0.484-0.427-0.272-1.917-1.605-1.115c-0.334,0.199-0.552,0.071-0.706-0.249c-0.257-0.531-0.515-1.063-0.778-1.59
				c-0.142-0.281-0.282-0.625,0.128-0.726c1.137-0.276,0.63-0.948,0.365-1.5c-0.207-0.436-0.231-1.363-0.724-1.206
				c-1.502,0.484-1.295-0.687-1.578-1.398c-0.26-0.661-0.436-1.304,0.617-1.425c0.25-0.028,0.339-0.226,0.278-0.497
				c-0.123-0.539-0.216-1.084-0.321-1.629c-0.063-0.318-0.205-0.597-0.584-0.496c-0.906,0.239-0.912-0.373-1.023-0.978
				c-0.061-0.339,0.111-0.759-0.271-1.015c0.011-0.296,0.021-0.591,0.032-0.888c0.456-0.045,1.182,0.244,1.311-0.189
				c0.206-0.703,0.189-1.535,0.035-2.262C169.711,396.293,169.012,396.501,168.577,396.38z"/>
		</g>
		<path fill="#FFFFFF" d="M245.578,428.121c0.018-0.542,0.015-1.089-0.006-1.64c-0.054-1.346-0.219-2.659-0.485-3.935l-6.971-1.098
			l4.617-5.341c-0.893-1.654-1.974-3.189-3.218-4.574l-6.585,2.533l1.33-6.932c-1.578-0.974-3.279-1.769-5.071-2.356l-4.42,5.467
			l-2.323-6.641c-0.538-0.015-1.087-0.013-1.636,0.009c-1.345,0.054-2.66,0.22-3.938,0.485l-1.098,6.972l-5.339-4.619
			c-1.654,0.895-3.188,1.979-4.573,3.221l2.532,6.583l-6.932-1.329c-0.974,1.579-1.771,3.278-2.355,5.071l5.489,4.44l-6.665,2.311
			c-0.015,0.543-0.014,1.088,0.007,1.637c0.055,1.344,0.221,2.658,0.486,3.938l6.972,1.098l-4.619,5.339
			c0.896,1.651,1.977,3.188,3.218,4.573l6.586-2.532l-1.33,6.931c1.578,0.976,3.281,1.77,5.071,2.357l4.423-5.466l2.321,6.641
			c0.541,0.013,1.085,0.011,1.636-0.011c1.344-0.054,2.658-0.219,3.936-0.486l1.098-6.969l5.34,4.616
			c1.654-0.893,3.188-1.976,4.574-3.217l-2.533-6.586l6.932,1.331c0.977-1.579,1.77-3.279,2.357-5.073l-5.49-4.439L245.578,428.121z
			 M222.263,440.225c-1.297,0.052-2.657-0.172-2.657-0.172l0,0c-5.836-0.991-10.388-5.953-10.635-12.108
			c-0.281-7.064,5.217-13.019,12.28-13.3c0.919-0.037,1.816,0.029,2.688,0.178c5.823,1.005,10.359,5.957,10.604,12.1
			C234.826,433.987,229.326,439.941,222.263,440.225z"/>
		<path fill="#FFFFFF" d="M202.149,395.693c0.005-0.157-0.006-0.312-0.009-0.468l-3.466-1.348l2.271-3.184
			c-0.384-0.705-0.849-1.36-1.388-1.948l-3.752,1.274l-0.31-3.938c-0.748-0.256-1.541-0.412-2.361-0.48l-2.006,3.305l-2.563-2.607
			c-0.813,0.335-1.577,0.771-2.267,1.304l0.532,3.459l-3.193-0.308c-0.454,0.845-0.786,1.763-0.977,2.734l2.263,1.985l-2.319,1.594
			c0.18,1.051,0.533,2.043,1.021,2.956l2.675,0.058l-0.697,2.513c0.779,0.727,1.673,1.334,2.658,1.779l2.054-1.647l1.125,2.467
			c0.191,0.018,0.382,0.041,0.575,0.047c0.868,0.025,1.709-0.073,2.516-0.261l0.559-2.808l2.792,1.331
			c0.788-0.543,1.492-1.196,2.092-1.942l-1.581-2.884l3.466-0.896C202.025,397.109,202.128,396.412,202.149,395.693z
			 M192.285,398.655c-1.79-0.054-3.197-1.547-3.145-3.336c0.054-1.79,1.548-3.197,3.337-3.144s3.196,1.547,3.144,3.336
			C195.567,397.302,194.074,398.709,192.285,398.655z"/>
		<path fill="#FFFFFF" d="M254.748,385.562l-16.63,15.4l15.4,16.63l16.63-15.401L254.748,385.562z M253.965,407.24
			c-3.128-0.094-5.588-2.705-5.495-5.832c0.093-3.128,2.705-5.588,5.832-5.495c3.128,0.093,5.588,2.705,5.495,5.832
			C259.703,404.873,257.092,407.333,253.965,407.24z"/>
	</g>
	<g>
		<g>
			<polygon fill="#858585" points="159.851,443.116 179.19,455.561 177.189,463.307 160.936,458.161 			"/>
		</g>
		<g>
			<polygon fill="#858585" points="85.411,391.276 125.044,434.764 155.6,441.755 157.24,469.673 145.761,479.996 136.359,484.799 
				126.62,485.499 108.043,457.209 77.335,438.349 76.107,422.872 			"/>
		</g>
		<g>
			<polygon fill="#858585" points="150.676,483.347 142.029,486.998 153.126,506.602 161.713,502.33 			"/>
		</g>
		<g>
			<polygon fill="#858585" points="137.489,488.414 130.069,490.118 135.393,509.58 144.029,505.384 			"/>
		</g>
		<g>
			<polygon fill="#858585" points="173.088,491.077 161.304,474.641 153.676,480.191 164.576,496.919 			"/>
		</g>
	</g>
	<g>
		<g>
			<polygon fill="#858585" points="287.173,408.075 265.303,415.187 265.266,423.189 282.295,422.35 			"/>
		</g>
		<g>
			<polygon fill="#858585" points="364.359,385.457 323.148,409.513 291.818,408.497 283.128,435.077 291.602,447.983 
				299.471,455.02 308.71,458.177 333.875,435.546 372.691,424.179 376.927,410.377 			"/>
		</g>
		<g>
			<polygon fill="#858585" points="285.996,449.973 293.429,455.704 277.707,471.839 270.491,465.522 			"/>
		</g>
		<g>
			<polygon fill="#858585" points="297.458,458.229 304.199,461.766 294.099,479.232 286.815,472.976 			"/>
		</g>
		<g>
			<polygon fill="#858585" points="262.353,451.743 277.934,438.849 283.898,446.156 269.099,459.56 			"/>
		</g>
	</g>
</g>
<path fill="#F8EE42" d="M162.588,386.977c0,0,3.567-11.293,2.315-14.07c-1.253-2.777-11.931-7.254-11.931-7.254
	s11.293,2.567,14.07,1.315c2.778-1.253,7.255-10.931,7.255-10.931s-3.568,11.293-2.316,14.07c1.253,2.778,11.932,7.254,11.932,7.254
	s-11.293-3.567-14.07-2.314C167.064,376.299,162.588,386.977,162.588,386.977z"/>
<path fill="#F8EE42" d="M260.1,378.3c0,0-4.597-5.688-6.454-5.991s-7.804,3.667-7.804,3.667s5.174-4.938,5.477-6.795
	c0.303-1.856-3.153-7.464-3.153-7.464s4.598,5.689,6.455,5.992c1.857,0.304,7.804-3.668,7.804-3.668s-5.688,4.598-5.991,6.454
	C256.13,372.353,260.1,378.3,260.1,378.3z"/>
</svg>
