<?xml version="1.0" encoding="utf-8"?>
<!-- Generator: Adobe Illustrator 16.0.0, SVG Export Plug-In . SVG Version: 6.00 Build 0)  -->
<!DOCTYPE svg PUBLIC "-//W3C//DTD SVG 1.1//EN" "http://www.w3.org/Graphics/SVG/1.1/DTD/svg11.dtd">
<svg version="1.1" id="圖層_1" xmlns="http://www.w3.org/2000/svg" xmlns:xlink="http://www.w3.org/1999/xlink" x="0px" y="0px"
	 width="520px" height="700px" viewBox="0 0 520 700" enable-background="new 0 0 520 700" xml:space="preserve">
<polygon fill="#9B9A9A" points="220.766,24.819 216.198,75.731 137.777,126.749 351.733,112.745 259.11,70.732 247.069,18.715 "/>
<polygon fill="#9B9A9A" points="138.895,130.986 130.626,287.86 167.607,324.051 348.849,314.047 381.935,278.033 352.851,116.982 
	"/>
<polygon fill="#9B9A9A" points="178.551,345.292 170.814,565.587 377.677,549.716 344.423,339.291 "/>
<polygon fill="#9B9A9A" points="167.395,328.169 178.551,341.173 344.423,335.171 348.423,318.165 "/>
<g>
	<polygon fill="#858585" points="351.733,112.745 260.228,72.968 247.069,18.715 241.427,25.043 245.872,81.771 293.065,116.585 	
		"/>
	<polygon fill="#858585" points="344.423,339.291 309.167,340.572 301.702,555.545 377.677,549.716 	"/>
	<g>
		<polygon fill="#858585" points="311.198,320.223 309.448,336.436 344.423,335.171 348.419,318.181 		"/>
		<path fill="#858585" d="M352.851,116.982l-56.133,3.67c5.941,14.965,43.781,111.982,37.793,140.66
			c-4.992,23.899-16.07,45.837-20.938,54.725l0.025-0.045l35.25-1.945l33.086-36.014L352.851,116.982z"/>
	</g>
</g>
<polygon fill="#858585" points="227.213,565.834 252.155,564.351 261.817,665.875 216.315,680.809 215.997,662.542 238.239,656.579 
	"/>
<polygon fill="#858585" points="305.772,559.894 329.55,558.195 371.96,640.171 393.718,631.544 393.718,649.046 356.851,659.547 
	"/>
<polygon fill="#FFFFFF" points="243.433,228.499 266.319,226.017 273.21,256.899 242.604,261.313 "/>
<path fill="none" stroke="#FFFFFF" stroke-width="4" stroke-linecap="round" stroke-miterlimit="10" d="M197.211,280.702
	c0,0,45.153,38.841,112.034,0"/>
<path fill="#FFFFFF" d="M219.219,201.677c0,17.862-6.671,29.009-23.008,32.343c-12.451,2.541-25.676-6.145-25.676-24.008
	c0-17.862,12.969-40.68,25.676-40.68S219.219,183.813,219.219,201.677z"/>
<g>
	<polygon fill="#858585" points="174.586,345.351 76.391,365.113 48.077,354.605 31.492,376.318 37.07,389.616 41.806,397.925 
		48.201,404.993 78.117,390.563 172.525,390.946 	"/>
	<polygon fill="#858585" points="44.151,353.022 27.487,342.48 24.592,349.924 35.856,363.878 	"/>
	<polygon fill="#858585" points="11.229,385.667 28.318,379.078 31.34,387.066 14.771,394.319 	"/>
	<polygon fill="#858585" points="32.041,390.946 36.775,398.008 18.632,407.344 14.252,399.84 	"/>
	<polygon fill="#858585" points="38.147,399.913 44.281,406.312 30.584,418.405 26.129,410.939 	"/>
</g>
<g>
	<polygon fill="#858585" points="348.698,338.308 445.698,370.27 475.642,363.078 489.786,387.078 482.519,399.861 476.716,407.695 
		469.38,414.07 440.853,395.821 356.886,386.993 	"/>
	<polygon fill="#858585" points="479.636,361.861 497.79,353.217 499.812,361.104 486.71,373.859 	"/>
	<polygon fill="#858585" points="508.987,398.915 492.491,390.163 488.46,397.883 504.349,407.245 	"/>
	<polygon fill="#858585" points="487.276,401.727 481.624,408.3 498.854,419.956 504.202,412.896 	"/>
	<polygon fill="#858585" points="480.005,410.061 473.015,415.792 485.409,429.701 490.829,422.685 	"/>
</g>
<polygon fill="#5E5E5E" points="203.879,366.064 324.915,355.06 350.485,489.112 195.938,498.114 "/>
<g>
	<g>
		<g>
			<path fill="#F46262" d="M314.772,396.2c-9.865-9.46-25.529-9.134-34.99,0.732c-3.936,4.135-7.93,9.936-11.143,15.089
				c-2.611-5.482-5.92-11.699-9.359-16.253c-8.279-10.876-23.805-12.979-34.679-4.699c-10.872,8.276-11.735,22.962-4.697,34.68
				c9.951,16.571,44.774,56.114,44.774,56.114s39.057-35.342,50.826-50.676C323.825,420.347,324.636,405.657,314.772,396.2z"/>
		</g>
		<g>
			<g>
				<path fill="#F46262" d="M268.462,415.141l-1.178-2.475c-0.209-0.442-0.426-0.889-0.645-1.341l0.957-0.465
					c0.189-0.303,0.381-0.607,0.576-0.913l0.564,0.358l0.6-0.291c0.16,0.326,0.316,0.65,0.471,0.972l0.896,0.57
					c-0.27,0.424-0.533,0.844-0.791,1.259L268.462,415.141z"/>
			</g>
			<g>
				<path fill="#F46262" d="M260.632,479.509l-1.971-2.274l2.27-1.961l1.965,2.269L260.632,479.509z M256.696,474.954l-1.957-2.282
					l2.279-1.951l1.953,2.278L256.696,474.954z M252.788,470.385l-1.947-2.294l2.289-1.938l1.941,2.286L252.788,470.385z
					 M248.901,465.796l-1.936-2.304l2.301-1.926l1.928,2.296L248.901,465.796z M245.04,461.183
					c-0.637-0.764-1.277-1.536-1.922-2.314l2.313-1.912c0.641,0.776,1.279,1.545,1.914,2.307L245.04,461.183z M241.204,456.549
					l-1.902-2.327l2.322-1.896l1.898,2.319L241.204,456.549z M237.403,451.884c-0.631-0.781-1.26-1.563-1.885-2.343l2.342-1.875
					c0.621,0.776,1.248,1.554,1.877,2.331L237.403,451.884z M233.644,447.188c-0.629-0.791-1.25-1.581-1.865-2.364l2.361-1.851
					c0.609,0.778,1.229,1.563,1.854,2.35L233.644,447.188z M229.928,442.446c-0.623-0.807-1.236-1.605-1.834-2.394l2.387-1.814
					c0.596,0.782,1.204,1.573,1.821,2.374L229.928,442.446z M226.279,437.643c-0.617-0.828-1.215-1.639-1.791-2.433l2.426-1.764
					c0.57,0.784,1.162,1.587,1.77,2.405L226.279,437.643z M222.727,432.75c-0.605-0.862-1.182-1.697-1.723-2.501l2.49-1.674
					c0.529,0.786,1.092,1.604,1.686,2.448L222.727,432.75z M219.342,427.695c-0.254-0.402-0.496-0.794-0.725-1.175
					c-0.297-0.495-0.582-0.996-0.852-1.502l2.643-1.416c0.248,0.463,0.51,0.921,0.781,1.374c0.217,0.362,0.447,0.736,0.688,1.119
					L219.342,427.695z M216.412,422.19c-0.409-0.967-0.774-1.957-1.085-2.943l2.86-0.904c0.283,0.897,0.617,1.799,0.988,2.68
					L216.412,422.19z M214.526,416.207c-0.217-1.032-0.383-2.079-0.492-3.112l2.985-0.314c0.098,0.931,0.246,1.876,0.443,2.808
					L214.526,416.207z M216.875,409.951l-3.001-0.014c0.005-1.064,0.069-2.128,0.193-3.162l2.979,0.355
					C216.938,408.051,216.879,409,216.875,409.951z M265.315,408.671c-0.447-0.874-0.908-1.752-1.379-2.626l2.639-1.426
					c0.482,0.894,0.953,1.791,1.41,2.685L265.315,408.671z M217.547,404.362l-2.915-0.713c0.254-1.036,0.574-2.059,0.951-3.041
					l2.802,1.076C218.053,402.549,217.77,403.45,217.547,404.362z M262.497,403.462c-0.496-0.86-1.002-1.706-1.514-2.529
					l2.545-1.586c0.531,0.851,1.055,1.728,1.566,2.617L262.497,403.462z M219.559,399.143l-2.635-1.434
					c0.508-0.934,1.084-1.841,1.711-2.699l2.42,1.771C220.506,397.532,220.002,398.326,219.559,399.143z M259.382,398.478
					c-0.43-0.626-0.863-1.229-1.299-1.805c-0.131-0.174-0.268-0.348-0.406-0.519l2.334-1.885c0.156,0.194,0.313,0.392,0.465,0.592
					c0.463,0.613,0.922,1.254,1.379,1.917L259.382,398.478z M222.852,394.636l-2.168-2.072c0.725-0.76,1.514-1.486,2.34-2.159
					l1.893,2.326C224.188,393.325,223.492,393.966,222.852,394.636z M255.78,394.071c-0.672-0.654-1.391-1.271-2.133-1.836
					l1.816-2.389c0.838,0.638,1.648,1.335,2.408,2.074L255.78,394.071z M227.203,391.088l-1.602-2.537
					c0.895-0.564,1.832-1.08,2.783-1.531l1.285,2.711C228.826,390.13,227.996,390.587,227.203,391.088z M251.308,390.673
					c-0.809-0.472-1.654-0.897-2.512-1.267l1.184-2.756c0.971,0.416,1.926,0.897,2.84,1.431L251.308,390.673z M232.28,388.685
					l-0.944-2.848c1.007-0.333,2.04-0.607,3.075-0.814l0.588,2.941C234.085,388.147,233.171,388.39,232.28,388.685z
					 M246.147,388.453c-0.896-0.263-1.82-0.474-2.746-0.628l0.492-2.959c1.045,0.174,2.086,0.412,3.096,0.708L246.147,388.453z
					 M237.786,387.578l-0.227-2.992c1.066-0.08,2.131-0.093,3.172-0.051l-0.129,2.998
					C239.677,387.492,238.735,387.506,237.786,387.578z"/>
			</g>
			<g>
				<polygon fill="#F46262" points="264.558,483.994 262.563,481.726 263.675,480.753 263.673,480.751 264.774,479.749 
					264.796,479.772 264.821,479.751 265.804,480.871 265.8,480.874 266.796,481.966 				"/>
			</g>
			<g>
				<path fill="#F46262" d="M269.009,479.942l-2.029-2.211c0.656-0.601,1.395-1.28,2.207-2.03l2.037,2.203
					C270.407,478.658,269.665,479.34,269.009,479.942z M273.431,475.864l-2.039-2.201l2.197-2.041l2.045,2.195L273.431,475.864z
					 M277.831,471.766l-2.049-2.191l2.188-2.052l2.055,2.186L277.831,471.766z M282.21,467.644l-2.063-2.178l2.176-2.064
					l2.066,2.176L282.21,467.644z M286.567,463.501l-2.074-2.168l2.164-2.075l2.08,2.162L286.567,463.501z M290.899,459.331
					l-2.088-2.154l2.145-2.087l2.096,2.148L290.899,459.331z M295.202,455.131l-2.104-2.139c0.713-0.702,1.424-1.404,2.129-2.105
					l2.113,2.131C296.632,453.721,295.919,454.427,295.202,455.131z M299.47,450.889l-2.125-2.119
					c0.711-0.711,1.412-1.42,2.107-2.125l2.139,2.104C300.892,449.459,300.185,450.172,299.47,450.889z M303.696,446.596
					l-2.152-2.09c0.705-0.725,1.398-1.442,2.076-2.153l2.168,2.074C305.104,445.142,304.405,445.865,303.696,446.596z
					 M307.864,442.237l-2.188-2.053c0.697-0.743,1.375-1.473,2.031-2.188l2.211,2.027
					C309.255,440.747,308.569,441.486,307.864,442.237z M311.946,437.776l-2.244-1.99c0.686-0.772,1.338-1.521,1.951-2.242
					l2.285,1.945C313.312,436.225,312.646,436.988,311.946,437.776z M315.88,433.139l-2.342-1.875
					c0.271-0.338,0.529-0.669,0.777-0.99c0.332-0.433,0.652-0.872,0.959-1.318l2.473,1.699c-0.336,0.489-0.688,0.972-1.053,1.446
					C316.435,432.438,316.165,432.783,315.88,433.139z M319.407,427.997l-2.615-1.471c0.469-0.832,0.9-1.691,1.281-2.552
					l2.742,1.217C320.396,426.139,319.921,427.083,319.407,427.997z M321.95,422.259l-2.848-0.943
					c0.299-0.905,0.553-1.828,0.754-2.74l2.93,0.643C322.563,420.231,322.282,421.255,321.95,422.259z M323.296,416.1l-2.982-0.324
					c0.096-0.878,0.145-1.768,0.145-2.642l-0.002-0.165l3-0.047l0.002,0.212C323.458,414.116,323.403,415.113,323.296,416.1z
					 M320.267,410.15c-0.121-0.929-0.301-1.855-0.535-2.755l2.902-0.758c0.266,1.02,0.471,2.072,0.607,3.126L320.267,410.15z
					 M272.294,409.108l-2.5-1.658c0.555-0.837,1.125-1.677,1.705-2.509l2.461,1.715
					C273.394,407.471,272.837,408.291,272.294,409.108z M318.847,404.74c-0.35-0.858-0.762-1.703-1.225-2.511l2.602-1.492
					c0.529,0.923,1,1.888,1.4,2.87L318.847,404.74z M275.681,404.255l-2.412-1.783c0.611-0.827,1.229-1.637,1.852-2.423l2.352,1.861
					C276.87,402.671,276.272,403.455,275.681,404.255z M316.073,399.897c-0.561-0.736-1.18-1.45-1.84-2.122l2.141-2.102
					c0.748,0.762,1.449,1.57,2.086,2.405L316.073,399.897z M279.343,399.651l-2.268-1.965c0.539-0.623,1.08-1.221,1.621-1.788
					c0.162-0.17,0.324-0.334,0.488-0.497l2.115,2.129c-0.146,0.144-0.291,0.29-0.434,0.439
					C280.36,398.501,279.851,399.063,279.343,399.651z M312.142,395.888c-0.729-0.583-1.504-1.13-2.303-1.624l1.578-2.551
					c0.9,0.557,1.775,1.173,2.598,1.831L312.142,395.888z M283.411,395.675l-1.84-2.369c0.836-0.649,1.719-1.252,2.625-1.793
					l1.537,2.576C284.933,394.567,284.151,395.101,283.411,395.675z M307.362,392.936c-0.848-0.39-1.73-0.732-2.625-1.019
					l0.916-2.857c1.008,0.323,2.004,0.711,2.963,1.151L307.362,392.936z M288.231,392.798l-1.215-2.744
					c0.967-0.427,1.969-0.799,2.98-1.106l0.871,2.871C289.974,392.09,289.087,392.419,288.231,392.798z M302.011,391.226
					c-0.918-0.175-1.855-0.296-2.789-0.357l0.199-2.994c1.055,0.07,2.115,0.207,3.152,0.404L302.011,391.226z M293.606,391.165
					l-0.518-2.955c1.041-0.183,2.104-0.304,3.156-0.359l0.158,2.996C295.47,390.896,294.53,391.003,293.606,391.165z"/>
			</g>
		</g>
	</g>
	<path fill="#FFFFFF" d="M288.575,440.369c0-1.318-0.109-2.615-0.32-3.875l-6.789-1.349l4.734-5.051
		c-0.813-1.657-1.813-3.204-2.977-4.611l-6.553,2.225l1.574-6.74c-1.51-1.019-3.145-1.862-4.877-2.509l-4.566,5.206l-2.004-6.623
		c-0.529-0.035-1.064-0.054-1.605-0.054c-1.32,0-2.615,0.11-3.877,0.321l-1.35,6.79l-5.053-4.736
		c-1.654,0.81-3.199,1.812-4.607,2.976l2.225,6.552l-6.74-1.572c-1.018,1.508-1.863,3.142-2.508,4.875l5.205,4.568l-6.623,2.004
		c-0.035,0.529-0.055,1.066-0.055,1.604c0,1.319,0.111,2.614,0.322,3.879l6.787,1.349l-4.734,5.052
		c0.813,1.654,1.813,3.202,2.975,4.609l6.555-2.225l-1.576,6.74c1.512,1.019,3.146,1.862,4.879,2.511l4.564-5.206l2.008,6.622
		c0.529,0.034,1.064,0.054,1.604,0.054c1.32,0,2.615-0.111,3.877-0.322l1.35-6.787l5.051,4.733c1.656-0.81,3.201-1.811,4.609-2.975
		l-2.227-6.553l6.742,1.575c1.02-1.512,1.863-3.145,2.51-4.88l-5.205-4.566l6.619-2.004
		C288.556,441.445,288.575,440.909,288.575,440.369z M265.192,452.927c-6.936,0-12.557-5.621-12.557-12.558
		c0-6.934,5.621-12.556,12.557-12.556s12.557,5.622,12.557,12.556C277.749,447.306,272.128,452.927,265.192,452.927z"/>
	<circle fill="#FFFFFF" cx="240.109" cy="412.309" r="9.535"/>
	<path fill="#FFFFFF" d="M297.519,400.653c-7.75,0-14.033,6.284-14.033,14.033c0,7.75,6.283,14.034,14.033,14.034
		c7.752,0,14.033-6.284,14.033-14.034C311.552,406.938,305.271,400.653,297.519,400.653z M297.519,421.492
		c-3.758,0-6.805-3.046-6.805-6.806c0-3.757,3.047-6.804,6.805-6.804s6.805,3.047,6.805,6.804
		C304.323,418.446,301.276,421.492,297.519,421.492z"/>
</g>
<path fill="#FFFFFF" d="M292.263,197.473c0,17.862,6.67,29.008,23.008,32.344c12.451,2.54,25.676-6.146,25.676-24.008
	c0-17.864-12.969-40.681-25.676-40.681S292.263,179.608,292.263,197.473z"/>
</svg>
