<?xml version="1.0" encoding="utf-8"?>
<!-- Generator: Adobe Illustrator 16.0.0, SVG Export Plug-In . SVG Version: 6.00 Build 0)  -->
<!DOCTYPE svg PUBLIC "-//W3C//DTD SVG 1.1//EN" "http://www.w3.org/Graphics/SVG/1.1/DTD/svg11.dtd">
<svg version="1.1" id="圖層_1" xmlns="http://www.w3.org/2000/svg" xmlns:xlink="http://www.w3.org/1999/xlink" x="0px" y="0px"
	 width="540px" height="700px" viewBox="0 0 540 700" enable-background="new 0 0 540 700" xml:space="preserve">
<polygon fill="#9B9A9A" points="230.765,24.819 226.198,75.731 147.777,126.749 361.735,112.745 269.112,70.732 257.072,18.715 "/>
<polygon fill="#9B9A9A" points="148.895,130.986 140.626,287.86 177.607,324.051 358.852,314.047 391.938,278.033 362.854,116.982 
	"/>
<polygon fill="#9B9A9A" points="188.551,345.292 180.814,565.587 387.68,549.716 354.425,339.291 "/>
<polygon fill="#9B9A9A" points="177.395,328.169 188.551,341.173 354.425,335.171 358.426,318.165 "/>
<g>
	<polygon fill="#858585" points="361.735,112.745 270.23,72.968 257.072,18.715 251.429,25.043 255.875,81.771 303.067,116.585 	"/>
	<polygon fill="#858585" points="354.425,339.291 319.17,340.572 311.705,555.545 387.68,549.716 	"/>
	<g>
		<polygon fill="#858585" points="321.2,320.223 319.451,336.436 354.425,335.171 358.422,318.181 		"/>
		<path fill="#858585" d="M362.854,116.982l-56.133,3.67c5.941,14.965,43.781,111.982,37.792,140.66
			c-4.991,23.899-16.069,45.837-20.937,54.725l0.025-0.045l35.25-1.945l33.086-36.014L362.854,116.982z"/>
	</g>
</g>
<polygon fill="#858585" points="237.212,565.834 262.157,564.351 271.82,665.875 226.316,680.809 225.997,662.542 248.239,656.579 
	"/>
<polygon fill="#858585" points="315.774,559.894 339.553,558.195 381.962,640.171 403.72,631.544 403.72,649.046 366.854,659.547 
	"/>
<polygon fill="#FFFFFF" points="253.435,228.499 276.321,226.017 283.213,256.899 252.607,261.313 "/>
<path fill="none" stroke="#FFFFFF" stroke-width="4" stroke-linecap="round" stroke-miterlimit="10" d="M207.21,280.702
	c0,0,45.157,38.841,112.038,0"/>
<path fill="#FFFFFF" d="M229.218,201.677c0,17.862-6.67,29.009-23.008,32.343c-12.451,2.541-25.676-6.145-25.676-24.008
	c0-17.862,12.969-40.68,25.676-40.68C218.917,169.332,229.218,183.813,229.218,201.677z"/>
<g>
	<polygon fill="#858585" points="184.586,345.351 86.391,365.113 58.077,354.605 41.492,376.318 47.07,389.616 51.806,397.925 
		58.201,404.993 88.117,390.563 182.525,390.946 	"/>
	<polygon fill="#858585" points="54.151,353.022 37.487,342.48 34.592,349.924 45.856,363.878 	"/>
	<polygon fill="#858585" points="21.229,385.667 38.318,379.078 41.34,387.066 24.771,394.319 	"/>
	<polygon fill="#858585" points="42.041,390.946 46.775,398.008 28.632,407.344 24.252,399.84 	"/>
	<polygon fill="#858585" points="48.147,399.913 54.281,406.312 40.584,418.405 36.129,410.939 	"/>
</g>
<g>
	<polygon fill="#858585" points="358.701,338.308 455.701,370.27 485.644,363.078 499.789,387.078 492.521,399.861 486.719,407.695 
		479.382,414.07 450.855,395.821 366.889,386.993 	"/>
	<polygon fill="#858585" points="489.639,361.861 507.792,353.217 509.814,361.104 496.713,373.859 	"/>
	<polygon fill="#858585" points="518.99,398.915 502.493,390.163 498.462,397.883 514.351,407.245 	"/>
	<polygon fill="#858585" points="497.279,401.727 491.627,408.3 508.856,419.956 514.204,412.896 	"/>
	<polygon fill="#858585" points="490.008,410.061 483.017,415.792 495.411,429.701 500.831,422.685 	"/>
</g>
<polygon fill="#5E5E5E" points="213.879,366.064 334.918,355.06 360.488,489.112 205.938,498.114 "/>
<g>
	<g>
		<g>
			<path fill="#F46262" d="M324.774,396.2c-9.865-9.46-25.528-9.134-34.989,0.732c-3.937,4.135-7.93,9.936-11.144,15.089
				c-2.612-5.482-5.919-11.699-9.359-16.253c-8.279-10.876-23.807-12.979-34.68-4.699c-10.873,8.276-11.735,22.962-4.699,34.68
				c9.953,16.571,44.777,56.114,44.777,56.114s39.058-35.342,50.826-50.676C333.827,420.347,334.639,405.657,324.774,396.2z"/>
		</g>
		<g>
			<g>
				<path fill="#F46262" d="M278.465,415.141l-1.178-2.475c-0.21-0.442-0.426-0.889-0.646-1.341l0.957-0.465
					c0.19-0.303,0.382-0.607,0.577-0.913l0.564,0.358l0.6-0.291c0.159,0.326,0.315,0.65,0.47,0.972l0.897,0.57
					c-0.269,0.424-0.533,0.844-0.792,1.259L278.465,415.141z"/>
			</g>
			<g>
				<path fill="#F46262" d="M270.633,479.509l-1.97-2.274l2.27-1.961l1.965,2.269L270.633,479.509z M266.699,474.954l-1.958-2.282
					l2.279-1.951l1.954,2.278L266.699,474.954z M262.79,470.385l-1.947-2.294l2.29-1.938l1.941,2.286L262.79,470.385z
					 M258.903,465.796l-1.935-2.304l2.301-1.926l1.928,2.296L258.903,465.796z M255.042,461.183
					c-0.637-0.764-1.277-1.536-1.921-2.314l2.312-1.912c0.642,0.776,1.281,1.545,1.915,2.307L255.042,461.183z M251.207,456.549
					l-1.905-2.327l2.324-1.896l1.899,2.319L251.207,456.549z M247.404,451.884c-0.631-0.781-1.26-1.563-1.885-2.343l2.341-1.875
					c0.623,0.776,1.249,1.554,1.877,2.331L247.404,451.884z M243.643,447.188c-0.628-0.791-1.25-1.581-1.865-2.364l2.361-1.851
					c0.61,0.778,1.229,1.563,1.853,2.35L243.643,447.188z M239.928,442.446c-0.623-0.807-1.235-1.605-1.834-2.394l2.389-1.814
					c0.594,0.782,1.202,1.573,1.82,2.374L239.928,442.446z M236.279,437.643c-0.616-0.828-1.214-1.639-1.791-2.433l2.427-1.764
					c0.57,0.784,1.161,1.587,1.771,2.405L236.279,437.643z M232.727,432.75c-0.607-0.862-1.183-1.697-1.723-2.501l2.489-1.674
					c0.529,0.786,1.092,1.604,1.687,2.448L232.727,432.75z M229.34,427.695c-0.254-0.402-0.495-0.794-0.723-1.175
					c-0.297-0.495-0.583-0.996-0.853-1.502l2.645-1.416c0.248,0.463,0.508,0.921,0.78,1.374c0.218,0.362,0.447,0.736,0.688,1.119
					L229.34,427.695z M226.412,422.19c-0.409-0.967-0.774-1.957-1.085-2.943l2.86-0.904c0.284,0.897,0.616,1.799,0.989,2.68
					L226.412,422.19z M224.526,416.207c-0.217-1.032-0.383-2.079-0.492-3.112l2.983-0.314c0.098,0.931,0.248,1.876,0.444,2.808
					L224.526,416.207z M226.874,409.951l-3-0.014c0.005-1.064,0.069-2.128,0.193-3.162l2.979,0.355
					C226.936,408.051,226.878,409,226.874,409.951z M275.317,408.671c-0.447-0.874-0.907-1.752-1.379-2.626l2.64-1.426
					c0.482,0.894,0.953,1.791,1.41,2.685L275.317,408.671z M227.546,404.362l-2.914-0.713c0.254-1.036,0.574-2.059,0.952-3.041
					l2.8,1.076C228.051,402.549,227.77,403.45,227.546,404.362z M272.499,403.462c-0.496-0.86-1.001-1.706-1.513-2.529l2.546-1.586
					c0.531,0.851,1.053,1.728,1.566,2.617L272.499,403.462z M229.558,399.143l-2.635-1.434c0.508-0.934,1.083-1.841,1.71-2.699
					l2.422,1.771C230.506,397.532,230.002,398.326,229.558,399.143z M269.383,398.478c-0.43-0.626-0.863-1.229-1.297-1.805
					c-0.132-0.174-0.269-0.348-0.407-0.519l2.334-1.885c0.157,0.194,0.312,0.392,0.464,0.592c0.463,0.613,0.923,1.254,1.379,1.917
					L269.383,398.478z M232.852,394.636l-2.169-2.072c0.726-0.76,1.513-1.486,2.34-2.159l1.894,2.326
					C234.187,393.325,233.492,393.966,232.852,394.636z M265.783,394.071c-0.673-0.654-1.391-1.271-2.133-1.836l1.815-2.389
					c0.838,0.638,1.649,1.335,2.409,2.074L265.783,394.071z M237.204,391.088l-1.602-2.537c0.895-0.564,1.831-1.08,2.784-1.531
					l1.284,2.711C238.826,390.13,237.997,390.587,237.204,391.088z M261.311,390.673c-0.81-0.472-1.655-0.897-2.512-1.267
					l1.184-2.756c0.97,0.416,1.925,0.897,2.839,1.431L261.311,390.673z M242.28,388.685l-0.944-2.848
					c1.006-0.333,2.04-0.607,3.075-0.814l0.589,2.941C244.085,388.147,243.17,388.39,242.28,388.685z M256.149,388.453
					c-0.896-0.263-1.82-0.474-2.746-0.628l0.493-2.959c1.043,0.174,2.085,0.412,3.096,0.708L256.149,388.453z M247.786,387.578
					l-0.226-2.992c1.065-0.08,2.131-0.093,3.173-0.051l-0.128,2.998C249.676,387.492,248.735,387.506,247.786,387.578z"/>
			</g>
			<g>
				<polygon fill="#F46262" points="274.56,483.994 272.565,481.726 273.677,480.753 273.675,480.751 274.777,479.749 
					274.799,479.772 274.824,479.751 275.806,480.871 275.803,480.874 276.798,481.966 				"/>
			</g>
			<g>
				<path fill="#F46262" d="M279.011,479.942l-2.028-2.211c0.655-0.601,1.394-1.28,2.207-2.03l2.036,2.203
					C280.41,478.658,279.667,479.34,279.011,479.942z M283.432,475.864l-2.038-2.201l2.197-2.041l2.045,2.195L283.432,475.864z
					 M287.833,471.766l-2.049-2.191l2.188-2.052l2.055,2.186L287.833,471.766z M292.213,467.644l-2.063-2.178l2.176-2.064
					l2.066,2.176L292.213,467.644z M296.57,463.501l-2.074-2.168l2.163-2.075l2.08,2.162L296.57,463.501z M300.901,459.331
					l-2.088-2.154l2.145-2.087l2.096,2.148L300.901,459.331z M305.204,455.131l-2.104-2.139c0.713-0.702,1.424-1.404,2.13-2.105
					l2.113,2.131C306.634,453.721,305.921,454.427,305.204,455.131z M309.473,450.889l-2.125-2.119
					c0.71-0.711,1.412-1.42,2.106-2.125l2.139,2.104C310.895,449.459,310.187,450.172,309.473,450.889z M313.699,446.596
					l-2.152-2.09c0.705-0.725,1.397-1.442,2.076-2.153l2.168,2.074C315.106,445.142,314.408,445.865,313.699,446.596z
					 M317.866,442.237l-2.188-2.053c0.697-0.743,1.375-1.473,2.031-2.188l2.211,2.027
					C319.257,440.747,318.571,441.486,317.866,442.237z M321.949,437.776l-2.244-1.99c0.686-0.772,1.338-1.521,1.951-2.242
					l2.285,1.945C323.314,436.225,322.648,436.988,321.949,437.776z M325.883,433.139l-2.342-1.875
					c0.271-0.338,0.529-0.669,0.776-0.99c0.332-0.433,0.652-0.872,0.959-1.318l2.473,1.699c-0.336,0.489-0.688,0.972-1.053,1.446
					C326.438,432.438,326.167,432.783,325.883,433.139z M329.409,427.997l-2.615-1.471c0.469-0.832,0.9-1.691,1.282-2.552
					l2.742,1.217C330.397,426.139,329.924,427.083,329.409,427.997z M331.952,422.259l-2.848-0.943
					c0.3-0.905,0.554-1.828,0.754-2.74l2.93,0.643C332.565,420.231,332.284,421.255,331.952,422.259z M333.299,416.1l-2.982-0.324
					c0.096-0.878,0.144-1.768,0.144-2.642l-0.001-0.165l3-0.047l0.001,0.212C333.46,414.116,333.406,415.113,333.299,416.1z
					 M330.27,410.15c-0.121-0.929-0.302-1.855-0.536-2.755l2.902-0.758c0.267,1.02,0.472,2.072,0.608,3.126L330.27,410.15z
					 M282.296,409.108l-2.5-1.658c0.555-0.837,1.125-1.677,1.705-2.509l2.461,1.715
					C283.396,407.471,282.839,408.291,282.296,409.108z M328.85,404.74c-0.351-0.858-0.763-1.703-1.226-2.511l2.602-1.492
					c0.529,0.923,1.001,1.888,1.401,2.87L328.85,404.74z M285.684,404.255l-2.412-1.783c0.611-0.827,1.229-1.637,1.852-2.423
					l2.352,1.861C286.873,402.671,286.275,403.455,285.684,404.255z M326.075,399.897c-0.561-0.736-1.18-1.45-1.839-2.122
					l2.141-2.102c0.747,0.762,1.448,1.57,2.085,2.405L326.075,399.897z M289.345,399.651l-2.268-1.965
					c0.54-0.623,1.081-1.221,1.622-1.788c0.162-0.17,0.324-0.334,0.487-0.497l2.115,2.129c-0.146,0.144-0.29,0.29-0.433,0.439
					C290.363,398.501,289.854,399.063,289.345,399.651z M322.145,395.888c-0.729-0.583-1.504-1.13-2.303-1.624l1.578-2.551
					c0.9,0.557,1.774,1.173,2.598,1.831L322.145,395.888z M293.414,395.675l-1.84-2.369c0.835-0.649,1.718-1.252,2.624-1.793
					l1.537,2.576C294.935,394.567,294.153,395.101,293.414,395.675z M317.364,392.936c-0.848-0.39-1.73-0.732-2.624-1.019
					l0.916-2.857c1.008,0.323,2.004,0.711,2.962,1.151L317.364,392.936z M298.234,392.798l-1.215-2.744
					c0.966-0.427,1.969-0.799,2.979-1.106l0.871,2.871C299.976,392.09,299.089,392.419,298.234,392.798z M312.014,391.226
					c-0.918-0.175-1.856-0.296-2.79-0.357l0.199-2.994c1.055,0.07,2.115,0.207,3.153,0.404L312.014,391.226z M303.608,391.165
					l-0.518-2.955c1.041-0.183,2.104-0.304,3.156-0.359l0.158,2.996C305.473,390.896,304.532,391.003,303.608,391.165z"/>
			</g>
		</g>
	</g>
	<path fill="#FFFFFF" d="M298.578,440.369c0-1.318-0.11-2.615-0.32-3.875l-6.79-1.349l4.735-5.051
		c-0.813-1.657-1.813-3.204-2.977-4.611l-6.553,2.225l1.574-6.74c-1.51-1.019-3.145-1.862-4.877-2.509l-4.566,5.206l-2.005-6.623
		c-0.53-0.035-1.065-0.054-1.605-0.054c-1.319,0-2.616,0.11-3.876,0.321l-1.35,6.79l-5.052-4.736
		c-1.655,0.81-3.201,1.812-4.609,2.976l2.225,6.552l-6.741-1.572c-1.016,1.508-1.863,3.142-2.508,4.875l5.206,4.568l-6.623,2.004
		c-0.036,0.529-0.056,1.066-0.056,1.604c0,1.319,0.111,2.614,0.323,3.879l6.788,1.349l-4.734,5.052
		c0.811,1.654,1.811,3.202,2.974,4.609l6.554-2.225l-1.575,6.74c1.511,1.019,3.146,1.862,4.877,2.511l4.566-5.206l2.007,6.622
		c0.53,0.034,1.063,0.054,1.603,0.054c1.32,0,2.616-0.111,3.876-0.322l1.351-6.787l5.051,4.733c1.656-0.81,3.201-1.811,4.609-2.975
		l-2.227-6.553l6.742,1.575c1.02-1.512,1.863-3.145,2.51-4.88l-5.206-4.566l6.62-2.004
		C298.559,441.445,298.578,440.909,298.578,440.369z M275.194,452.927c-6.935,0-12.556-5.621-12.556-12.558
		c0-6.934,5.621-12.556,12.556-12.556c6.936,0,12.558,5.622,12.558,12.556C287.752,447.306,282.13,452.927,275.194,452.927z"/>
	<circle fill="#FFFFFF" cx="250.11" cy="412.309" r="9.535"/>
	<path fill="#FFFFFF" d="M307.521,400.653c-7.751,0-14.033,6.284-14.033,14.033c0,7.75,6.282,14.034,14.033,14.034
		s14.033-6.284,14.033-14.034C321.555,406.938,315.272,400.653,307.521,400.653z M307.521,421.492c-3.758,0-6.805-3.046-6.805-6.806
		c0-3.757,3.047-6.804,6.805-6.804s6.804,3.047,6.804,6.804C314.325,418.446,311.279,421.492,307.521,421.492z"/>
</g>
<path fill="#FFFFFF" d="M302.266,197.473c0,17.862,6.669,29.008,23.008,32.344c12.45,2.54,25.676-6.146,25.676-24.008
	c0-17.864-12.969-40.681-25.676-40.681S302.266,179.608,302.266,197.473z"/>
</svg>
