<?xml version="1.0" encoding="utf-8"?>
<!-- Generator: Adobe Illustrator 16.0.0, SVG Export Plug-In . SVG Version: 6.00 Build 0)  -->
<!DOCTYPE svg PUBLIC "-//W3C//DTD SVG 1.1//EN" "http://www.w3.org/Graphics/SVG/1.1/DTD/svg11.dtd">
<svg version="1.1" id="圖層_1" xmlns="http://www.w3.org/2000/svg" xmlns:xlink="http://www.w3.org/1999/xlink" x="0px" y="0px"
	 width="540px" height="700px" viewBox="0 0 540 700" enable-background="new 0 0 540 700" xml:space="preserve">
<polygon fill="#9B9A9A" points="230.765,24.819 226.198,75.731 147.777,126.749 361.735,112.745 269.112,70.732 257.072,18.715 "/>
<polygon fill="#9B9A9A" points="148.895,130.986 140.626,287.86 177.607,324.051 358.852,314.047 391.938,278.033 362.854,116.982 
	"/>
<polygon fill="#9B9A9A" points="188.551,345.292 180.814,565.587 387.68,549.716 354.425,339.291 "/>
<polygon fill="#9B9A9A" points="177.395,328.169 188.551,341.173 354.425,335.171 358.426,318.165 "/>
<g>
	<polygon fill="#858585" points="361.735,112.745 270.23,72.968 257.072,18.715 251.429,25.043 255.875,81.771 303.067,116.585 	"/>
	<polygon fill="#858585" points="354.425,339.291 319.17,340.572 311.705,555.545 387.68,549.716 	"/>
	<g>
		<polygon fill="#858585" points="321.2,320.223 319.451,336.436 354.425,335.171 358.422,318.181 		"/>
		<path fill="#858585" d="M362.854,116.982l-56.133,3.67c5.941,14.965,43.781,111.982,37.792,140.66
			c-4.991,23.899-16.069,45.837-20.937,54.725l0.025-0.045l35.25-1.945l33.086-36.014L362.854,116.982z"/>
	</g>
</g>
<polygon fill="#858585" points="237.212,565.834 262.157,564.351 271.82,665.875 226.316,680.809 225.997,662.542 248.239,656.579 
	"/>
<polygon fill="#858585" points="315.774,559.894 339.553,558.195 381.962,640.171 403.72,631.544 403.72,649.046 366.854,659.547 
	"/>
<polygon fill="#FFFFFF" points="253.435,228.499 276.321,226.017 283.213,256.899 252.607,261.313 "/>
<path fill="none" stroke="#FFFFFF" stroke-width="4" stroke-linecap="round" stroke-miterlimit="10" d="M207.21,280.702
	c0,0,45.157,38.841,112.038,0"/>
<path fill="#FFFFFF" d="M229.218,201.677c0,17.862-6.67,29.009-23.008,32.343c-12.451,2.541-25.676-6.145-25.676-24.008
	c0-17.862,12.969-40.68,25.676-40.68C218.917,169.332,229.218,183.813,229.218,201.677z"/>
<g>
	<polygon fill="#858585" points="184.586,345.351 86.391,365.113 58.077,354.605 41.492,376.318 47.07,389.616 51.806,397.925 
		58.201,404.993 88.117,390.563 182.525,390.946 	"/>
	<polygon fill="#858585" points="54.151,353.022 37.487,342.48 34.592,349.924 45.856,363.878 	"/>
	<polygon fill="#858585" points="21.229,385.667 38.318,379.078 41.34,387.066 24.771,394.319 	"/>
	<polygon fill="#858585" points="42.041,390.946 46.775,398.008 28.632,407.344 24.252,399.84 	"/>
	<polygon fill="#858585" points="48.147,399.913 54.281,406.312 40.584,418.405 36.129,410.939 	"/>
</g>
<g>
	<polygon fill="#858585" points="358.701,338.308 455.701,370.27 485.644,363.078 499.789,387.078 492.521,399.861 486.719,407.695 
		479.382,414.07 450.855,395.821 366.889,386.993 	"/>
	<polygon fill="#858585" points="489.639,361.861 507.792,353.217 509.814,361.104 496.713,373.859 	"/>
	<polygon fill="#858585" points="518.99,398.915 502.493,390.163 498.462,397.883 514.351,407.245 	"/>
	<polygon fill="#858585" points="497.279,401.727 491.627,408.3 508.856,419.956 514.204,412.896 	"/>
	<polygon fill="#858585" points="490.008,410.061 483.017,415.792 495.411,429.701 500.831,422.685 	"/>
</g>
<polygon fill="#5E5E5E" points="213.879,366.064 334.918,355.06 360.488,489.112 205.938,498.114 "/>
<g>
	<g>
		<path fill="#F46262" d="M324.774,396.2c-9.865-9.46-25.528-9.134-34.989,0.732c-3.937,4.135-7.93,9.936-11.144,15.089
			c-2.612-5.482-5.919-11.699-9.359-16.253c-8.279-10.876-23.807-12.979-34.68-4.699c-10.873,8.276-11.735,22.962-4.699,34.68
			c9.953,16.571,44.777,56.114,44.777,56.114s39.058-35.342,50.826-50.676C333.827,420.347,334.639,405.657,324.774,396.2z"/>
		<g>
			<path fill="none" stroke="#F46262" stroke-width="3" stroke-miterlimit="10" d="M279.441,410.752
				c-0.271,0.427-0.538,0.851-0.799,1.27c-0.212-0.446-0.43-0.896-0.651-1.352"/>
			<path fill="none" stroke="#F46262" stroke-width="3" stroke-miterlimit="10" stroke-dasharray="2.9983,2.9983" d="
				M276.652,407.987c-2.215-4.332-4.754-8.756-7.37-12.219c-8.279-10.876-23.807-12.979-34.68-4.699
				c-10.873,8.276-11.735,22.962-4.699,34.68c8.527,14.196,35.306,45.251,42.807,53.861"/>
			<path fill="none" stroke="#F46262" stroke-width="3" stroke-miterlimit="10" d="M273.694,480.738
				c0.638,0.729,0.986,1.125,0.986,1.125s0.391-0.354,1.107-1.006"/>
			<path fill="none" stroke="#F46262" stroke-width="3" stroke-miterlimit="10" stroke-dasharray="2.998,2.998" d="M277.997,478.837
				c9.68-8.881,37.83-35.035,47.51-47.649c8.32-10.841,9.132-25.53-0.732-34.987c-9.865-9.46-25.528-9.134-34.989,0.732
				c-3.301,3.467-6.641,8.105-9.529,12.551"/>
		</g>
	</g>
	<path fill="#FFFFFF" d="M298.578,440.369c0-1.318-0.11-2.615-0.32-3.875l-6.79-1.349l4.735-5.051
		c-0.813-1.657-1.813-3.204-2.977-4.611l-6.553,2.225l1.574-6.74c-1.51-1.019-3.145-1.862-4.877-2.509l-4.566,5.206l-2.005-6.623
		c-0.53-0.035-1.065-0.054-1.605-0.054c-1.319,0-2.616,0.11-3.876,0.321l-1.35,6.79l-5.052-4.736
		c-1.655,0.81-3.201,1.812-4.609,2.976l2.225,6.552l-6.741-1.572c-1.016,1.508-1.863,3.142-2.508,4.875l5.206,4.568l-6.623,2.004
		c-0.036,0.529-0.056,1.066-0.056,1.604c0,1.319,0.111,2.614,0.323,3.879l6.788,1.349l-4.734,5.052
		c0.811,1.654,1.811,3.202,2.974,4.609l6.554-2.225l-1.575,6.74c1.511,1.019,3.146,1.862,4.877,2.511l4.566-5.206l2.007,6.622
		c0.53,0.034,1.063,0.054,1.603,0.054c1.32,0,2.616-0.111,3.876-0.322l1.351-6.787l5.051,4.733c1.656-0.81,3.201-1.811,4.609-2.975
		l-2.227-6.553l6.742,1.575c1.02-1.512,1.863-3.145,2.51-4.88l-5.206-4.566l6.62-2.004
		C298.559,441.445,298.578,440.909,298.578,440.369z M275.194,452.927c-6.935,0-12.556-5.621-12.556-12.558
		c0-6.934,5.621-12.556,12.556-12.556c6.936,0,12.558,5.622,12.558,12.556C287.752,447.306,282.13,452.927,275.194,452.927z"/>
	<circle fill="#FFFFFF" cx="250.11" cy="412.309" r="9.535"/>
	<circle fill="#FFFFFF" cx="307.521" cy="414.687" r="14.033"/>
	<circle fill="#F46262" cx="307.521" cy="414.687" r="6.804"/>
</g>
<path fill="#FFFFFF" d="M302.266,197.473c0,17.862,6.669,29.008,23.008,32.344c12.45,2.54,25.676-6.146,25.676-24.008
	c0-17.864-12.969-40.681-25.676-40.681S302.266,179.608,302.266,197.473z"/>
</svg>
