<?xml version="1.0" encoding="utf-8"?>
<!-- Generator: Adobe Illustrator 16.0.0, SVG Export Plug-In . SVG Version: 6.00 Build 0)  -->
<!DOCTYPE svg PUBLIC "-//W3C//DTD SVG 1.1//EN" "http://www.w3.org/Graphics/SVG/1.1/DTD/svg11.dtd">
<svg version="1.1" id="圖層_1" xmlns="http://www.w3.org/2000/svg" xmlns:xlink="http://www.w3.org/1999/xlink" x="0px" y="0px"
	 width="500px" height="700px" viewBox="0 0 500 700" enable-background="new 0 0 500 700" xml:space="preserve">
<g>
	<polygon fill="#858585" points="384.624,378.623 327.432,321.974 311.854,373.116 351.755,398.523 	"/>
	<polygon fill="#858585" points="113.009,391.146 146.741,330.01 177.11,374.01 137.771,420.772 	"/>
	<polygon fill="#9B9A9A" points="138.631,308.306 144.378,324.569 326.843,316.752 330.015,302.995 	"/>
	<polygon fill="#9B9A9A" points="122.485,128.882 110.48,274.097 137.298,304.182 330.26,299.189 359.811,261.402 320.405,116.635 	
		"/>
	<polygon fill="#9B9A9A" points="197.27,26.116 212.968,16.881 221.279,55.666 318.544,111.468 122.471,123.077 195.423,63.734 	"/>
	<polygon fill="#9B9A9A" points="146.196,328.957 327.736,321.037 356.184,550.315 143.183,552.315 	"/>
	<g>
		<polygon fill="#858585" points="293.912,303.997 302.217,317.807 326.843,316.752 330.015,302.995 		"/>
		<path fill="#858585" d="M277.999,119.259l42.406-2.624l39.405,144.767l-29.551,37.787l-41.22,0.074
			c0,0,7.254-17.083,17.724-73.527C316.131,175.238,277.999,119.259,277.999,119.259z"/>
		<polygon fill="#858585" points="306.764,321.974 309.844,550.751 356.184,550.315 327.736,321.037 		"/>
		<polygon fill="#858585" points="205.742,21.132 211.021,60.605 276.98,113.929 318.544,111.468 221.279,55.666 212.968,16.881 		
			"/>
	</g>
	<polygon fill="#FFFFFF" points="217.36,235.982 239.855,231.651 247.33,264.656 216.584,268.8 	"/>
	<polygon fill="#858585" points="213.646,558.147 238.636,558.271 229.687,667.205 185.315,668.182 186.172,649.933 
		208.752,649.412 	"/>
	<polygon fill="#858585" points="264.079,558.658 287.561,558.77 298.249,654.515 321.449,651.414 317.21,668.396 278.896,669.654 	
		"/>
	<path fill="#FFFFFF" d="M193.424,228.152c-1.889,17.601-9.639,27.879-26.09,29.437c-12.535,1.187-24.649-8.77-22.76-26.371
		c1.888-17.601,17.079-38.711,29.601-37.369C186.696,195.194,195.313,210.551,193.424,228.152z"/>
	<path fill="#FFFFFF" d="M266.029,220.797c3.317,17.389,11.877,27,28.401,27.213c12.594,0.161,23.853-10.749,20.536-28.138
		c-3.317-17.389-20.179-37.192-32.547-34.832C270.051,187.399,262.713,203.408,266.029,220.797z"/>
	<path fill="none" stroke="#FFFFFF" stroke-width="4" stroke-linecap="round" stroke-miterlimit="10" d="M214.022,293.157
		c1.071-1.728,7.385-4.627,17.969-6.138c11.318-1.614,21.654,3.447,22.785,5.007"/>
	<path fill="none" stroke="#FFFFFF" stroke-width="4" stroke-linecap="round" stroke-miterlimit="10" d="M146.278,197.102
		c0,0,27.851,0.908,37.532-12.254"/>
	<path fill="none" stroke="#FFFFFF" stroke-width="4" stroke-linecap="round" stroke-miterlimit="10" d="M270.262,175.238
		c0,0,19.38,13.454,37.318,12.493"/>
	<g>
		<path fill="#5CBDF2" d="M316.004,295.107c-1.262-10.296-18.628-31.393-18.628-31.393s-10.236,25.353-8.336,35.549
			c1.823,9.773,10.16,10.359,15.298,9.705C309.599,308.246,317.206,304.977,316.004,295.107z"/>
		<path opacity="0.2" fill="#686868" d="M297.376,263.715c0,0,11.152,25.122,8.816,44.901c0,0,5.331-1.416,7.69-4.512
			c2.358-3.096,2.47-6.071,2.121-8.997C314.791,284.909,297.376,263.715,297.376,263.715z"/>
	</g>
	<polygon fill="#5E5E5E" points="164.188,346.188 309.876,342.691 332.901,483.77 162.521,490.438 	"/>
	<g>
		<g>
			
				<linearGradient id="SVGID_1_" gradientUnits="userSpaceOnUse" x1="246.7813" y1="422.876" x2="246.7813" y2="522.6377" gradientTransform="matrix(0.9787 -0.2054 0.2054 0.9787 -88.2761 11.1357)">
				<stop  offset="0" style="stop-color:#CA6262"/>
				<stop  offset="1" style="stop-color:#0A0036;stop-opacity:0.7"/>
			</linearGradient>
			<path opacity="0.9" fill-rule="evenodd" clip-rule="evenodd" fill="url(#SVGID_1_)" d="M190.978,411.578
				c-0.197-0.94-0.395-1.88-0.592-2.82c0.473-0.188,1.274,0.115,1.416-0.335c0.213-0.668,0.098-1.459,0.03-2.189
				c-0.053-0.562-0.576-0.296-0.897-0.359c-0.326-0.065-0.413-0.267-0.398-0.557c0.022-0.403,0.037-0.81,0.074-1.214
				c0.063-0.655,0.008-1.424,1.091-1.099c0.338,0.102,0.434-0.198,0.489-0.458c0.107-0.506,0.174-1.02,0.306-1.516
				c0.107-0.401,0.032-0.678-0.393-0.731c-0.79-0.101-0.712-0.561-0.511-1.104c0.182-0.483,0.353-0.972,0.517-1.461
				c0.116-0.343,0.328-0.502,0.657-0.298c0.711,0.44,1.052,0.036,1.155-0.572c0.108-0.639,1.392-1.289,0.039-1.959
				c-0.253-0.126-0.428-0.295-0.231-0.604c0.396-0.622,0.783-1.251,1.184-1.87c0.104-0.159,0.254-0.297,0.445-0.11
				c1.028,1.002,1.312-0.106,1.79-0.633c0.428-0.47,0.913-0.933,0.068-1.49c-0.352-0.23-0.138-0.516,0.072-0.742
				c0.275-0.298,0.563-0.586,0.843-0.88c0.446-0.469,0.87-0.983,1.453-0.129c0.229,0.337,0.496,0.16,0.744-0.055
				c0.332-0.292,0.671-0.582,1.038-0.827c0.451-0.3,0.631-0.608,0.183-1.045c-0.424-0.416-0.213-0.691,0.195-0.94
				c0.346-0.212,0.681-0.439,1.019-0.665c0.522-0.348,1.021-0.655,1.364,0.219c0.142,0.362,0.441,0.315,0.736,0.155
				c0.356-0.192,0.703-0.421,1.08-0.556c0.598-0.21,0.872-0.483,0.491-1.12c-0.218-0.368-0.051-0.608,0.356-0.735
				c0.492-0.154,0.963-0.376,1.455-0.523c0.255-0.076,0.693-0.338,0.781,0.02c0.375,1.549,1.357,0.596,2.094,0.541
				c0.531-0.039,1.051-0.204,0.78-0.965c-0.146-0.411,0.048-0.624,0.463-0.671c0.586-0.065,1.173-0.124,1.757-0.209
				c0.411-0.059,0.6,0.076,0.662,0.502c0.203,1.391,1.265,0.497,1.917,0.679c0.573,0.16,0.914-0.068,0.854-0.743
				c-0.035-0.416,0.227-0.589,0.633-0.557c0.588,0.047,1.177,0.081,1.765,0.133c0.331,0.03,0.583,0.172,0.509,0.56
				c-0.29,1.506,1.021,0.845,1.592,1.144c0.551,0.289,1.079,0.216,1.171-0.591c0.026-0.231,0.164-0.453,0.44-0.377
				c0.743,0.207,1.517,0.37,2.204,0.703c0.53,0.256-0.066,0.697-0.036,1.061c0.009,0.1,0.02,0.259,0.08,0.287
				c0.661,0.32,1.313,0.686,2.01,0.903c0.48,0.149,0.505-0.434,0.7-0.708c0.221-0.309,0.44-0.179,0.67-0.061
				c0.328,0.17,0.66,0.334,0.971,0.531c0.556,0.353,1.409,0.594,0.589,1.509c-0.248,0.279,0.027,0.453,0.24,0.607
				c0.417,0.304,0.844,0.6,1.242,0.927c0.315,0.259,0.59,0.32,0.805-0.077c0.372-0.687,0.767-0.487,1.211-0.08
				c0.353,0.324,0.73,0.621,1.103,0.925c0.264,0.214,0.397,0.436,0.103,0.728c-1.036,1.027,0.276,1.217,0.641,1.713
				c0.404,0.551,0.902,0.901,1.433,0.075c0.194-0.303,0.419-0.202,0.636,0.012c0.262,0.259,0.545,0.498,0.806,0.759
				c0.463,0.461,1.092,0.724,0.337,1.638c-0.547,0.663,0.637,1.019,0.986,1.552c0.292,0.445,0.66,0.579,1.054,0.077
				c0.358-0.454,0.665-0.291,0.979,0.071c0.338,0.39,0.699,0.759,1.055,1.133c0.186,0.193,0.42,0.424,0.13,0.645
				c-1.086,0.818-0.118,1.246,0.3,1.801c0.589,0.78,1.257,0.262,1.864,0.101c0.811-0.218,0.609-1.061,0.82-1.63
				c0.245-0.662-0.464-0.47-0.735-0.677c-0.109-0.083-0.319-0.202-0.305-0.258c0.198-0.746,0.378-1.506,0.667-2.22
				c0.244-0.602,0.689-0.076,1.044-0.071c0.106,0,0.287,0.01,0.306-0.036c0.276-0.68,0.585-1.354,0.771-2.061
				c0.144-0.538-0.441-0.477-0.73-0.632s-0.344-0.339-0.229-0.627c0.137-0.343,0.253-0.692,0.379-1.04
				c0.231-0.64,0.362-1.429,1.363-0.837c0.339,0.2,0.443-0.088,0.544-0.331c0.171-0.409,0.305-0.836,0.512-1.225
				c0.271-0.513,0.29-0.887-0.363-1.072c-0.475-0.134-0.524-0.423-0.309-0.842c0.254-0.491,0.465-1.004,0.694-1.508
				c0.136-0.3,0.31-0.514,0.676-0.313c1.347,0.74,1.117-0.695,1.566-1.164c0.443-0.464,0.504-0.957-0.233-1.273
				c-0.351-0.148-0.363-0.408-0.148-0.712c0.232-0.332,0.446-0.679,0.664-1.021c0.365-0.575,0.606-1.041,1.508-0.489
				c0.729,0.448,0.918-0.68,1.393-1.048c0.426-0.33,0.758-0.749,0.096-1.214c-0.434-0.305-0.284-0.604,0.035-0.893
				c0.3-0.273,0.596-0.553,0.884-0.837c0.442-0.438,0.863-0.885,1.381-0.069c0.205,0.322,0.472,0.249,0.745,0.022
				c0.398-0.327,0.816-0.631,1.239-0.929c0.27-0.188,0.486-0.401,0.217-0.709c-0.686-0.784-0.099-1.155,0.509-1.35
				c0.63-0.201,1.27-1.583,1.994-0.103c0.154,0.313,0.39,0.285,0.647,0.165c0.402-0.186,0.79-0.406,1.204-0.557
				c0.531-0.193,0.82-0.453,0.539-1.053c-0.215-0.456,0.043-0.673,0.449-0.817c0.448-0.16,0.887-0.351,1.33-0.527
				c0.288-0.061,0.578-0.121,0.867-0.183c0.138,0.442-0.065,1.191,0.592,1.206c0.702,0.017,1.472-0.159,2.095-0.479
				c0.418-0.212,0.02-0.872,0.134-1.319c0.36-0.075,0.722-0.151,1.084-0.228c0.142,0.03,0.286,0.096,0.422,0.083
				c0.714-0.063,1.562-0.38,1.416,0.913c-0.032,0.275,0.216,0.332,0.466,0.326c0.441-0.015,0.892-0.055,1.325,0.002
				c0.61,0.081,1.03,0.006,0.977-0.746c-0.033-0.466,0.264-0.563,0.639-0.528c0.44,0.039,0.878,0.118,1.319,0.146
				c0.66,0.041,1.193,0.156,0.888,1.028c-0.138,0.396,0.095,0.508,0.441,0.57c0.544,0.099,1.083,0.228,1.617,0.367
				c0.24,0.063,0.5,0.094,0.541-0.183c0.197-1.353,1.016-0.785,1.675-0.53c0.658,0.253,1.79,0.235,1.074,1.511
				c-0.15,0.271,0.124,0.375,0.319,0.473c0.363,0.179,0.746,0.327,1.091,0.536c0.537,0.325,0.995,0.497,1.274-0.29
				c0.125-0.353,0.365-0.413,0.689-0.199c0.34,0.223,0.701,0.408,1.044,0.627c0.566,0.362,1.37,0.648,0.499,1.504
				c-0.199,0.195-0.136,0.45,0.115,0.531c0.828,0.268,1.262,2.107,2.533,0.651c0.037-0.042,0.156-0.065,0.2-0.038
				c0.715,0.418,1.241,1.046,1.751,1.67c0.412,0.506-0.277,0.636-0.439,0.95c-0.062,0.118-0.15,0.315-0.1,0.386
				c0.43,0.598,0.834,1.229,1.357,1.738c0.348,0.339,0.614-0.246,0.949-0.326c0.101-0.023,0.259-0.076,0.301-0.031
				c0.563,0.596,0.951,1.313,1.277,2.05c0.257,0.58-0.387,0.594-0.666,0.813c-0.231,0.181-0.207,0.355-0.104,0.571
				c0.176,0.365,0.383,0.72,0.518,1.101c0.204,0.573,0.409,1.044,1.163,0.671c0.391-0.193,0.609,0.021,0.724,0.411
				c0.125,0.425,0.292,0.838,0.436,1.256c0.195,0.563,0.337,1.092-0.545,1.172c-0.371,0.033-0.465,0.285-0.381,0.639
				c0.119,0.503,0.226,1.01,0.317,1.518c0.068,0.388,0.221,0.615,0.661,0.491c0.724-0.203,0.906,0.214,0.938,0.819
				c0.028,0.478,0.068,0.957,0.128,1.433c0.042,0.345-0.01,0.601-0.42,0.601c-1.535-0.003-0.655,1.157-0.821,1.779
				c-0.157,0.59,0.035,1.107,0.839,1.033c0.4-0.036,0.507,0.206,0.479,0.558c-0.041,0.514-0.084,1.029-0.109,1.545
				c-0.027,0.532-0.109,0.958-0.827,0.758c-0.458-0.127-0.667,0.104-0.71,0.572c-0.045,0.476-0.154,0.945-0.24,1.417
				c-0.058,0.315-0.066,0.585,0.344,0.673c1.572,0.332,0.432,1.305,0.424,1.975c-0.007,0.692-0.3,1.237-1.176,0.82
				c-0.184-0.087-0.386-0.089-0.464,0.124c-0.242,0.657-0.522,1.312-0.665,1.991c-0.121,0.583,0.564,0.438,0.819,0.704
				c0.07,0.072,0.182,0.199,0.159,0.259c-0.264,0.727-0.49,1.475-0.847,2.156c-0.295,0.565-0.691-0.021-1.044-0.052
				c-0.143-0.015-0.302-0.104-0.38,0.066c-0.308,0.668-0.678,1.323-0.868,2.027c-0.125,0.466,0.488,0.437,0.758,0.647
				c0.112,0.089,0.262,0.162,0.182,0.34c-0.324,0.702-0.586,1.45-1.009,2.088c-0.313,0.476-0.706-0.132-1.078-0.141
				c-0.097-0.004-0.252,0.006-0.279,0.061c-0.339,0.654-0.729,1.294-0.962,1.985c-0.161,0.483,0.471,0.435,0.7,0.675
				c0.073,0.077,0.205,0.18,0.191,0.247c-0.165,0.768-0.598,1.424-0.975,2.094c-0.33,0.587-0.688-0.016-1.031-0.078
				c-0.147-0.028-0.318-0.111-0.398,0.032c-0.356,0.645-0.765,1.277-1,1.966c-0.157,0.462,0.471,0.454,0.712,0.692
				c0.074,0.073,0.204,0.196,0.183,0.239c-0.326,0.698-0.628,1.413-1.028,2.069c-0.336,0.55-0.71,0.025-1.042-0.097
				c-0.296-0.109-0.408,0.045-0.521,0.24c-0.22,0.384-0.407,0.789-0.647,1.159c-0.336,0.52-0.406,0.932,0.294,1.196
				c0.422,0.158,0.397,0.442,0.188,0.791c-0.266,0.442-0.497,0.905-0.734,1.365c-0.194,0.376-0.438,0.62-0.857,0.3
				c-0.57-0.436-0.869-0.125-1.063,0.388c-0.273,0.725-1.455,1.486,0.053,2.178c0.053,0.024,0.116,0.146,0.098,0.185
				c-0.346,0.689-0.65,1.409-1.074,2.05c-0.35,0.53-0.704-0.038-1.04-0.154c-0.281-0.097-0.406,0.003-0.523,0.225
				c-0.192,0.356-0.368,0.727-0.598,1.06c-0.382,0.552-0.589,1.024,0.262,1.334c0.389,0.14,0.326,0.414,0.147,0.712
				c-0.249,0.41-0.498,0.823-0.702,1.257c-0.245,0.516-0.523,0.8-1.081,0.368c-0.396-0.309-0.647-0.141-0.851,0.264
				c-0.216,0.427-0.474,0.835-0.713,1.25c-0.155,0.271-0.28,0.539,0.101,0.738c1.433,0.751,0.032,1.374-0.129,2.021
				c-0.154,0.619-0.546,1.053-1.263,0.48c-0.313-0.25-0.534-0.054-0.699,0.247c-0.195,0.356-0.388,0.717-0.621,1.048
				c-0.355,0.507-0.453,0.921,0.262,1.185c0.432,0.159,0.4,0.441,0.186,0.777c-0.219,0.343-0.438,0.688-0.61,1.053
				c-0.289,0.61-0.603,1.039-1.305,0.455c-0.126-0.105-0.354-0.236-0.484-0.025c-0.392,0.624-0.831,1.238-1.092,1.917
				c-0.161,0.415,0.443,0.471,0.685,0.706c0.073,0.071,0.185,0.21,0.159,0.256c-0.354,0.685-0.689,1.386-1.113,2.027
				c-0.377,0.569-0.691-0.062-1.019-0.164c-0.337-0.104-0.475,0.044-0.612,0.287c-0.2,0.354-0.375,0.727-0.617,1.051
				c-0.378,0.512-0.445,0.922,0.236,1.212c0.439,0.188,0.367,0.468,0.154,0.796c-0.24,0.372-0.478,0.749-0.673,1.146
				c-0.274,0.554-0.583,0.827-1.173,0.354c-0.334-0.268-0.579-0.137-0.771,0.244c-0.214,0.428-0.472,0.838-0.749,1.228
				c-0.282,0.398-0.22,0.688,0.209,0.88c0.646,0.29,0.528,0.663,0.185,1.119c-0.221,0.293-0.427,0.612-0.567,0.948
				c-0.257,0.614-0.593,0.803-1.15,0.342c-0.344-0.285-0.57-0.161-0.767,0.201c-0.245,0.454-0.525,0.891-0.796,1.33
				c-0.18,0.294-0.207,0.552,0.146,0.734c1.221,0.63,0.162,1.222-0.084,1.752c-0.26,0.562-0.522,1.466-1.473,0.656
				c-0.271-0.232-0.461-0.048-0.607,0.202c-0.226,0.382-0.428,0.781-0.693,1.133c-0.357,0.472-0.411,0.838,0.201,1.121
				c0.384,0.178,0.381,0.432,0.213,0.808c-0.859,1.936-1.139,2.027-2.877,0.862c-0.061-0.041-0.12-0.088-0.186-0.121
				c-0.406-0.204-0.551-0.469-0.209-0.854c0.547-0.614,0.113-1.019-0.396-1.125c-0.588-0.124-0.999-1.482-1.763-0.345
				c-0.329,0.488-0.587,0.419-0.973,0.151c-0.303-0.21-0.628-0.389-0.949-0.568c-0.526-0.294-0.969-0.597-0.389-1.245
				c0.305-0.341,0.141-0.583-0.203-0.789c-0.411-0.246-0.815-0.507-1.206-0.787c-0.368-0.267-0.672-0.296-0.886,0.163
				c-0.294,0.629-0.674,0.525-1.129,0.174c-0.32-0.247-0.666-0.466-1.019-0.667c-0.44-0.253-0.712-0.512-0.299-1.023
				c0.629-0.777-0.183-0.992-0.591-1.161c-0.504-0.207-0.958-1.391-1.655-0.251c-0.306,0.498-0.612,0.406-0.99,0.125
				c-0.385-0.286-0.791-0.543-1.172-0.836c-0.183-0.14-0.604-0.274-0.385-0.548c1.011-1.262-0.359-1.38-0.88-1.879
				c-0.455-0.438-0.939-0.589-1.283,0.17c-0.165,0.362-0.43,0.327-0.719,0.127c-0.484-0.338-0.968-0.677-1.467-0.993
				c-0.324-0.207-0.357-0.431-0.137-0.728c0.828-1.121-0.428-1.142-0.863-1.542c-0.398-0.365-0.937-0.897-1.377,0.028
				c-0.198,0.414-0.478,0.362-0.802,0.126c-0.328-0.239-0.669-0.463-1.021-0.664c-0.572-0.326-1.023-0.656-0.35-1.316
				c0.119-0.116,0.255-0.343,0.06-0.483c-0.597-0.431-1.184-0.899-1.841-1.214c-0.457-0.219-0.495,0.421-0.762,0.629
				c-0.079,0.063-0.217,0.167-0.259,0.141c-0.687-0.428-1.41-0.818-2.02-1.341c-0.38-0.326,0.138-0.64,0.294-0.936
				c0.175-0.331-0.024-0.465-0.245-0.617c-0.335-0.23-0.68-0.449-0.997-0.7c-0.469-0.369-0.88-0.538-1.214,0.157
				c-0.192,0.402-0.484,0.365-0.809,0.127c-0.447-0.327-0.9-0.646-1.363-0.948c-0.355-0.232-0.388-0.477-0.152-0.825
				c0.815-1.207-0.599-1.125-0.985-1.613c-0.393-0.495-0.907-0.589-1.269,0.132c-0.221,0.44-0.513,0.29-0.809,0.065
				c-0.264-0.202-0.541-0.386-0.812-0.579c-0.529-0.373-1.073-0.574-0.519-1.507c0.438-0.738-0.711-0.876-1.122-1.302
				c-0.364-0.374-0.831-0.687-1.212,0.052c-0.233,0.455-0.532,0.391-0.888,0.104c-0.401-0.323-0.846-0.594-1.26-0.901
				c-0.235-0.175-0.528-0.365-0.253-0.711c1.012-1.273-0.517-1.272-0.928-1.804c-0.478-0.617-0.919-0.394-1.262,0.212
				c-0.059,0.104-0.289,0.235-0.34,0.202c-0.645-0.427-1.309-0.835-1.893-1.338c-0.487-0.422,0.141-0.689,0.283-1.011
				c0.148-0.335-0.036-0.462-0.251-0.619c-0.326-0.241-0.665-0.47-0.964-0.744c-0.464-0.426-0.855-0.543-1.215,0.117
				c-0.167,0.307-0.416,0.379-0.724,0.131c-0.46-0.371-0.936-0.721-1.407-1.076c-0.263-0.197-0.435-0.402-0.163-0.727
				c0.994-1.184-0.452-1.239-0.847-1.75c-0.381-0.493-0.87-0.672-1.277,0.056c-0.188,0.335-0.449,0.304-0.729,0.064
				c-0.364-0.313-0.736-0.619-1.127-0.896c-0.504-0.355-0.724-0.713-0.172-1.215c0.348-0.316,0.174-0.568-0.132-0.806
				c-0.377-0.295-0.746-0.604-1.106-0.921c-0.291-0.258-0.583-0.366-0.829,0.016c-0.413,0.644-0.791,0.449-1.218,0.013
				c-0.335-0.341-0.707-0.646-1.074-0.958c-0.265-0.225-0.396-0.461-0.07-0.719c0.615-0.487,0.492-0.974-0.099-1.28
				c-0.572-0.298-0.726-1.796-1.827-0.697c-0.275,0.274-0.518,0.202-0.745-0.072c-0.377-0.454-0.754-0.907-1.137-1.356
				c-0.205-0.238-0.424-0.539-0.05-0.734c1.036-0.542,0.383-1.072-0.006-1.545c-0.306-0.372-0.553-1.267-0.992-0.996
				c-1.342,0.831-1.422-0.355-1.867-0.979c-0.412-0.579-0.736-1.161,0.257-1.531c0.235-0.088,0.274-0.301,0.149-0.55
				c-0.248-0.494-0.469-1.001-0.702-1.504c-0.139-0.294-0.343-0.53-0.687-0.341c-0.822,0.449-0.975-0.144-1.228-0.703
				c-0.141-0.314-0.074-0.764-0.507-0.921c-0.061-0.289-0.121-0.578-0.182-0.868c0.432-0.153,1.205-0.047,1.227-0.499
				c0.031-0.732-0.186-1.535-0.51-2.204C192.058,411.222,191.428,411.592,190.978,411.578z"/>
		</g>
		<circle fill="#FFFFFF" cx="217.52" cy="408.604" r="9.722"/>
		<path fill="#FFFFFF" d="M288.148,390.634c-2.201-7.589-10.139-11.956-17.729-9.754c-7.588,2.202-11.956,10.14-9.753,17.729
			c2.201,7.588,10.139,11.954,17.729,9.752C285.983,406.16,290.352,398.224,288.148,390.634z M276.341,401.283
			c-3.68,1.066-7.527-1.05-8.596-4.728c-1.067-3.681,1.05-7.527,4.73-8.597c3.678-1.067,7.528,1.05,8.595,4.729
			S280.019,400.215,276.341,401.283z"/>
		<path fill="#FFFFFF" d="M251.012,441.718c-5.908,0.443-11.523-3.28-13.242-9.199c-1.97-6.79,1.938-13.891,8.727-15.861
			c0.885-0.257,1.774-0.408,2.657-0.473l-0.265-4.591l-3.883-5.938c-0.526,0.114-1.059,0.248-1.586,0.401
			c-1.293,0.375-2.529,0.852-3.705,1.417l0.608,7.03l-6.292-3.201c-1.392,1.266-2.619,2.687-3.667,4.225l4.04,5.782l-7.048,0.375
			c-0.566,1.767-0.932,3.607-1.069,5.488l6.396,2.992l-5.915,3.844c0.116,0.53,0.248,1.06,0.4,1.587
			c0.375,1.292,0.853,2.527,1.418,3.706l7.03-0.608l-3.201,6.292c1.266,1.389,2.684,2.619,4.222,3.666l5.785-4.039l0.372,7.047
			c1.768,0.568,3.611,0.93,5.49,1.071l2.992-6.395L251.012,441.718z"/>
		<g>
			<path fill="#FFFFFF" d="M238.895,435.203"/>
			<path fill="#FFFFFF" d="M238.665,434.787"/>
			<path fill="#FFFFFF" d="M273.831,430.73l-6.395-2.991l5.912-3.842c-0.114-0.53-0.248-1.061-0.4-1.59
				c-0.375-1.293-0.851-2.529-1.416-3.703l-7.03,0.608l3.199-6.293c-1.264-1.392-2.682-2.622-4.222-3.668l-5.784,4.04l-0.373-7.048
				c-1.767-0.565-3.608-0.929-5.489-1.069l-2.99,6.396l0.301,4.614c0,0-0.003,0-0.004,0.001c5.897-0.428,11.494,3.292,13.208,9.198
				c1.972,6.791-1.937,13.892-8.726,15.862c-1.247,0.361-2.62,0.472-2.62,0.472l0.262,4.642l3.85,5.891
				c0.528-0.117,1.056-0.25,1.585-0.403c1.292-0.375,2.528-0.851,3.703-1.416l-0.607-7.029l6.292,3.198
				c1.391-1.264,2.62-2.683,3.668-4.221l-4.041-5.784l7.048-0.373C273.33,434.454,273.691,432.613,273.831,430.73z"/>
			<path fill="#FFFFFF" d="M247.837,416.346c-0.008,0.002-0.016,0.002-0.022,0.004C247.821,416.348,247.829,416.348,247.837,416.346
				z"/>
		</g>
	</g>
	<g>
		<g>
			<polygon fill="#858585" points="181.224,452.271 199.521,466.204 196.913,473.77 181.116,467.355 			"/>
		</g>
		<g>
			<polygon fill="#858585" points="111.112,394.713 147.186,441.195 177.094,450.579 176.523,478.538 164.265,487.924 
				154.513,491.968 144.75,491.897 128.465,462.229 99.342,441 99.342,425.477 			"/>
		</g>
		<g>
			<polygon fill="#858585" points="168.898,491.651 159.991,494.608 169.505,515.028 178.402,511.448 			"/>
		</g>
		<g>
			<polygon fill="#858585" points="155.354,495.661 147.823,496.774 151.592,516.597 160.533,513.095 			"/>
		</g>
		<g>
			<polygon fill="#858585" points="190.632,501.128 180.182,483.813 172.14,488.742 181.685,506.279 			"/>
		</g>
	</g>
	<g>
		<g>
			<polygon fill="#858585" points="310.876,406.013 289.227,413.772 289.429,421.772 306.425,420.426 			"/>
		</g>
		<g>
			<polygon fill="#858585" points="387.354,381.105 346.878,406.378 315.531,406.296 307.637,433.123 316.491,445.771 
				324.566,452.57 333.896,455.45 358.376,432.08 396.836,419.563 400.658,405.641 			"/>
		</g>
		<g>
			<polygon fill="#858585" points="310.947,447.927 318.547,453.435 303.313,470.03 295.912,463.932 			"/>
		</g>
		<g>
			<polygon fill="#858585" points="322.65,455.838 329.493,459.172 319.918,476.932 312.451,470.895 			"/>
		</g>
		<g>
			<polygon fill="#858585" points="287.367,450.4 302.557,437.048 308.736,444.175 294.343,458.013 			"/>
		</g>
	</g>
</g>
</svg>
