<?xml version="1.0" encoding="utf-8"?>
<!-- Generator: Adobe Illustrator 16.0.0, SVG Export Plug-In . SVG Version: 6.00 Build 0)  -->
<!DOCTYPE svg PUBLIC "-//W3C//DTD SVG 1.1//EN" "http://www.w3.org/Graphics/SVG/1.1/DTD/svg11.dtd">
<svg version="1.1" id="圖層_1" xmlns="http://www.w3.org/2000/svg" xmlns:xlink="http://www.w3.org/1999/xlink" x="0px" y="0px"
	 width="650px" height="1133.253px" viewBox="0 0 650 1133.253" enable-background="new 0 0 650 1133.253" xml:space="preserve">
<g>
	<g>
		<polygon fill="#9B9A9A" points="344.103,737.137 244.688,933.876 439.135,1006.229 497.2,801.258 		"/>
		<polygon fill="#9B9A9A" points="397.983,525.959 324.684,664.9 343.077,713.265 511.807,780.197 556.945,761.381 598.088,602.98 
					"/>
		<polygon fill="#9B9A9A" points="516.832,463.918 491.333,508.22 398.746,521.644 598.851,598.665 532.388,521.68 543.274,469.408 
					"/>
		<polygon fill="#9B9A9A" points="341.157,716.914 345.831,733.397 498.928,797.518 509.692,783.758 		"/>
		<g>
			<polygon fill="#858585" points="543.274,469.408 535.497,472.787 515.741,526.148 520.146,568.371 598.851,598.665 
				532.388,521.68 			"/>
			<g>
				<path opacity="0.2" fill="#858585" d="M475.036,770.013"/>
				<path fill="#858585" d="M511.807,780.197l45.139-18.816l41.143-158.4L521.5,573.501c14.408,26.489,11.271,57.036,0,102.239
					c-11.351,45.523-35.545,86.011-42.938,91.27L511.807,780.197z"/>
				<path opacity="0.2" fill="#858585" d="M509.692,783.758"/>
				<polygon fill="#858585" points="509.692,783.758 498.928,797.518 466.648,783.998 475.036,770.013 				"/>
				<polygon fill="#858585" points="366.475,979.192 439.135,1006.229 497.2,801.258 464.648,787.624 				"/>
			</g>
		</g>
		<polygon fill="#858585" points="520.146,857.734 496.344,801.728 476.388,855.05 498.617,881.289 		"/>
		<polygon fill-rule="evenodd" clip-rule="evenodd" fill="#9B9A9A" points="338.002,737.137 315.669,780.267 274.335,780.427 
			279.335,749.218 		"/>
		<polygon fill="#FFFFFF" points="503.842,687.764 516.5,692.673 521.5,731.264 498.798,725.264 		"/>
		<path fill="#FFFFFF" d="M461.721,654.695c-7.492,16.216-18.222,23.537-34.451,19.711c-12.369-2.915-20.731-16.346-13.239-32.563
			c7.491-16.215,28.834-31.489,40.37-26.16S469.212,638.479,461.721,654.695z"/>
		<polygon fill="#858585" points="317.653,969.334 336.157,976.584 324.762,1030.353 330.195,1104.253 291.025,1111.096 
			284.002,1092.357 312.201,1090.169 302.204,1040.122 		"/>
		<polygon fill="#858585" points="397.333,997.93 417.333,1005.263 414,1060.379 384.688,1106.175 401.333,1113.931 
			393.456,1129.56 360.475,1116.677 394.696,1055.438 		"/>
		<polygon fill="#FFFFFF" points="414.177,789.056 492.544,816.96 455.43,949.378 351.586,905.601 		"/>
		<polygon fill="#5E5E5E" points="492.544,816.96 453.552,815.542 418.475,922.264 455.43,949.378 351.586,905.601 414.177,789.056 
					"/>
		<g>
			<path display="none" fill-rule="evenodd" clip-rule="evenodd" fill="#4B485B" d="M482.721,852.366
				c-0.063-1.155-0.126-2.311-0.189-3.469c-0.438,0.18-1.079,0.73-1.276,0.322c-0.329-0.665-0.358-1.604-0.486-2.438
				c-0.014-0.095,0.133-0.29,0.233-0.398c0.24-0.265,0.796-0.199,0.694-0.794c-0.146-0.868-0.392-1.696-0.766-2.427
				c-0.037-0.07-0.198-0.106-0.264-0.057c-1.603,1.154-1.223-1.029-1.81-1.574c-0.129-0.117-0.148-0.374,0.048-0.524
				c1.282-0.952,0.347-1.559,0.016-2.197c-0.317-0.605-0.605-1.548-1.436-0.366c-0.239,0.337-0.416,0.082-0.57-0.113
				c-0.284-0.361-0.543-0.755-0.854-1.07c-0.054-0.053-0.086-0.108-0.124-0.163l4.297-7.378l-14.688,0.16
				c-0.377-0.053-0.666,0.059-0.703,0.656c-0.048,0.762-0.416,0.975-0.899,0.829c-0.54-0.163-1.54,0.536-1.572-0.421
				c-0.043-1.19-0.537-1.01-1.119-0.932c-0.365,0.048-0.733,0.145-1.101,0.23c-0.247,0.06-0.506,0.188-0.451,0.572
				c0.125,0.902-0.252,1.264-0.892,1.281c-0.582,0.018-1.438,1.104-1.662-0.357c-0.063-0.429-0.309-0.445-0.603-0.311
				c-0.553,0.251-1.105,0.506-1.656,0.771c-0.316,0.151-0.478,0.445-0.31,0.797c0.339,0.718-0.014,1.029-0.528,1.307
				c-0.352,0.193-0.7,0.41-1.034,0.654c-0.315,0.236-0.571,0.366-0.693-0.147c-0.209-0.895-0.651-0.603-1.139-0.166
				c-0.349,0.308-0.719,0.568-1.069,0.872c-0.2,0.173-0.493,0.414-0.309,0.711c0.648,1.041-0.161,1.427-0.698,1.908
				c-0.509,0.457-1.07,1.284-1.48,0.089c-0.121-0.352-0.357-0.196-0.578,0.016c-0.451,0.437-0.906,0.869-1.364,1.293
				c-0.313,0.29-0.441,0.595-0.168,0.936c0.461,0.573,0.143,0.975-0.317,1.382c-0.319,0.281-0.61,0.619-0.92,0.92
				c-0.018,0.019-0.04,0.039-0.059,0.06l-0.406,0.209c-0.044-0.023-0.086-0.069-0.123-0.158c-0.073-0.175-0.147-0.289-0.223-0.381
				l-7.227-17.009c0.008-0.059,0.03-0.111,0.008-0.188c-0.22-0.777-0.618-1.453-0.945-2.162c-0.041-0.094-0.088-0.148-0.137-0.178
				l-2.899-6.824l0.67-3.832l-13.435,0.664c-0.466,0.034-0.929,0.041-1.393,0.092c-0.255,0.024-0.539,0.019-0.6,0.531
				c-0.047,0.383,0.085,0.939-0.394,1.069c-0.658,0.181-1.353,0.405-1.974,0.314c-0.351-0.047-0.145-0.87-0.223-1.33
				c-0.734,0.195-1.467,0.388-2.2,0.586c-0.078,0.277-0.413,0.318-0.405,0.719c0.011,0.375,0.306,0.866-0.096,1.145
				c-0.611,0.42-1.276,0.692-1.922,1.008c-0.152,0.072-0.204-0.107-0.282-0.232c-0.182-0.299-0.093-1.043-0.656-0.74
				c-0.699,0.379-1.402,0.779-1.999,1.447c-0.048,0.053-0.024,0.229-0.014,0.344c0.04,0.373,0.504,0.683,0.143,1.082
				c-0.531,0.591-1.146,1.055-1.736,1.541c-0.07,0.062-0.238-0.038-0.332-0.114c-0.25-0.201-0.285-0.983-0.785-0.499
				c-0.618,0.593-1.175,1.299-1.743,1.982c-0.135,0.156,0.03,0.281,0.081,0.415c0.117,0.325,0.659,0.44,0.335,0.959
				c-0.452,0.735-1.002,1.381-1.519,2.057c-0.021,0.029-0.117-0.023-0.178-0.041c-0.318-0.073-0.517-0.827-0.88-0.343
				c-0.534,0.706-0.935,1.571-1.38,2.382c-0.132,0.24,0.02,0.356,0.136,0.494c0.202,0.237,0.749,0.189,0.526,0.788
				c-0.296,0.795-0.692,1.545-1.061,2.307c-0.033,0.066-0.209,0.114-0.269,0.071c-1.008-0.714-1.157,0.44-1.402,1.228
				c-0.242,0.771-0.975,1.818,0.316,1.991c0.243,0.03,0.185,0.344,0.115,0.615c-0.163,0.622-0.318,1.246-0.455,1.872
				c-0.106,0.477-0.304,0.662-0.666,0.542c-0.58-0.193-0.774,0.234-0.851,0.896c-0.063,0.546-0.182,1.094-0.265,1.642
				c-0.067,0.424-0.019,0.809,0.385,0.755c0.784-0.102,0.72,0.486,0.598,1.185c-0.058,0.334-0.054,0.677-0.069,1.011
				c-0.024,0.567-0.131,1.049-0.703,0.961c-0.409-0.06-0.566,0.353-0.779,0.672c0.047,0.908,0.099,1.815,0.148,2.725
				c1.25-0.241,1.18-0.219,1.367,1.707c0.128,1.338-0.555,1.319-1.189,1.515c0.035,0.658,0.072,1.32,0.107,1.98
				c0.311,0.523,0.38,1.353,1.296,0.902c0.525-0.258,0.384,0.659,0.476,1.071c0.169,0.747,0.65,1.626-0.556,2.054
				c-0.231,0.083-0.229,0.412-0.184,0.661c0.122,0.67,0.251,1.341,0.374,2.009c0.066,0.346,0.255,0.471,0.515,0.282
				c0.868-0.634,0.916,0.15,1.024,0.827c0.126,0.771,0.752,1.65-0.523,2.132c-0.274,0.102-0.228,0.406-0.176,0.637
				c0.137,0.622,0.311,1.224,0.432,1.85c0.088,0.441,0.243,0.64,0.625,0.358c0.634-0.47,0.823-0.062,0.924,0.6
				c0.066,0.439,0.182,0.857,0.302,1.269c0.102,0.349,0.13,0.667-0.253,0.795c-0.824,0.269-0.724,0.85-0.517,1.511
				c0.117,0.369,0.202,0.758,0.283,1.15c0.091,0.454,0.275,0.754,0.693,0.454c0.867-0.634,0.877,0.265,0.949,0.818
				c0.083,0.623,0.894,1.332-0.199,1.965c-0.436,0.254-0.496,0.553-0.367,0.999c0.149,0.527,0.306,1.05,0.431,1.592
				c0.101,0.433,0.292,0.539,0.662,0.356c1.295-0.627,0.824,0.983,1.17,1.543c0.301,0.486,0.185,0.996-0.421,1.248
				c-0.389,0.16-0.449,0.515-0.342,0.917c0.153,0.569,0.333,1.123,0.464,1.702c0.101,0.452,0.304,0.605,0.648,0.313
				c0.647-0.545,0.809-0.066,0.95,0.527c0.103,0.426,0.231,0.831,0.335,1.251c0.082,0.333,0.089,0.626-0.271,0.837
				c-1.317,0.76-0.251,1.512-0.208,2.235c0.043,0.704,0.293,1.281,1.042,0.674c0.356-0.288,0.466-0.013,0.559,0.319
				c0.135,0.492,0.263,0.988,0.429,1.457c0.176,0.494,0.126,0.86-0.368,1.065c-0.565,0.236-0.566,0.634-0.367,1.159
				c0.147,0.385,0.238,0.824,0.346,1.242c0.129,0.494,0.28,0.792,0.839,0.534c1.184-0.541,0.75,0.987,1.1,1.521
				c0.316,0.481,0.233,0.983-0.367,1.247c-0.48,0.213-0.441,0.607-0.324,1.021c0.15,0.522,0.319,1.037,0.462,1.569
				c0.115,0.425,0.308,0.503,0.679,0.3c1.203-0.667,0.85,0.848,1.169,1.385c0.266,0.45,0.37,1.05-0.348,1.369
				c-0.474,0.21-0.436,0.59-0.298,1.01c0.17,0.513,0.332,1.028,0.467,1.563c0.104,0.41,0.248,0.641,0.635,0.321
				c0.601-0.503,0.879-0.157,0.964,0.509c0.084,0.663,0.843,1.431,0.167,1.942c-0.882,0.663-0.617,1.143-0.413,1.8
				c0.116,0.37,0.23,0.745,0.353,1.107c0.071,0.212,0.111,0.479,0.39,0.396c0.333-0.104,0.722-0.746,0.98-0.225
				c0.293,0.589,0.442,1.309,0.636,1.986c0.075,0.258-0.021,0.532-0.248,0.625c-0.927,0.382-0.637,1.018-0.422,1.659
				c0.135,0.398,0.252,0.813,0.386,1.218c0.075,0.222,0.159,0.415,0.43,0.312c0.302-0.116,0.668-0.701,0.893-0.249
				c0.309,0.622,0.476,1.376,0.68,2.084c0.063,0.221-0.099,0.386-0.25,0.52c-0.268,0.231-0.78,0.283-0.638,0.857
				c0.195,0.802,0.393,1.657,0.801,2.253c0.088,0.13,0.236,0.086,0.408-0.021l12.381-0.613l7.689-13.205
				c0.163-0.121,0.249-0.29,0.282-0.483l1.377-2.365c0.064-0.046,0.131-0.092,0.196-0.136c0.274-0.192,0.484-0.098,0.545,0.219
				c0.202,1.027,0.688,0.593,1.186,0.21c0.361-0.28,0.734-0.531,1.1-0.799c0.245-0.181,0.396-0.412,0.226-0.722
				c-0.441-0.792-0.02-1.234,0.567-1.479c0.551-0.231,1.199-1.628,1.67-0.168c0.13,0.396,0.371,0.351,0.649,0.147
				c0.459-0.333,0.915-0.672,1.379-0.984c0.339-0.23,0.508-0.507,0.301-0.904c-0.346-0.654-0.078-1.016,0.458-1.337
				c0.378-0.224,0.738-0.519,1.101-0.791c0.26-0.198,0.476-0.198,0.552,0.153c0.232,1.066,0.756,0.611,1.284,0.197
				c0.302-0.236,0.604-0.463,0.912-0.683c0.227-0.166,0.417-0.326,0.363-0.7c-0.052-0.372-0.482-0.728-0.108-1.097
				c0.523-0.522,1.14-0.883,1.719-1.307c0.138-0.102,0.24-0.03,0.345,0.079c0.237,0.25,0.169,1.039,0.686,0.746
				c0.631-0.356,1.227-0.867,1.83-1.333c0.261-0.201,0.154-0.468,0.045-0.645c-0.43-0.703-0.078-1.179,0.473-1.398
				c0.578-0.229,1.222-1.766,1.771-0.281c0.145,0.392,0.336,0.369,0.625,0.135c0.385-0.316,0.783-0.608,1.182-0.898
				c0.43-0.317,0.794-0.619,0.428-1.268c-0.234-0.41-0.067-0.747,0.314-1.017c0.399-0.284,0.779-0.619,1.172-0.916
				c0.262-0.201,0.49-0.281,0.662,0.101c0.646,1.431,1.261-0.167,1.868-0.423c0.555-0.235,0.882-0.738,0.457-1.436
				c-0.206-0.334-0.018-0.618,0.246-0.835c0.386-0.318,0.794-0.592,1.159-0.943c0.41-0.395,0.684-0.38,0.843,0.163
				c0.196,0.662,0.525,0.484,0.917,0.118c0.372-0.346,0.753-0.674,1.142-0.984c0.318-0.253,0.515-0.561,0.282-0.923
				c-0.47-0.719-0.019-1.084,0.449-1.474c0.325-0.272,0.641-0.559,0.957-0.849c0.238-0.219,0.438-0.286,0.567,0.058
				c0.498,1.315,1.071,0.208,1.54-0.265c0.458-0.463,1.477-0.821,0.67-1.862c-0.203-0.26-0.106-0.501,0.119-0.748
				c0.405-0.441,0.808-0.885,1.196-1.351c0.25-0.296,0.486-0.424,0.669-0.083c0.435,0.809,0.813,0.375,1.226-0.245
				c0.275-0.414,0.582-0.798,0.881-1.183c0.276-0.358,0.34-0.703,0.02-0.935c-0.589-0.424-0.292-0.884,0.072-1.394
				c0.26-0.368,0.492-0.772,0.725-1.172c0.188-0.319,0.373-0.567,0.642-0.256c0.546,0.633,0.899,0.192,1.232-0.53
				c0.212-0.463,0.459-0.902,0.703-1.346c0.221-0.41,0.24-0.744-0.124-0.89c-0.63-0.255-0.468-0.749-0.161-1.348
				c0.208-0.413,0.373-0.855,0.55-1.292c0.137-0.346,0.29-0.657,0.608-0.429c0.755,0.548,0.953-0.214,1.178-0.927
				c0.154-0.491,0.297-0.985,0.47-1.469c0.153-0.423,0.073-0.682-0.254-0.709c-0.609-0.053-0.808-0.461-0.461-1.144
				c0.36-0.711-0.138-2.225,1.21-2.032c0.391,0.059,0.481-0.197,0.541-0.558c0.092-0.591,0.132-1.184,0.246-1.766
				c0.14-0.711,0.107-1.195-0.588-1.044c-0.496,0.113-0.527-0.25-0.47-0.733c0.027-0.251,0.078-0.522,0.04-0.755
				C481.159,852.771,481.766,852.371,482.721,852.366z"/>
			
				<linearGradient id="SVGID_1_" gradientUnits="userSpaceOnUse" x1="420.8457" y1="791.7295" x2="368.0165" y2="883.2324" gradientTransform="matrix(0.9947 -0.1032 0.1032 0.9947 -36.9232 77.5272)">
				<stop  offset="0" style="stop-color:#CA6262"/>
				<stop  offset="1" style="stop-color:#0A0036;stop-opacity:0.7"/>
			</linearGradient>
			<path opacity="0.9" fill-rule="evenodd" clip-rule="evenodd" fill="url(#SVGID_1_)" d="M495.321,848.266
				c0.064,1.156,0.126,2.311,0.189,3.468c-0.955,0.003-1.563,0.402-1.337,1.796c0.038,0.233-0.013,0.506-0.042,0.758
				c-0.054,0.48-0.024,0.845,0.47,0.734c0.696-0.154,0.73,0.33,0.59,1.037c-0.115,0.585-0.155,1.179-0.248,1.768
				c-0.057,0.361-0.149,0.616-0.539,0.56c-1.349-0.194-0.851,1.319-1.211,2.03c-0.349,0.685-0.148,1.093,0.461,1.145
				c0.328,0.029,0.406,0.285,0.253,0.711c-0.174,0.482-0.316,0.979-0.471,1.468c-0.225,0.713-0.421,1.475-1.178,0.929
				c-0.316-0.229-0.47,0.082-0.607,0.426c-0.176,0.435-0.342,0.88-0.551,1.291c-0.305,0.6-0.467,1.095,0.161,1.35
				c0.366,0.145,0.346,0.479,0.125,0.891c-0.243,0.441-0.49,0.883-0.703,1.345c-0.333,0.723-0.686,1.161-1.232,0.529
				c-0.268-0.312-0.455-0.063-0.64,0.258c-0.234,0.398-0.467,0.801-0.727,1.168c-0.363,0.514-0.662,0.974-0.073,1.397
				c0.321,0.229,0.259,0.575-0.019,0.935c-0.299,0.384-0.605,0.767-0.88,1.181c-0.413,0.621-0.793,1.053-1.226,0.247
				c-0.185-0.341-0.419-0.216-0.67,0.08c-0.387,0.468-0.79,0.907-1.196,1.355c-0.226,0.244-0.321,0.483-0.119,0.742
				c0.806,1.043-0.213,1.4-0.669,1.863c-0.47,0.473-1.042,1.583-1.54,0.265c-0.132-0.341-0.33-0.275-0.566-0.056
				c-0.317,0.29-0.633,0.575-0.958,0.847c-0.467,0.394-0.919,0.755-0.45,1.477c0.234,0.361,0.036,0.669-0.28,0.922
				c-0.39,0.309-0.772,0.637-1.143,0.981c-0.394,0.368-0.722,0.546-0.917-0.116c-0.161-0.543-0.434-0.56-0.844-0.164
				c-0.364,0.354-0.772,0.627-1.16,0.944c-0.263,0.217-0.451,0.5-0.246,0.836c0.427,0.696,0.099,1.202-0.457,1.437
				c-0.607,0.256-1.223,1.852-1.869,0.421c-0.17-0.383-0.399-0.3-0.661-0.101c-0.392,0.298-0.773,0.633-1.173,0.915
				c-0.38,0.269-0.547,0.608-0.313,1.021c0.366,0.645,0,0.948-0.428,1.267c-0.397,0.287-0.794,0.58-1.182,0.894
				c-0.288,0.238-0.48,0.262-0.626-0.131c-0.548-1.484-1.193,0.052-1.77,0.28c-0.55,0.22-0.903,0.696-0.472,1.397
				c0.108,0.178,0.215,0.444-0.046,0.647c-0.604,0.466-1.198,0.975-1.83,1.331c-0.515,0.293-0.449-0.496-0.687-0.745
				c-0.102-0.108-0.206-0.182-0.342-0.079c-0.582,0.424-1.197,0.784-1.72,1.304c-0.375,0.373,0.056,0.729,0.107,1.099
				c0.055,0.373-0.136,0.536-0.363,0.7c-0.306,0.219-0.609,0.446-0.91,0.685c-0.529,0.413-1.051,0.865-1.283-0.199
				c-0.079-0.352-0.294-0.352-0.553-0.153c-0.364,0.272-0.723,0.569-1.101,0.793c-0.538,0.318-0.805,0.683-0.458,1.337
				c0.206,0.396,0.037,0.672-0.3,0.9c-0.465,0.315-0.921,0.655-1.38,0.987c-0.28,0.201-0.521,0.247-0.649-0.147
				c-0.471-1.463-1.119-0.063-1.67,0.167c-0.587,0.246-1.008,0.688-0.569,1.48c0.172,0.308,0.02,0.54-0.226,0.719
				c-0.366,0.27-0.74,0.521-1.099,0.799c-0.499,0.384-0.986,0.82-1.186-0.208c-0.061-0.316-0.27-0.412-0.545-0.221
				c-0.492,0.344-0.984,0.688-1.478,1.033c-0.254,0.178-0.39,0.433-0.237,0.728c0.364,0.697,0.136,1.211-0.489,1.408
				c-0.624,0.199-1.334,1.86-1.896,0.247c-0.096-0.272-0.266-0.326-0.475-0.187c-0.589,0.399-1.216,0.742-1.735,1.264
				c-0.338,0.337,0.145,0.701,0.125,1.104c-0.006,0.113-0.012,0.304-0.064,0.346c-0.63,0.481-1.253,1.006-1.916,1.394
				c-0.496,0.288-0.408-0.45-0.574-0.714c-0.178-0.287-0.356-0.262-0.591-0.101c-0.464,0.313-0.928,0.628-1.387,0.964
				c-0.177,0.133-0.407,0.325-0.276,0.604c0.581,1.236-0.354,1.467-0.933,1.854c-0.374,0.251-0.973,0.961-1.162,0.478
				c-0.726-1.85-1.515,0.091-2.256,0.243c-0.197,0.042-0.415,0.336-0.304,0.582c0.609,1.33-0.432,1.485-0.996,1.933
				c-0.561,0.45-1.194,1.029-1.431-0.231c-0.053-0.287-0.278-0.269-0.49-0.121c-0.494,0.345-0.984,0.689-1.481,1.022
				c-0.219,0.147-0.374,0.376-0.263,0.613c0.547,1.153-0.271,1.396-0.862,1.765c-0.392,0.244-0.948,0.907-1.162,0.597
				c-0.407-0.596-0.605-1.454-0.8-2.25c-0.142-0.578,0.372-0.63,0.637-0.861c0.153-0.132,0.314-0.297,0.252-0.518
				c-0.205-0.71-0.372-1.462-0.681-2.086c-0.223-0.451-0.59,0.133-0.893,0.25c-0.268,0.105-0.355-0.09-0.427-0.312
				c-0.135-0.403-0.251-0.819-0.387-1.22c-0.214-0.638-0.505-1.275,0.422-1.655c0.226-0.095,0.322-0.367,0.247-0.628
				c-0.193-0.677-0.342-1.396-0.635-1.984c-0.259-0.523-0.648,0.122-0.979,0.225c-0.28,0.084-0.319-0.185-0.389-0.397
				c-0.123-0.362-0.239-0.735-0.353-1.106c-0.206-0.657-0.471-1.136,0.412-1.801c0.675-0.511-0.083-1.277-0.167-1.938
				c-0.084-0.669-0.363-1.014-0.965-0.514c-0.386,0.322-0.53,0.094-0.634-0.317c-0.137-0.535-0.297-1.051-0.468-1.564
				c-0.137-0.422-0.175-0.802,0.298-1.01c0.719-0.319,0.614-0.921,0.35-1.369c-0.321-0.536,0.033-2.052-1.171-1.387
				c-0.371,0.205-0.563,0.125-0.678-0.298c-0.145-0.531-0.314-1.046-0.463-1.572c-0.116-0.41-0.155-0.805,0.325-1.018
				c0.598-0.265,0.682-0.765,0.366-1.248c-0.349-0.533,0.083-2.063-1.099-1.519c-0.56,0.254-0.71-0.042-0.838-0.536
				c-0.111-0.419-0.2-0.856-0.347-1.244c-0.2-0.522-0.2-0.918,0.367-1.155c0.494-0.206,0.542-0.572,0.367-1.068
				c-0.167-0.468-0.294-0.963-0.429-1.455c-0.093-0.333-0.202-0.607-0.557-0.319c-0.75,0.604-1,0.028-1.043-0.675
				c-0.043-0.723-1.109-1.476,0.208-2.236c0.36-0.209,0.353-0.504,0.271-0.836c-0.104-0.421-0.232-0.826-0.334-1.251
				c-0.141-0.595-0.302-1.074-0.95-0.527c-0.344,0.293-0.546,0.14-0.649-0.313c-0.13-0.581-0.31-1.132-0.464-1.701
				c-0.107-0.403-0.047-0.758,0.343-0.92c0.605-0.25,0.722-0.758,0.421-1.245c-0.346-0.559,0.124-2.171-1.17-1.541
				c-0.371,0.179-0.561,0.074-0.663-0.361c-0.125-0.537-0.282-1.063-0.43-1.588c-0.129-0.448-0.07-0.746,0.367-0.999
				c1.092-0.634,0.282-1.343,0.2-1.966c-0.074-0.554-0.084-1.454-0.95-0.82c-0.418,0.301-0.603,0.001-0.695-0.453
				c-0.081-0.392-0.165-0.779-0.282-1.149c-0.208-0.662-0.309-1.245,0.516-1.511c0.383-0.127,0.355-0.446,0.253-0.795
				c-0.12-0.413-0.237-0.83-0.301-1.269c-0.102-0.664-0.29-1.07-0.924-0.602c-0.383,0.282-0.538,0.084-0.624-0.356
				c-0.124-0.627-0.296-1.227-0.433-1.851c-0.052-0.229-0.096-0.536,0.176-0.637c1.275-0.481,0.649-1.362,0.523-2.132
				c-0.11-0.678-0.155-1.46-1.025-0.828c-0.257,0.19-0.448,0.063-0.513-0.28c-0.124-0.67-0.252-1.338-0.375-2.008
				c-0.044-0.251-0.047-0.581,0.184-0.662c1.207-0.43,0.724-1.306,0.556-2.057c-0.091-0.411,0.049-1.325-0.475-1.068
				c-0.916,0.449-0.985-0.38-1.297-0.902c-0.036-0.66-0.072-1.323-0.108-1.981c0.636-0.196,1.32-0.176,1.191-1.513
				c-0.187-1.927-0.115-1.952-1.367-1.708c-0.05-0.909-0.1-1.816-0.149-2.726c0.213-0.319,0.372-0.73,0.779-0.671
				c0.573,0.086,0.68-0.395,0.705-0.961c0.015-0.337,0.012-0.676,0.07-1.011c0.12-0.699,0.185-1.288-0.598-1.186
				c-0.405,0.055-0.452-0.33-0.386-0.755c0.085-0.549,0.201-1.093,0.266-1.64c0.075-0.663,0.269-1.091,0.85-0.897
				c0.362,0.12,0.56-0.063,0.665-0.54c0.137-0.628,0.291-1.251,0.453-1.873c0.071-0.271,0.13-0.585-0.114-0.615
				c-1.291-0.175-0.556-1.221-0.315-1.993c0.245-0.786,0.395-1.939,1.402-1.226c0.059,0.042,0.238-0.006,0.27-0.073
				c0.369-0.76,0.764-1.509,1.061-2.307c0.222-0.6-0.324-0.55-0.525-0.788c-0.115-0.137-0.269-0.251-0.135-0.494
				c0.444-0.812,0.846-1.675,1.379-2.381c0.363-0.484,0.56,0.27,0.879,0.345c0.061,0.017,0.157,0.07,0.178,0.038
				c0.516-0.674,1.067-1.319,1.521-2.055c0.322-0.517-0.22-0.634-0.338-0.962c-0.049-0.132-0.215-0.255-0.08-0.414
				c0.568-0.68,1.126-1.389,1.742-1.98c0.501-0.486,0.536,0.297,0.788,0.499c0.092,0.076,0.26,0.175,0.33,0.112
				c0.59-0.485,1.206-0.949,1.736-1.539c0.361-0.399-0.104-0.709-0.143-1.082c-0.011-0.113-0.035-0.294,0.015-0.347
				c0.594-0.665,1.299-1.064,1.998-1.444c0.563-0.305,0.475,0.442,0.656,0.738c0.076,0.125,0.128,0.306,0.281,0.231
				c0.647-0.313,1.313-0.587,1.923-1.004c0.402-0.28,0.108-0.769,0.097-1.146c-0.009-0.401,0.325-0.442,0.403-0.721
				c0.734-0.194,1.467-0.389,2.201-0.584c0.079,0.461-0.127,1.283,0.223,1.331c0.622,0.093,1.316-0.133,1.973-0.313
				c0.481-0.132,0.349-0.689,0.395-1.07c0.062-0.513,0.344-0.505,0.6-0.534c0.465-0.049,0.926-0.055,1.393-0.089
				c0.459-0.03,0.807,0.077,0.601,0.82c-0.19,0.69,0.125,0.771,0.528,0.793c0.358,0.021,0.733,0.008,1.071,0.108
				c0.483,0.142,0.776-0.04,0.864-0.707c0.09-0.678,0.38-0.741,0.791-0.598c0.337,0.119,0.689,0.187,1.035,0.273
				c0.528,0.129,1.045,0.254,0.589,1.25c-0.185,0.406-0.011,0.611,0.272,0.727c0.422,0.171,0.849,0.342,1.252,0.559
				c0.317,0.165,0.569,0.145,0.715-0.356c0.249-0.869,0.625-0.775,1.063-0.45c0.375,0.278,0.766,0.527,1.151,0.787
				c0.259,0.173,0.369,0.403,0.145,0.802c-0.871,1.538,0.508,1.331,0.818,1.943c0.298,0.584,0.715,0.501,1.089-0.196
				c0.27-0.492,0.513-0.305,0.735-0.044c0.338,0.401,0.69,0.786,1.01,1.208c0.133,0.178,0.462,0.425,0.215,0.678
				c-1.215,1.246-0.112,1.715,0.203,2.444c0.245,0.579,0.56,0.824,1.08,0.188c0.182-0.223,0.407-0.428,0.575-0.06
				c0.327,0.711,0.726,1.384,0.944,2.163c0.157,0.559-0.479,0.63-0.709,0.979c-0.137,0.214-0.091,0.406-0.033,0.587
				c0.138,0.446,0.332,0.86,0.43,1.325c0.143,0.664,0.37,0.962,0.971,0.487c0.374-0.298,0.539-0.022,0.629,0.377
				c0.129,0.583,0.275,1.154,0.396,1.741c0.076,0.369,0.113,0.761-0.331,0.909c-0.892,0.295-0.64,1.045-0.477,1.587
				c0.179,0.598-0.143,1.947,1.037,1.337c0.356-0.188,0.481,0.079,0.529,0.434c0.092,0.641,0.17,1.284,0.258,1.931
				c0.052,0.381-0.036,0.635-0.387,0.758c-1.212,0.43-0.447,1.36-0.498,2.042c-0.054,0.715,0.075,1.369,0.895,0.942
				c0.273-0.143,0.465,0.037,0.498,0.356c0.082,0.771,0.205,1.55,0.162,2.336c-0.036,0.646-0.609,0.396-0.903,0.65
				c-0.056,0.051-0.143,0.12-0.146,0.179c-0.051,0.758-0.146,1.646,0.167,2.151c0.276,0.444,0.931,0.53,1.451,0.644
				c0.269,0.06,1.512-1.654,1.387-1.806c-0.882-1.09,0.103-1.572,0.646-2.198c0.508-0.584,1.011-1.256,1.468-0.172
				c0.155,0.372,0.396,0.079,0.588-0.11c0.309-0.303,0.6-0.639,0.919-0.92c0.462-0.406,0.778-0.808,0.315-1.38
				c-0.271-0.343-0.143-0.646,0.17-0.937c0.457-0.426,0.913-0.855,1.364-1.292c0.221-0.213,0.457-0.367,0.577-0.019
				c0.411,1.195,0.972,0.369,1.481-0.088c0.536-0.48,1.344-0.867,0.698-1.908c-0.186-0.298,0.108-0.539,0.307-0.71
				c0.351-0.306,0.721-0.564,1.069-0.875c0.488-0.436,0.931-0.725,1.14,0.168c0.121,0.515,0.377,0.387,0.693,0.15
				c0.334-0.249,0.682-0.464,1.034-0.656c0.516-0.278,0.868-0.589,0.529-1.31c-0.168-0.35-0.004-0.643,0.309-0.793
				c0.551-0.268,1.104-0.523,1.657-0.774c0.292-0.134,0.539-0.116,0.602,0.311c0.224,1.463,1.081,0.378,1.662,0.356
				c0.642-0.016,1.016-0.376,0.891-1.28c-0.054-0.384,0.205-0.513,0.453-0.57c0.368-0.087,0.734-0.185,1.101-0.231
				c0.583-0.076,1.075-0.26,1.118,0.932c0.032,0.957,1.033,0.257,1.571,0.42c0.484,0.146,0.853-0.065,0.9-0.828
				c0.037-0.599,0.325-0.71,0.703-0.656c0.451,0.068,0.898,0.149,1.355,0.192c0.47,0.042,0.746,0.215,0.474,0.935
				c-0.229,0.592-0.024,0.818,0.413,0.896c0.384,0.065,0.759,0.188,1.117,0.339c0.367,0.151,0.641,0.106,0.78-0.465
				c0.192-0.792,0.557-0.783,0.996-0.534c0.345,0.188,0.696,0.364,1.059,0.515c0.476,0.195,0.685,0.502,0.273,1.166
				c-0.294,0.482-0.173,0.748,0.197,0.937c0.347,0.177,0.678,0.413,0.983,0.676c0.379,0.329,0.678,0.323,0.948-0.321
				c0.224-0.537,0.483-0.538,0.789-0.218c0.358,0.372,0.746,0.701,1.123,1.042c0.34,0.304,0.434,0.637,0.012,1.101
				c-0.389,0.43-0.343,0.776-0.004,1.122c0.313,0.314,0.572,0.708,0.856,1.072c0.153,0.192,0.331,0.449,0.568,0.11
				c0.833-1.179,1.121-0.239,1.437,0.367c0.332,0.637,1.268,1.243-0.015,2.196c-0.2,0.148-0.179,0.406-0.05,0.524
				c0.588,0.544,0.207,2.729,1.811,1.574c0.066-0.05,0.228-0.013,0.263,0.06c0.374,0.728,0.622,1.556,0.768,2.422
				c0.102,0.598-0.454,0.532-0.694,0.796c-0.099,0.11-0.248,0.305-0.233,0.4c0.128,0.833,0.157,1.771,0.486,2.438
				C494.242,848.993,494.882,848.442,495.321,848.266z"/>
			<path fill="#FFFFFF" d="M436.501,843.8c-1.57,5.426-6.169,8.837-10.271,7.617c-4.106-1.22-6.162-6.604-4.593-12.027
				c1.568-5.424,6.168-8.837,10.273-7.618C436.013,832.987,438.069,838.377,436.501,843.8z"/>
			<path fill="#FFFFFF" d="M477.289,842.869c-6.039-1.795-12.811,3.228-15.118,11.207c-2.309,7.984,0.715,15.916,6.757,17.709
				c6.042,1.792,12.812-3.229,15.12-11.213C486.357,852.589,483.332,844.66,477.289,842.869z M478.413,858.899
				c-1.122,3.875-4.403,6.307-7.33,5.438c-2.932-0.871-4.399-4.713-3.278-8.587c1.119-3.87,4.4-6.305,7.33-5.437
				C478.064,851.186,479.533,855.028,478.413,858.899z"/>
			<path display="none" fill="#FFFFFF" d="M434.19,888.617c-3.955-2.614-5.709-8.701-3.935-14.84
				c2.065-7.142,8.122-11.635,13.526-10.031c0.667,0.198,1.292,0.48,1.873,0.835l2.178-4.274l0.409-7.285
				c-0.402-0.159-0.813-0.303-1.235-0.429c-1.029-0.305-2.073-0.489-3.118-0.565l-3.075,6.684l-2.527-6.048
				c-1.532,0.452-3.034,1.127-4.479,1.999l-0.217,7.265l-4.788-3.18c-1.239,1.317-2.387,2.808-3.405,4.444l2.698,5.907l-5.76,0.533
				c-0.186,0.539-0.361,1.088-0.52,1.64c-0.393,1.36-0.694,2.719-0.905,4.073l4.889,2.959l-5.195,4.107
				c0.14,1.896,0.458,3.721,0.945,5.439l5.771-0.78l-3.236,6.582c0.874,1.4,1.897,2.646,3.054,3.714l5.11-4.306L434.19,888.617z"/>
			<g display="none">
				<path display="inline" fill="#FFFFFF" d="M430.051,877.697"/>
				<path display="inline" fill="#FFFFFF" d="M459.923,871.149c-0.139-1.895-0.458-3.719-0.945-5.438l-5.77,0.773l3.233-6.579
					c-0.875-1.397-1.897-2.646-3.053-3.714l-5.294,4.431c0,0-2.104,4.097-2.157,4.065c4.24,2.457,6.172,8.75,4.339,15.091
					c-2.066,7.148-8.122,11.639-13.528,10.032c-0.762-0.227-1.463-0.571-2.112-1.001l-1.938,4.443l-0.408,7.287
					c0.402,0.156,0.813,0.301,1.232,0.426c1.029,0.306,2.072,0.49,3.117,0.563l3.075-6.679l2.527,6.046
					c1.531-0.449,3.033-1.125,4.478-1.998l0.218-7.265l4.785,3.179c1.245-1.317,2.391-2.807,3.41-4.442l-2.697-5.912l5.756-0.532
					c0.186-0.539,0.363-1.084,0.523-1.642c0.393-1.359,0.691-2.718,0.902-4.066l-4.89-2.962L459.923,871.149z"/>
			</g>
		</g>
		<path fill="#FFFFFF" d="M536.494,678.354c-3.492,13.797-0.519,23.709,11.449,29.479c9.121,4.395,21.034,0.271,24.525-13.526
			c3.492-13.798-2.066-33.955-11.881-36.439C550.772,655.384,539.985,664.555,536.494,678.354z"/>
		
			<polygon fill="none" stroke="#FFFFFF" stroke-width="2" stroke-linecap="round" stroke-linejoin="round" stroke-miterlimit="10" points="
			492.75,744.321 481.241,740.843 469.733,737.364 489.678,735.215 		"/>
		<g>
			<g>
				<polygon fill="#858585" points="468.676,900.223 453.26,912.139 451.453,924.2 460.867,919.23 				"/>
			</g>
			<g>
				<polygon fill="#858585" points="522.179,862.636 499.97,887.097 472.308,898.094 463.933,919.998 475.254,930.495 
					484.583,935.437 494.308,936.285 513.312,908.278 530.092,894.39 532.332,886.085 				"/>
			</g>
			<g>
				<polygon fill="#858585" points="469.784,933.808 478.373,937.589 466.982,957.022 458.462,952.622 				"/>
			</g>
			<g>
				<polygon fill="#858585" points="483.399,939.035 490.791,940.851 483.075,951.017 475.435,951.179 				"/>
			</g>
			<g>
				<polygon fill="#858585" points="447.762,941.159 459.795,924.904 467.337,930.568 454.265,948.276 				"/>
			</g>
		</g>
	</g>
	<g>
		<path fill="#995C33" d="M304.71,502.705c0,0,17.612,6.757,23.542,17.118c5.931,10.36-3.756,9.632-3.756,9.632
			s-5.064-12.451-11.931-16.129C305.7,509.648,304.71,502.705,304.71,502.705z"/>
		<path fill="#995C33" d="M345.157,505.262c0,0,15.906-10.142,27.763-8.748c11.857,1.393,33.825-1.919,38.783-5.252
			c4.958-3.334-33.272,14-33.272,14s-13.022-3.334-20.063,0C351.327,508.595,345.157,505.262,345.157,505.262z"/>
		<path fill="#379934" d="M420.968,502.221c7.458,13.965,7.454,38.721,7.454,38.721s-20.577-13.765-28.035-27.729
			c-7.458-13.966-4.658-19.808,1.026-22.843C407.096,487.333,413.51,488.255,420.968,502.221z"/>
		<path fill="#824A25" d="M290,931.345c4.424-116.26-12.868-337.37-11.665-420.676c0.49-33.933,35.744-59.12,35.744-59.12
			l-144.622-0.367c0,0,10.669-22.812,12.169,117.952c0,132.368-12.169,519.203-12.169,519.203s-4.793,29.792-8,38.999
			c-3.353,9.626-17.329,31.949-17.329,31.949H314.08C314.08,1159.285,283.16,1111.096,290,931.345z"/>
		<path fill="#379934" d="M538.311,234.467c0-82.059-66.522-148.581-148.582-148.581c-8.593,0-17.014,0.739-25.208,2.139
			C343.352,40.968,296.094,8.184,241.147,8.184c-43.803,0-82.72,20.84-107.438,53.127c-7.204-2.328-14.881-3.6-22.861-3.6
			c-28.055,0-52.471,15.557-65.111,38.51C32.86,89.051,18.04,84.951,2.256,84.951c-49.438,0-89.516,40.078-89.516,89.516
			c0,17.276,4.906,33.399,13.383,47.078c-2.85,8.43-4.868,17.238-5.961,26.336c-31.091,6.386-54.472,33.904-54.472,66.885
			c0,30.621,20.156,56.533,47.925,65.195c6.486,50.514,49.616,89.561,101.895,89.561c29.848,0,56.712-12.736,75.487-33.057
			c37.178,40.702,90.681,66.24,150.152,66.24c55.403,0,105.621-22.172,142.291-58.113c15.664,15.531,37.217,25.13,61.018,25.13
			c47.868,0,86.673-38.805,86.673-86.673c0-22.697-8.735-43.348-23.014-58.799C527.061,299.309,538.311,268.204,538.311,234.467z"/>
		<path fill="#995C33" d="M291.885,527.869c0,0,18.702-2.332,35.744-23.665s22.613-37.54,31.077-48.935
			c8.464-11.396,33.728-21.095,44.839-26.336c12.75-6.015,48.324-4.559,52.472-4.559s-1.44,12.18-1.44,12.18
			s-25.834,4.832-38.281,12.368c-10.067,6.096-37.031,21.95-41.579,35.448c-4.547,13.5-27.422,34.498-32.484,43.498
			s-31.394,43.545-40.681,46.498c-2.711,0.861-15.385,8.396-21.79,7.743c-10.429-27.347-1.38-48.854-1.38-48.854L291.885,527.869z"
			/>
		<path fill="#3FB232" d="M278.679,500.445c-16.279-12.953-26.439-41.724-26.439-41.724s30.318,3.437,46.597,16.39
			c16.279,12.951,17.919,23.52,12.354,30.516C305.624,512.623,294.958,513.398,278.679,500.445z"/>
		<path fill="#236D20" d="M75.675,357.539c7.458,13.965,7.454,38.721,7.454,38.721s-20.577-13.764-28.035-27.729
			c-7.458-13.965-4.658-19.808,1.026-22.844C61.803,342.652,68.216,343.574,75.675,357.539z"/>
		<path fill="#3FB232" d="M105.083,290.607c-15.795,13.538-45.968,18.078-45.968,18.078s9.104-29.122,24.9-42.66
			c15.795-13.538,26.482-13.152,32.3-6.364C122.134,266.451,120.88,277.071,105.083,290.607z"/>
		<path fill="#1AC60C" d="M57.876,364.201c-3.463,15.448-19.623,34.201-19.623,34.201s-6.608-23.857-3.145-39.306
			c3.463-15.448,9.398-18.048,15.685-16.638C57.081,343.867,61.339,348.752,57.876,364.201z"/>
		<path fill="#7DDD6F" d="M198.669,279.732c17.48,11.279,30.435,38.905,30.435,38.905s-30.509-0.423-47.989-11.703
			c-17.479-11.279-20.157-21.634-15.31-29.145C170.653,270.277,181.191,268.451,198.669,279.732z"/>
		<path fill="#236D20" d="M440.625,361.85c3.137,15.518-3.973,39.23-3.973,39.23s-15.761-19.091-18.898-34.608
			c-3.137-15.519,1.223-20.312,7.539-21.588C431.609,343.607,437.489,346.33,440.625,361.85z"/>
		<path fill="#3FB232" d="M349.076,367.618c-19.016,8.435-49.223,4.124-49.223,4.124s17.08-25.283,36.096-33.719
			c19.016-8.435,29.143-4.998,32.768,3.174C372.342,349.371,368.093,359.185,349.076,367.618z"/>
		<path fill="#1AC60C" d="M363.487,267.077c-7.751,13.805-28.613,27.132-28.613,27.132s0.517-24.751,8.268-38.556
			c7.751-13.805,14.182-14.591,19.8-11.437C368.561,247.371,371.238,253.272,363.487,267.077z"/>
		<path fill="#7DDD6F" d="M397.686,239.286c13.507,15.821,17.988,46.003,17.988,46.003s-29.104-9.161-42.611-24.983
			c-13.507-15.821-13.1-26.508-6.301-32.312C373.562,222.188,384.181,223.462,397.686,239.286z"/>
	</g>
</g>
</svg>
