<?xml version="1.0" encoding="utf-8"?>
<!-- Generator: Adobe Illustrator 16.0.0, SVG Export Plug-In . SVG Version: 6.00 Build 0)  -->
<!DOCTYPE svg PUBLIC "-//W3C//DTD SVG 1.1//EN" "http://www.w3.org/Graphics/SVG/1.1/DTD/svg11.dtd">
<svg version="1.1" id="圖層_1" xmlns="http://www.w3.org/2000/svg" xmlns:xlink="http://www.w3.org/1999/xlink" x="0px" y="0px"
	 width="440px" height="700px" viewBox="0 0 440 700" enable-background="new 0 0 440 700" xml:space="preserve">
<ellipse fill="#333333" cx="222.331" cy="67.65" rx="214.669" ry="21.061"/>
<g>
	<polygon fill="#858585" points="128.495,285.318 80.026,347.126 72.044,376.868 44.202,377.833 36.441,365.342 32.331,356.504 
		30.233,347.012 59.892,330.665 127.011,227.04 134.085,261.626 	"/>
	<polygon fill="#858585" points="71.205,380.959 70.129,401.035 62.235,399.047 57.285,381.443 	"/>
	<polygon fill="#858585" points="24.631,389.049 40.201,378.735 35.343,371.507 19.53,380.994 	"/>
	<polygon fill="#858585" points="32.53,368.633 29.456,360.527 10.986,370.098 14.636,378.167 	"/>
	<polygon fill="#858585" points="28.683,358.264 26.984,349.383 8.845,353.631 12.421,361.742 	"/>
</g>
<polygon fill="#9B9A9A" points="137.085,281.405 139.292,264.298 319.337,233.665 325.324,246.45 "/>
<polygon fill="#9B9A9A" points="158.937,451.224 116.737,320.758 136.646,285.717 326.362,250.119 363.183,280.867 355.022,430.679 
	"/>
<polygon fill="#9B9A9A" points="253.615,539.016 270.901,545.751 270.892,507.086 354.286,436.122 160.141,456.902 243.918,502.621 
	"/>
<polygon fill="#9B9A9A" points="140.149,259.626 319.312,229.287 302.029,60.143 90.349,67.87 "/>
<g>
	<polygon fill="#858585" points="289.815,253.044 295.038,237.8 319.337,233.665 325.324,246.45 	"/>
	<path fill="#858585" d="M313.009,434.01l42.014-3.331l8.16-149.812l-36.82-30.748l-40.318,8.575c0,0,10.676,15.181,32.754,68.173
		C338.55,374.277,313.009,434.01,313.009,434.01z"/>
	<polygon fill="#858585" points="298.609,232.771 253.63,62.438 302.029,60.143 319.312,229.287 	"/>
	<polygon fill="#858585" points="262.944,542.111 259.825,508.408 313.132,440.435 354.286,436.122 270.892,507.086 
		270.901,546.751 	"/>
</g>
<polygon fill="#FFFFFF" points="232.138,355.358 255.041,354.874 255.426,321.037 224.494,323.435 "/>
<path fill="#FFFFFF" d="M207.724,366.888c-0.727-17.687-7.783-28.452-24.097-31.089c-12.43-2.009-25.174,7.129-24.446,24.816
	c0.726,17.687,14.495,39.751,27.077,39.235C198.841,399.333,208.451,384.575,207.724,366.888z"/>
<path fill="#FFFFFF" d="M289.468,363.375c-5.779-16.733-3.14-29.33,11.087-37.739c10.842-6.409,26.037-2.552,31.816,14.181
	s1.013,42.302-10.889,46.411C309.58,390.339,295.247,380.107,289.468,363.375z"/>
<polygon fill="#5E5E5E" points="154.126,239.004 297.307,211.861 290.226,72.092 122.236,98.313 "/>
<g>
	<g>
		
			<linearGradient id="SVGID_1_" gradientUnits="userSpaceOnUse" x1="184.4824" y1="997.9863" x2="184.4824" y2="1097.7471" gradientTransform="matrix(0.9069 -0.4214 -0.4214 -0.9069 478.8748 1173.7798)">
			<stop  offset="0" style="stop-color:#CA6262"/>
			<stop  offset="1" style="stop-color:#0A0036;stop-opacity:0.7"/>
		</linearGradient>
		<path opacity="0.9" fill-rule="evenodd" clip-rule="evenodd" fill="url(#SVGID_1_)" d="M163.971,190.534
			c0.406,0.871,0.811,1.742,1.216,2.613c0.491-0.132,0.951-0.855,1.335-0.58c0.569,0.408,0.951,1.11,1.334,1.736
			c0.295,0.48-0.283,0.582-0.503,0.824c-0.223,0.248-0.172,0.461,0.014,0.685c0.259,0.31,0.515,0.627,0.786,0.929
			c0.442,0.486,0.859,1.136,1.531,0.226c0.21-0.284,0.467-0.1,0.667,0.074c0.389,0.341,0.749,0.712,1.151,1.031
			c0.326,0.256,0.432,0.523,0.123,0.821c-0.571,0.554-0.234,0.875,0.253,1.19c0.435,0.278,0.864,0.567,1.288,0.861
			c0.299,0.205,0.564,0.205,0.705-0.155c0.306-0.778,0.821-0.659,1.268-0.234c0.471,0.447,1.887,0.2,1.205,1.545
			c-0.127,0.253-0.166,0.493,0.176,0.623c0.69,0.261,1.377,0.534,2.068,0.79c0.178,0.064,0.381,0.085,0.422-0.179
			c0.225-1.418,1.114-0.7,1.813-0.565c0.624,0.121,1.289,0.201,0.946,1.154c-0.143,0.395,0.199,0.496,0.503,0.55
			c0.398,0.074,0.801,0.133,1.202,0.2c0.638,0.109,1.285,0.268,1.24-0.766c-0.018-0.407,0.301-0.425,0.629-0.402
			c0.44,0.035,0.887,0.065,1.326,0.041c0.541-0.03,0.87,0.11,0.772,0.728c-0.091,0.587,0.243,0.681,0.72,0.637
			c0.404-0.038,0.809-0.056,1.214-0.078c0.626-0.034,1.21-0.085,0.962-0.992c-0.104-0.375,0.165-0.517,0.496-0.565
			c0.401-0.06,0.816-0.083,1.198-0.201c0.604-0.19,0.987-0.135,1.063,0.604c0.047,0.424,0.324,0.518,0.726,0.375
			c0.487-0.171,0.997-0.275,1.48-0.452c0.249-0.092,0.757-0.145,0.613-0.484c-0.627-1.465,0.73-1.29,1.354-1.687
			c0.448-0.287,0.963-0.466,1.202,0.305c0.13,0.417,0.412,0.472,0.772,0.261c0.509-0.299,1.014-0.603,1.532-0.885
			c0.364-0.198,0.436-0.42,0.23-0.798c-0.671-1.235,0.715-1.155,1.128-1.691c0.364-0.471,0.773-0.493,1.13,0.084
			c0.222,0.354,0.534,0.336,0.841,0.066c0.442-0.389,0.893-0.769,1.333-1.163c0.248-0.222,0.365-0.487,0.073-0.752
			c-1.135-1.033,0.312-1.288,0.59-1.869c0.268-0.561,0.735-0.819,1.292-0.228c0.159,0.169,0.402,0.264,0.578,0.039
			c0.472-0.611,0.993-1.205,1.344-1.883c0.272-0.522-0.47-0.519-0.663-0.828c-0.054-0.085-0.14-0.219-0.108-0.278
			c0.339-0.652,0.642-1.335,1.069-1.927c0.296-0.407,0.664,0.046,0.985,0.148c0.361,0.115,0.459-0.121,0.572-0.353
			c0.162-0.332,0.329-0.663,0.459-1.006c0.234-0.615,0.774-1.319-0.431-1.561c-0.366-0.075-0.25-0.379-0.172-0.63
			c0.152-0.493,0.317-0.985,0.439-1.486c0.099-0.396,0.281-0.609,0.692-0.419c0.708,0.327,0.905-0.069,1.017-0.661
			c0.089-0.471,0.214-0.935,0.329-1.401c0.084-0.33,0.059-0.587-0.353-0.644c-1.444-0.203-0.508-1.141-0.513-1.756
			c-0.006-0.683,0.184-1.262,1.103-0.918c0.337,0.126,0.457-0.089,0.503-0.39c0.054-0.364,0.138-0.725,0.19-1.09
			c0.095-0.646,0.441-1.233-0.71-1.514c-0.835-0.203-0.102-1.197-0.14-1.833c-0.032-0.531,0.182-0.858,0.798-0.692
			c0.559,0.148,0.707-0.166,0.742-0.644c0.036-0.515,0.105-1.027,0.166-1.539c0.033-0.266,0.083-0.591-0.281-0.594
			c-1.36-0.005-0.841-0.927-0.839-1.622c0.005-0.978,0.851-0.962,1.434-1.197c0.779-0.312,1.123,0.485,1.633,0.814
			c0.592,0.383-0.091,0.654-0.184,0.982c-0.038,0.132-0.136,0.354-0.091,0.389c0.606,0.479,1.205,0.98,1.864,1.378
			c0.556,0.335,0.598-0.351,0.878-0.567c0.086-0.064,0.225-0.181,0.267-0.155c0.629,0.379,1.279,0.734,1.852,1.189
			c0.438,0.345-0.069,0.646-0.208,0.943c-0.138,0.298-0.072,0.477,0.193,0.639c0.313,0.193,0.617,0.403,0.925,0.606
			c0.568,0.374,1.146,0.928,1.594-0.146c0.151-0.363,0.407-0.195,0.634-0.061c0.382,0.226,0.744,0.487,1.143,0.675
			c0.524,0.248,0.764,0.536,0.352,1.077c-0.301,0.391-0.167,0.653,0.256,0.859c0.498,0.241,0.975,0.525,1.46,0.792
			c0.288,0.159,0.556,0.226,0.728-0.154c0.636-1.4,1.312-0.112,1.952-0.006c0.633,0.106,0.977,0.465,0.575,1.16
			c-0.192,0.329-0.046,0.545,0.308,0.66c0.385,0.126,0.763,0.276,1.143,0.42c0.637,0.241,1.109,0.471,1.501-0.511
			c0.315-0.796,1.143-0.005,1.742,0.006c0.539,0.009,1.056,0.146,0.804,0.916c-0.165,0.503,0.134,0.653,0.563,0.693
			c0.402,0.04,0.808,0.085,1.208,0.141c0.616,0.085,1.222,0.191,1.147-0.772c-0.028-0.38,0.229-0.481,0.584-0.464
			c0.515,0.024,1.031,0.017,1.548,0.002c0.328-0.011,0.63,0.03,0.598,0.438c-0.079,1.039,0.613,0.984,1.217,0.776
			c0.625-0.216,1.964,0.508,1.657-1.112c-0.063-0.344,0.143-0.461,0.421-0.52c0.434-0.093,0.876-0.148,1.298-0.275
			c0.541-0.164,0.928-0.129,1.062,0.521c0.101,0.493,0.438,0.513,0.849,0.386c0.456-0.141,0.92-0.25,1.382-0.374
			c0.268-0.124,0.535-0.25,0.804-0.374c-0.154-0.437-0.766-0.915-0.248-1.32c0.553-0.435,1.274-0.754,1.964-0.871
			c0.462-0.081,0.538,0.687,0.897,0.977c0.334-0.156,0.669-0.311,1.005-0.467c0.095-0.109,0.172-0.248,0.288-0.319
			c0.609-0.377,1.478-0.63,0.588-1.579c-0.191-0.202-0.026-0.396,0.177-0.541c0.362-0.252,0.748-0.489,1.062-0.794
			c0.439-0.431,0.821-0.622,1.229,0.013c0.252,0.393,0.548,0.292,0.828,0.041c0.328-0.295,0.632-0.62,0.969-0.906
			c0.504-0.428,0.863-0.84,0.096-1.356c-0.347-0.234-0.229-0.463,0.013-0.72c0.376-0.405,0.73-0.831,1.075-1.262
			c0.154-0.195,0.344-0.375,0.542-0.178c0.968,0.965,1.283,0.021,1.659-0.579c0.376-0.596,1.293-1.26-0.044-1.853
			c-0.282-0.127-0.125-0.375-0.027-0.57c0.184-0.361,0.402-0.709,0.553-1.083c0.235-0.582,0.499-0.993,1.194-0.53
			c0.312,0.208,0.54,0.112,0.672-0.253c0.139-0.382,0.317-0.747,0.461-1.127c0.236-0.629,0.709-1.339-0.501-1.503
			c-0.276-0.038-0.378-0.279-0.226-0.494c0.503-0.71-0.252-2.444,1.639-2.039c0.055,0.011,0.164-0.041,0.183-0.089
			c0.322-0.763,0.369-1.581,0.403-2.386c0.027-0.652-0.603-0.343-0.921-0.498c-0.12-0.058-0.31-0.162-0.312-0.249
			c-0.013-0.735-0.067-1.484,0.047-2.205c0.076-0.479,0.641-0.17,0.956-0.307c0.095-0.042,0.253-0.094,0.26-0.155
			c0.095-0.814-0.023-1.622-0.204-2.407c-0.142-0.618-0.665-0.244-1.02-0.252c-0.294-0.005-0.379-0.161-0.426-0.396
			c-0.077-0.397-0.124-0.806-0.244-1.191c-0.18-0.582-0.297-1.081,0.53-1.234c0.429-0.079,0.476-0.382,0.333-0.763
			c-0.154-0.415-0.268-0.845-0.402-1.267c-0.182-0.568-0.384-1.076-1.139-0.612c-0.316,0.196-0.543,0.049-0.688-0.284
			c-0.205-0.474-0.424-0.943-0.653-1.405c-0.178-0.352-0.192-0.625,0.234-0.789c0.701-0.271,0.599-0.714,0.261-1.218
			c-0.264-0.399-0.518-0.808-0.756-1.224c-0.172-0.301-0.367-0.475-0.695-0.23c-1.229,0.922-1.218-0.535-1.724-0.933
			c-0.479-0.378-0.635-0.908,0.054-1.329c0.343-0.211,0.282-0.469,0.05-0.734c-0.34-0.387-0.683-0.774-1.012-1.172
			c-0.341-0.41-0.661-0.702-1.116-0.112c-0.291,0.375-0.597,0.317-0.912-0.033c-0.32-0.354-0.688-0.666-1.041-0.992
			c-0.234-0.218-0.402-0.428-0.127-0.744c1.061-1.207-0.436-1.304-0.843-1.835c-0.419-0.551-0.981-0.813-1.433,0.046
			c-0.095,0.18-0.256,0.302-0.445,0.179c-0.588-0.381-1.204-0.738-1.726-1.197c-0.445-0.395,0.19-0.689,0.235-1.055
			c0.013-0.101,0.025-0.269-0.027-0.302c-0.646-0.424-1.275-0.889-1.97-1.221c-0.574-0.276-0.541,0.432-0.805,0.667
			c-0.106,0.097-0.18,0.264-0.344,0.174c-0.646-0.351-1.336-0.655-1.909-1.104c-0.379-0.298,0.129-0.642,0.219-0.972
			c0.037-0.139,0.113-0.286-0.059-0.381c-0.68-0.368-1.337-0.811-2.058-1.069c-0.535-0.192-0.486,0.529-0.778,0.759
			c-0.076,0.061-0.206,0.146-0.261,0.119c-0.663-0.321-1.358-0.6-1.959-1.014c-0.419-0.291,0.116-0.63,0.157-0.96
			c0.012-0.105,0.057-0.267,0.005-0.313c-0.592-0.516-1.331-0.782-2.034-1.092c-0.615-0.273-0.541,0.423-0.779,0.679
			c-0.102,0.111-0.188,0.28-0.338,0.213c-0.672-0.303-1.378-0.566-1.979-0.977c-0.402-0.276,0.105-0.646,0.156-0.981
			c0.016-0.103,0.046-0.279,0.003-0.301c-0.68-0.364-1.349-0.756-2.063-1.042c-0.599-0.239-0.585,0.405-0.777,0.702
			c-0.171,0.265-0.354,0.208-0.561,0.119c-0.406-0.175-0.799-0.387-1.213-0.54c-0.58-0.215-0.882-0.504-0.479-1.134
			c0.242-0.379,0.053-0.592-0.324-0.747c-0.477-0.196-0.939-0.427-1.405-0.654c-0.38-0.184-0.721-0.235-0.866,0.273
			c-0.195,0.69-0.621,0.621-1.084,0.326c-0.652-0.417-2.055-0.319-1.261-1.775c0.027-0.052,0.005-0.187-0.033-0.207
			c-0.689-0.345-1.364-0.739-2.088-0.999c-0.597-0.215-0.54,0.452-0.74,0.746c-0.167,0.247-0.326,0.242-0.554,0.134
			c-0.367-0.171-0.729-0.361-1.113-0.491c-0.636-0.213-1.085-0.468-0.589-1.224c0.228-0.345,0.014-0.527-0.308-0.659
			c-0.445-0.18-0.893-0.361-1.314-0.586c-0.506-0.267-0.898-0.328-1.087,0.352c-0.133,0.485-0.434,0.5-0.84,0.299
			c-0.428-0.213-0.878-0.385-1.318-0.574c-0.288-0.125-0.548-0.265-0.362-0.652c0.698-1.459-0.797-1.12-1.313-1.542
			c-0.495-0.403-1.068-0.516-1.3,0.372c-0.102,0.387-0.396,0.362-0.708,0.221c-0.369-0.169-0.739-0.343-1.125-0.468
			c-0.587-0.193-0.914-0.467-0.499-1.105c0.251-0.386,0.057-0.593-0.316-0.734c-0.381-0.144-0.763-0.29-1.119-0.478
			c-0.597-0.315-1.105-0.471-1.317,0.417c-0.038,0.16-0.143,0.401-0.373,0.311c-0.688-0.266-1.407-0.495-2.022-0.882
			c-0.377-0.236,0.073-0.643,0.126-0.975c0.016-0.101,0.021-0.279-0.026-0.3c-0.692-0.337-1.382-0.698-2.105-0.958
			c-0.643-0.23-0.517,0.463-0.718,0.741c-0.208,0.285-0.406,0.249-0.662,0.137c-0.372-0.163-0.735-0.357-1.123-0.473
			c-0.609-0.184-0.909-0.472-0.537-1.112c0.24-0.414,0.015-0.595-0.353-0.73c-0.415-0.155-0.831-0.314-1.225-0.515
			c-0.551-0.28-0.962-0.313-1.151,0.418c-0.107,0.415-0.383,0.456-0.764,0.266c-0.427-0.214-0.879-0.389-1.335-0.535
			c-0.464-0.15-0.588-0.42-0.359-0.83c0.344-0.619,0.026-0.847-0.521-1.007c-0.353-0.103-0.709-0.234-1.022-0.42
			c-0.573-0.338-0.956-0.288-1.126,0.415c-0.104,0.435-0.36,0.47-0.734,0.298c-0.469-0.217-0.954-0.399-1.435-0.589
			c-0.319-0.128-0.495-0.318-0.321-0.677c0.6-1.235-0.603-1.075-1.117-1.353c-0.544-0.294-1.296-0.861-1.572,0.355
			c-0.078,0.349-0.341,0.315-0.607,0.202c-0.409-0.17-0.811-0.37-1.233-0.493c-0.568-0.163-0.831-0.424-0.51-1.018
			c0.2-0.373,0.047-0.574-0.313-0.775c-1.847-1.036-2.126-0.942-2.82,1.032c-0.024,0.069-0.044,0.142-0.077,0.208
			c-0.203,0.407-0.159,0.706,0.345,0.809c0.806,0.165,0.701,0.749,0.356,1.139c-0.396,0.451,0.088,1.785-1.205,1.331
			c-0.557-0.194-0.721,0.016-0.87,0.462c-0.116,0.349-0.27,0.687-0.419,1.023c-0.246,0.55-0.42,1.058,0.434,1.23
			c0.447,0.091,0.461,0.382,0.31,0.754c-0.182,0.442-0.35,0.894-0.494,1.352c-0.136,0.434-0.361,0.639-0.808,0.4
			c-0.611-0.328-0.854-0.018-1.009,0.537c-0.108,0.389-0.254,0.772-0.416,1.144c-0.201,0.467-0.264,0.836,0.374,0.999
			c0.969,0.246,0.447,0.904,0.221,1.284c-0.279,0.468,0.065,1.687-1.175,1.192c-0.543-0.216-0.733,0.042-0.868,0.493
			c-0.137,0.459-0.308,0.908-0.438,1.371c-0.063,0.221-0.319,0.582,0.021,0.669c1.564,0.405,0.538,1.321,0.42,2.033
			c-0.104,0.623-0.4,1.034-1.13,0.631c-0.349-0.191-0.54-0.004-0.651,0.329c-0.186,0.561-0.37,1.122-0.58,1.674
			c-0.136,0.36-0.028,0.559,0.326,0.665c1.334,0.402,0.34,1.17,0.231,1.752c-0.101,0.531-0.213,1.28-1.12,0.801
			c-0.406-0.213-0.6-0.004-0.717,0.379c-0.12,0.388-0.26,0.772-0.422,1.144c-0.262,0.603-0.426,1.138,0.509,1.264
			c0.166,0.021,0.409,0.122,0.337,0.351c-0.22,0.702-0.409,1.43-0.748,2.075c-0.234,0.448-0.648-0.041-0.985-0.048
			c-0.102-0.003-0.274-0.004-0.292,0.043c-0.294,0.753-0.64,1.5-0.815,2.283c-0.108,0.488,0.494,0.43,0.796,0.573
			c0.338,0.161,0.259,0.387,0.174,0.642c-0.131,0.385-0.275,0.767-0.38,1.158c-0.155,0.576-0.383,0.958-1.066,0.6
			c-0.396-0.207-0.606-0.002-0.724,0.383c-0.163,0.531-0.335,1.058-0.524,1.576c-0.146,0.399-0.025,0.614,0.372,0.752
			c1.376,0.479,0.194,1.26,0.177,1.882c-0.019,0.632-0.374,1.015-1.095,0.655c-0.44-0.222-0.584,0.073-0.688,0.432
			c-0.09,0.319-0.202,0.632-0.304,0.949c-0.199,0.615-0.516,1.102,0.487,1.517c0.793,0.329-0.045,1.128-0.119,1.714
			c-0.067,0.518-0.254,1.047-1.001,0.685c-0.46-0.225-0.661,0.005-0.774,0.449c-0.127,0.499-0.321,0.981-0.469,1.476
			c-0.084,0.281-0.205,0.609,0.223,0.721c1.573,0.414,0.348,1.329,0.337,2c-0.013,0.781-0.501,0.866-1.138,0.585
			c-0.109-0.048-0.372-0.015-0.393,0.042c-0.261,0.728-0.548,1.452-0.715,2.204c-0.138,0.63,0.525,0.468,0.832,0.64
			c0.318,0.18,0.247,0.392,0.169,0.647c-0.117,0.388-0.251,0.774-0.326,1.173c-0.116,0.619-0.36,0.947-1.043,0.634
			c-0.317-0.146-0.561-0.056-0.658,0.328c-0.146,0.572-0.317,1.138-0.483,1.705c-0.092,0.315-0.106,0.582,0.305,0.679
			c1.506,0.353,0.381,1.263,0.369,1.909c-0.009,0.623-0.294,1.06-1.056,0.721c-0.352-0.156-0.542,0.025-0.622,0.384
			c-0.104,0.468-0.219,0.937-0.367,1.392c-0.19,0.587-0.152,1.004,0.59,1.076c0.469,0.045,0.479,0.351,0.377,0.725
			c-0.125,0.461-0.236,0.929-0.335,1.399c-0.079,0.381-0.248,0.642-0.673,0.484c-0.717-0.268-0.903,0.114-0.983,0.719
			c-0.063,0.473-0.179,0.941-0.287,1.411c-0.077,0.338-0.042,0.606,0.374,0.617c0.785,0.022,0.978,0.485,0.688,1.084
			c-0.28,0.581,0.494,1.873-1.046,1.653c-0.385-0.056-0.535,0.148-0.554,0.504c-0.03,0.589-0.061,1.178-0.099,1.768
			c-0.021,0.313-0.017,0.685,0.4,0.618c1.154-0.187,0.948,0.629,0.92,1.241c-0.022,0.481,0.316,1.345-0.198,1.391
			c-1.572,0.138-0.927,1.136-0.909,1.902c0.016,0.71,0.105,1.371,1.122,1.073c0.241-0.071,0.399,0.077,0.448,0.351
			c0.098,0.544,0.225,1.082,0.338,1.625c0.065,0.318,0.043,0.629-0.345,0.684c-0.929,0.132-0.695,0.698-0.563,1.297
			c0.076,0.336,0.398,0.656,0.146,1.041c0.124,0.268,0.249,0.536,0.374,0.804c0.438-0.136,0.993-0.684,1.28-0.335
			c0.464,0.568,0.771,1.341,0.913,2.071C165.05,190.173,164.324,190.254,163.971,190.534z"/>
	</g>
	<circle fill="#FFFFFF" cx="187.012" cy="177.025" r="9.722"/>
	<path fill="#FFFFFF" d="M235.917,140.773c-7.397,2.779-11.142,11.03-8.362,18.425c2.78,7.398,11.031,11.14,18.428,8.361
		c7.397-2.781,11.141-11.03,8.359-18.426C251.563,141.734,243.313,137.994,235.917,140.773z M247.442,151.726
		c1.349,3.585-0.467,7.586-4.052,8.934c-3.589,1.347-7.588-0.467-8.937-4.054c-1.346-3.585,0.47-7.584,4.055-8.933
		C242.095,146.326,246.095,148.141,247.442,151.726z"/>
	<path display="none" fill="#FFFFFF" d="M194.013,130.45c-4.997,3.182-7.267,9.527-5.099,15.297
		c2.487,6.617,9.868,9.965,16.485,7.479c0.862-0.324,1.666-0.735,2.411-1.212l2.537,3.836l0.445,7.08
		c-0.49,0.224-0.996,0.436-1.511,0.628c-1.26,0.475-2.536,0.833-3.815,1.083l-3.722-5.995l-3.123,6.332
		c-1.874-0.181-3.707-0.584-5.467-1.188l-0.226-7.051l-5.87,3.919c-1.512-1.076-2.906-2.332-4.143-3.755l3.332-6.226l-7.04,0.462
		c-0.225-0.494-0.436-0.997-0.629-1.511c-0.473-1.259-0.831-2.534-1.084-3.817l5.996-3.722l-6.331-3.123
		c0.183-1.87,0.581-3.705,1.187-5.463l7.052-0.229l-3.921-5.867c1.076-1.514,2.336-2.907,3.756-4.145l6.225,3.33L194.013,130.45z"/>
	<g display="none">
		<path display="inline" fill="#FFFFFF" d="M188.207,142.922"/>
		<path display="inline" fill="#FFFFFF" d="M188.272,143.394"/>
		<path display="inline" fill="#FFFFFF" d="M218.868,125.589l-3.331,6.224l7.035-0.462c0.227,0.493,0.438,0.998,0.632,1.513
			c0.474,1.26,0.833,2.535,1.083,3.813l-5.996,3.722l6.331,3.125c-0.179,1.871-0.579,3.706-1.186,5.465l-7.052,0.228l3.921,5.867
			c-1.077,1.512-2.335,2.905-3.757,4.144l-6.224-3.333l-2.521-3.875c0,0-0.003,0.001-0.004,0c4.979-3.188,7.234-9.518,5.072-15.274
			c-2.487-6.62-9.868-9.968-16.486-7.481c-1.215,0.457-2.38,1.19-2.38,1.19l-2.57-3.874l-0.442-7.023
			c0.493-0.222,0.994-0.432,1.51-0.626c1.26-0.473,2.534-0.832,3.814-1.083l3.722,5.994l3.125-6.329
			c1.87,0.18,3.705,0.58,5.465,1.185l0.227,7.052l5.868-3.92C216.237,122.906,217.629,124.165,218.868,125.589z"/>
		<path display="inline" fill="#FFFFFF" d="M206.66,152.673c-0.008,0.004-0.014,0.007-0.02,0.01
			C206.646,152.681,206.652,152.677,206.66,152.673z"/>
	</g>
</g>
<path fill="none" stroke="#FFFFFF" stroke-width="4" stroke-linecap="round" stroke-miterlimit="10" d="M255.314,300.387
	c0.533-2.205-4.858-13.298-16.106-13.937c-11.249-0.639-14.361,15.521-13.234,17.037c3.387,1.858,9.587-1.701,12.971-2.241
	C242.432,300.69,252.192,304.097,255.314,300.387z"/>
<g>
	<g>
		<polygon fill="#858585" points="346.83,91.898 347.839,71.118 355.592,69.134 359.345,87.809 		"/>
	</g>
	<g>
		<polygon fill="#858585" points="316.653,165.837 344.406,127.018 346.281,95.727 373.551,89.525 385.62,99.151 391.902,107.635 
			394.192,117.128 369.339,140.1 323.411,228.542 		"/>
	</g>
	<g>
		<polygon fill="#858585" points="386.721,95.219 393.117,102.084 407.723,84.933 400.764,78.334 		"/>
	</g>
	<g>
		<polygon fill="#858585" points="394.04,104.924 398.264,111.256 409.713,98.217 407.589,92.792 		"/>
	</g>
	<g>
		<polygon fill="#858585" points="383.761,67.65 375.187,85.965 383.757,89.907 393.021,72.218 		"/>
	</g>
</g>
</svg>
