<?xml version="1.0" encoding="utf-8"?>
<!-- Generator: Adobe Illustrator 16.0.0, SVG Export Plug-In . SVG Version: 6.00 Build 0)  -->
<!DOCTYPE svg PUBLIC "-//W3C//DTD SVG 1.1//EN" "http://www.w3.org/Graphics/SVG/1.1/DTD/svg11.dtd">
<svg version="1.1" id="圖層_1" xmlns="http://www.w3.org/2000/svg" xmlns:xlink="http://www.w3.org/1999/xlink" x="0px" y="0px"
	 width="350px" height="700px" viewBox="0 0 350 700" enable-background="new 0 0 350 700" xml:space="preserve">
<g>
	<polygon fill="#858585" points="310.188,382.894 254.707,324.566 237.613,375.223 276.74,401.807 	"/>
	<polygon fill="#858585" points="38.318,387.322 73.857,327.218 102.902,372.103 62.188,417.673 	"/>
	<polygon fill="#9B9A9A" points="66.396,305.282 71.656,321.71 254.273,319.329 257.854,305.673 	"/>
	<polygon fill="#9B9A9A" points="58.602,125.457 39.277,265.25 65.188,301.12 258.213,301.877 288.875,259.986 258.799,123.11 	"/>
	<polygon fill="#9B9A9A" points="140.557,25.644 156.523,16.881 163.676,55.896 258.092,118.889 58.76,119.654 137.592,63.19 	"/>
	<polygon fill="#9B9A9A" points="73.344,326.149 255.039,323.64 276.646,543.663 63.68,545.319 	"/>
	<g>
		<polygon fill="#858585" points="221.738,305.6 229.627,319.65 254.273,319.329 257.854,305.673 		"/>
		<path fill="#858585" d="M216.334,124.47l42.465-1.36l30.076,136.876l-30.662,41.891l-41.205-1.154c0,0,7.76-16.859,19.906-72.966
			C247.781,177.559,216.334,124.47,216.334,124.47z"/>
		<polygon fill="#858585" points="234.049,323.951 230.314,543.719 276.646,543.663 255.039,323.64 		"/>
		<polygon fill="#858585" points="149.174,20.915 153.275,60.528 217.475,119.111 258.092,118.889 163.676,55.896 156.523,16.881 		
			"/>
	</g>
	<polygon fill="#FFFFFF" points="149.416,229.325 172.029,225.666 178.518,258.878 147.662,262.104 	"/>
	<polygon fill="#858585" points="122.73,554.104 147.453,550.456 155.045,661.493 111.328,669.154 109.422,650.984 131.664,647.063 
			"/>
	<polygon fill="#858585" points="191.857,550.026 214.965,554.201 208.914,652.352 232.301,653.314 225.186,669.306 
		187.234,663.912 	"/>
	<path fill="#FFFFFF" d="M125.723,220.785c-2.412,17.537-10.465,27.58-26.955,28.646c-12.564,0.813-24.377-9.5-21.965-27.037
		s18.225-38.186,30.701-36.471C119.98,187.641,128.137,203.248,125.723,220.785z"/>
	<path fill="#FFFFFF" d="M198.516,215.595c2.797,17.479,11.066,27.342,27.578,28.046c12.584,0.536,24.162-10.034,21.365-27.514
		c-2.799-17.479-19.063-37.776-31.496-35.786C203.529,182.332,195.719,198.115,198.516,215.595z"/>
	<path fill="none" stroke="#FFFFFF" stroke-width="4" stroke-linecap="round" stroke-miterlimit="10" d="M97.027,264.084
		c3.451,1.831,23.996,22.344,58.539,24.884c36.936,2.715,70.863-18.337,74.605-19.787"/>
	<polygon fill="#5E5E5E" points="90.814,343.909 236.543,344.752 255.355,486.453 84.852,488.045 	"/>
	<g>
		<g>
			<path opacity="0.9" fill-rule="evenodd" clip-rule="evenodd" fill="#45B19C" d="M117.061,396.38
				c0.033-0.96,0.068-1.92,0.104-2.88c0.502-0.07,1.207,0.418,1.453,0.015c0.367-0.598,0.445-1.394,0.557-2.118
				c0.084-0.558-0.488-0.426-0.785-0.564c-0.301-0.142-0.338-0.357-0.254-0.636c0.119-0.386,0.23-0.777,0.363-1.16
				c0.219-0.622,0.35-1.381,1.324-0.805c0.303,0.18,0.467-0.089,0.584-0.328c0.227-0.465,0.414-0.947,0.66-1.397
				c0.201-0.363,0.195-0.65-0.205-0.805c-0.742-0.287-0.557-0.715-0.229-1.193c0.291-0.427,0.574-0.859,0.85-1.295
				c0.197-0.305,0.439-0.409,0.711-0.131c0.584,0.598,1.012,0.288,1.258-0.278c0.26-0.595,1.662-0.917,0.51-1.893
				c-0.217-0.183-0.344-0.389-0.08-0.642c0.535-0.509,1.061-1.026,1.598-1.531c0.141-0.13,0.318-0.229,0.459-0.001
				c0.758,1.22,1.299,0.212,1.889-0.185c0.529-0.354,1.111-0.686,0.426-1.43c-0.287-0.308-0.01-0.534,0.248-0.703
				c0.34-0.224,0.688-0.434,1.029-0.651c0.545-0.349,1.08-0.746,1.441,0.224c0.143,0.383,0.443,0.274,0.736,0.126
				c0.393-0.205,0.791-0.405,1.207-0.555c0.51-0.182,0.758-0.438,0.428-0.97c-0.313-0.506-0.041-0.723,0.414-0.866
				c0.387-0.122,0.768-0.264,1.148-0.4c0.592-0.212,1.148-0.392,1.271,0.54c0.051,0.386,0.354,0.412,0.678,0.327
				c0.393-0.101,0.785-0.24,1.184-0.279c0.631-0.061,0.961-0.261,0.746-0.97c-0.123-0.41,0.096-0.603,0.521-0.629
				c0.516-0.031,1.025-0.133,1.537-0.159c0.268-0.013,0.754-0.161,0.754,0.207c-0.008,1.594,1.176,0.905,1.904,1.028
				c0.523,0.09,1.068,0.055,0.988-0.749c-0.043-0.435,0.195-0.595,0.611-0.54c0.584,0.077,1.168,0.161,1.754,0.219
				c0.414,0.042,0.564,0.218,0.523,0.646c-0.137,1.398,1.107,0.786,1.697,1.119c0.52,0.293,0.904,0.153,1.008-0.516
				c0.066-0.412,0.361-0.519,0.748-0.39c0.559,0.187,1.123,0.362,1.682,0.554c0.313,0.109,0.523,0.307,0.359,0.665
				c-0.643,1.392,0.787,1.065,1.27,1.493c0.467,0.412,0.998,0.468,1.279-0.294c0.082-0.218,0.268-0.4,0.518-0.26
				c0.672,0.38,1.385,0.725,1.971,1.213c0.455,0.375-0.23,0.66-0.289,1.02c-0.016,0.1-0.043,0.257,0.01,0.299
				c0.564,0.47,1.109,0.98,1.732,1.359c0.432,0.261,0.596-0.3,0.85-0.52c0.289-0.246,0.471-0.067,0.664,0.103
				c0.279,0.244,0.563,0.483,0.816,0.748c0.455,0.477,1.225,0.915,0.209,1.607c-0.307,0.211-0.082,0.445,0.088,0.647
				c0.33,0.395,0.674,0.783,0.982,1.197c0.244,0.327,0.496,0.452,0.801,0.119c0.525-0.578,0.859-0.289,1.193,0.212
				c0.266,0.399,0.561,0.778,0.85,1.162c0.203,0.272,0.279,0.519-0.076,0.731c-1.252,0.749-0.023,1.247,0.211,1.817
				c0.26,0.631,0.658,1.091,1.373,0.417c0.26-0.247,0.453-0.096,0.613,0.164c0.191,0.314,0.41,0.613,0.602,0.93
				c0.338,0.559,0.885,0.965-0.066,1.671c-0.691,0.512,0.373,1.142,0.584,1.743c0.176,0.502,0.502,0.721,1.004,0.327
				c0.457-0.354,0.715-0.122,0.934,0.305c0.234,0.459,0.496,0.905,0.752,1.354c0.133,0.232,0.307,0.512-0.029,0.656
				c-1.25,0.534-0.414,1.182-0.141,1.821c0.383,0.898,1.156,0.555,1.785,0.544c0.84-0.016,0.846-0.882,1.188-1.385
				c0.398-0.583-0.338-0.567-0.551-0.833c-0.086-0.107-0.262-0.272-0.234-0.324c0.371-0.677,0.729-1.37,1.182-1.994
				c0.381-0.525,0.688,0.091,1.029,0.182c0.104,0.025,0.277,0.078,0.307,0.038c0.43-0.594,0.893-1.173,1.242-1.815
				c0.268-0.487-0.314-0.567-0.559-0.788c-0.242-0.221-0.252-0.412-0.07-0.664c0.215-0.3,0.412-0.611,0.617-0.918
				c0.379-0.566,0.695-1.301,1.523-0.485c0.281,0.275,0.451,0.021,0.609-0.19c0.264-0.357,0.494-0.739,0.789-1.066
				c0.387-0.433,0.494-0.791-0.096-1.128c-0.428-0.244-0.406-0.537-0.096-0.892c0.363-0.416,0.691-0.863,1.035-1.297
				c0.205-0.258,0.424-0.425,0.732-0.141c1.127,1.042,1.25-0.406,1.799-0.754c0.541-0.344,0.719-0.808,0.08-1.293
				c-0.305-0.228-0.254-0.483,0.027-0.726c0.305-0.267,0.596-0.552,0.889-0.832c0.492-0.471,0.84-0.864,1.582-0.113
				c0.6,0.611,1.055-0.439,1.604-0.682c0.492-0.219,0.914-0.545,0.383-1.156c-0.348-0.399-0.131-0.653,0.248-0.858
				c0.357-0.192,0.713-0.393,1.061-0.6c0.535-0.317,1.049-0.651,1.355,0.265c0.123,0.362,0.4,0.354,0.719,0.201
				c0.467-0.223,0.945-0.416,1.426-0.604c0.309-0.118,0.57-0.273,0.381-0.637c-0.477-0.925,0.182-1.145,0.818-1.188
				c0.66-0.044,1.613-1.23,1.961,0.38c0.074,0.341,0.309,0.37,0.588,0.315c0.436-0.084,0.865-0.205,1.303-0.251
				c0.563-0.06,0.906-0.243,0.777-0.893c-0.1-0.494,0.203-0.643,0.631-0.686c0.475-0.048,0.945-0.127,1.418-0.192
				c0.295,0.011,0.59,0.021,0.887,0.031c0.027,0.462-0.35,1.141,0.283,1.313c0.68,0.185,1.469,0.199,2.15,0.039
				c0.455-0.105,0.229-0.843,0.445-1.249c0.369,0.014,0.738,0.026,1.107,0.04c0.129,0.063,0.256,0.16,0.389,0.182
				c0.709,0.109,1.609,0.007,1.156,1.226c-0.098,0.261,0.129,0.374,0.373,0.429c0.434,0.092,0.879,0.161,1.287,0.32
				c0.572,0.226,0.998,0.254,1.127-0.49c0.078-0.459,0.391-0.482,0.746-0.358c0.418,0.144,0.824,0.325,1.246,0.457
				c0.631,0.199,1.121,0.439,0.615,1.213c-0.229,0.351-0.031,0.515,0.291,0.659c0.504,0.226,0.996,0.48,1.482,0.744
				c0.217,0.119,0.463,0.212,0.568-0.047c0.516-1.266,1.174-0.519,1.754-0.112c0.578,0.403,1.68,0.658,0.68,1.725
				c-0.211,0.226,0.029,0.394,0.195,0.535c0.311,0.261,0.646,0.497,0.932,0.783c0.441,0.443,0.846,0.721,1.305,0.023
				c0.207-0.312,0.455-0.313,0.719-0.027c0.275,0.298,0.582,0.564,0.863,0.859c0.461,0.487,1.174,0.958,0.123,1.579
				c-0.24,0.142-0.24,0.404-0.016,0.544c0.74,0.459,0.719,2.349,2.303,1.24c0.045-0.032,0.166-0.025,0.203,0.012
				c0.594,0.577,0.953,1.313,1.299,2.042c0.277,0.589-0.422,0.55-0.656,0.816c-0.088,0.1-0.221,0.27-0.188,0.35
				c0.273,0.684,0.514,1.395,0.9,2.015c0.254,0.412,0.654-0.092,0.998-0.09c0.104,0.002,0.27-0.011,0.301,0.042
				c0.402,0.714,0.607,1.503,0.748,2.297c0.109,0.625-0.52,0.484-0.844,0.629c-0.268,0.12-0.285,0.295-0.236,0.53
				c0.082,0.396,0.199,0.79,0.238,1.192c0.059,0.605,0.146,1.111,0.967,0.931c0.426-0.094,0.586,0.167,0.605,0.572
				c0.018,0.442,0.082,0.884,0.119,1.324c0.055,0.594,0.066,1.141-0.811,1.006c-0.367-0.057-0.518,0.166-0.521,0.529
				c-0.006,0.517-0.025,1.034-0.057,1.55c-0.027,0.393,0.066,0.649,0.523,0.635c0.75-0.022,0.828,0.425,0.713,1.021
				c-0.088,0.471-0.162,0.946-0.219,1.422c-0.043,0.345-0.154,0.581-0.553,0.481c-1.488-0.371-0.914,0.967-1.225,1.531
				c-0.293,0.534-0.232,1.083,0.566,1.204c0.398,0.061,0.443,0.321,0.332,0.656c-0.164,0.488-0.328,0.979-0.477,1.474
				c-0.156,0.51-0.338,0.903-0.986,0.536c-0.414-0.232-0.672-0.059-0.826,0.385c-0.158,0.452-0.377,0.881-0.574,1.318
				c-0.131,0.293-0.205,0.552,0.172,0.736c1.447,0.699,0.105,1.37-0.063,2.019c-0.172,0.67-0.588,1.129-1.338,0.513
				c-0.158-0.127-0.354-0.178-0.48,0.01c-0.393,0.58-0.822,1.147-1.123,1.773c-0.258,0.537,0.441,0.561,0.625,0.88
				c0.053,0.087,0.129,0.237,0.094,0.29c-0.432,0.642-0.83,1.313-1.34,1.89c-0.422,0.478-0.666-0.188-1.002-0.301
				c-0.135-0.049-0.268-0.174-0.385-0.027c-0.459,0.575-0.975,1.122-1.328,1.76c-0.234,0.423,0.367,0.541,0.58,0.811
				c0.086,0.112,0.213,0.22,0.094,0.374c-0.484,0.603-0.916,1.266-1.48,1.783c-0.418,0.388-0.654-0.297-1.014-0.396
				c-0.092-0.026-0.244-0.054-0.285-0.007c-0.486,0.553-1.02,1.08-1.41,1.695c-0.273,0.431,0.354,0.535,0.518,0.824
				c0.053,0.092,0.156,0.223,0.127,0.285c-0.346,0.705-0.924,1.238-1.449,1.798c-0.461,0.49-0.664-0.18-0.982-0.323
				c-0.137-0.063-0.281-0.185-0.395-0.064c-0.502,0.54-1.049,1.056-1.443,1.669c-0.264,0.41,0.348,0.554,0.525,0.843
				c0.055,0.089,0.15,0.239,0.119,0.276c-0.484,0.599-0.949,1.221-1.494,1.761c-0.459,0.453-0.697-0.146-0.988-0.344
				c-0.262-0.177-0.408-0.055-0.564,0.108c-0.305,0.32-0.584,0.668-0.906,0.969c-0.451,0.425-0.617,0.808-0.002,1.232
				c0.373,0.255,0.279,0.525-0.008,0.813c-0.363,0.365-0.699,0.76-1.039,1.149c-0.279,0.318-0.574,0.497-0.904,0.084
				c-0.449-0.56-0.814-0.33-1.127,0.121c-0.439,0.639-1.768,1.094-0.471,2.128c0.045,0.035,0.078,0.168,0.051,0.201
				c-0.502,0.587-0.971,1.212-1.535,1.732c-0.467,0.431-0.676-0.206-0.973-0.399c-0.25-0.161-0.396-0.095-0.563,0.092
				c-0.273,0.3-0.533,0.617-0.836,0.885c-0.502,0.444-0.816,0.854-0.064,1.358c0.344,0.229,0.217,0.48-0.027,0.727
				c-0.342,0.338-0.682,0.68-0.984,1.052c-0.363,0.441-0.701,0.65-1.139,0.098c-0.311-0.395-0.594-0.292-0.889,0.052
				c-0.311,0.362-0.66,0.696-0.992,1.042c-0.215,0.227-0.402,0.456-0.08,0.74c1.211,1.074-0.299,1.343-0.609,1.932
				c-0.299,0.564-0.783,0.891-1.342,0.164c-0.244-0.318-0.506-0.182-0.738,0.071c-0.275,0.299-0.549,0.603-0.854,0.868
				c-0.469,0.406-0.662,0.785-0.031,1.213c0.381,0.258,0.283,0.524-0.008,0.799c-0.293,0.279-0.59,0.563-0.844,0.875
				c-0.428,0.523-0.836,0.864-1.377,0.129c-0.096-0.133-0.285-0.314-0.463-0.141c-0.531,0.512-1.104,1.002-1.521,1.598
				c-0.256,0.365,0.318,0.563,0.496,0.851c0.053,0.086,0.129,0.248,0.092,0.287c-0.506,0.578-1,1.179-1.566,1.7
				c-0.502,0.461-0.656-0.227-0.949-0.404c-0.303-0.182-0.473-0.071-0.664,0.132c-0.279,0.295-0.539,0.615-0.852,0.872
				c-0.49,0.405-0.652,0.787-0.063,1.232c0.383,0.288,0.246,0.543-0.039,0.811c-0.324,0.303-0.645,0.611-0.93,0.95
				c-0.398,0.472-0.764,0.663-1.223,0.062c-0.26-0.34-0.529-0.271-0.807,0.053c-0.311,0.363-0.66,0.7-1.023,1.012
				c-0.369,0.318-0.377,0.615-0.008,0.904c0.557,0.436,0.354,0.77-0.09,1.131c-0.285,0.23-0.561,0.491-0.777,0.784
				c-0.396,0.534-0.77,0.636-1.199,0.055c-0.266-0.358-0.516-0.293-0.793,0.012c-0.348,0.382-0.725,0.738-1.092,1.1
				c-0.244,0.243-0.334,0.486-0.035,0.748c1.035,0.904-0.135,1.226-0.502,1.681c-0.387,0.482-0.857,1.298-1.586,0.284
				c-0.209-0.292-0.438-0.158-0.639,0.05c-0.311,0.316-0.604,0.655-0.945,0.934c-0.461,0.372-0.6,0.714-0.074,1.136
				c0.33,0.265,0.268,0.511,0.014,0.836c-1.299,1.672-1.594,1.694-3,0.146c-0.051-0.054-0.096-0.114-0.15-0.162
				c-0.346-0.296-0.424-0.587,0.002-0.88c0.678-0.465,0.354-0.961-0.113-1.188c-0.543-0.261-0.615-1.678-1.629-0.758
				c-0.438,0.396-0.67,0.267-0.98-0.086c-0.244-0.276-0.518-0.528-0.785-0.78c-0.441-0.411-0.797-0.812-0.078-1.302
				c0.377-0.257,0.277-0.532-0.008-0.814c-0.34-0.338-0.67-0.688-0.982-1.054c-0.293-0.348-0.582-0.449-0.898-0.055
				c-0.436,0.54-0.781,0.349-1.137-0.103c-0.254-0.316-0.535-0.612-0.83-0.892c-0.367-0.352-0.568-0.668-0.045-1.065
				c0.799-0.604,0.063-1.007-0.293-1.269c-0.439-0.323-0.598-1.58-1.547-0.642c-0.416,0.41-0.693,0.247-0.99-0.116
				c-0.307-0.37-0.639-0.718-0.938-1.094c-0.145-0.179-0.521-0.411-0.242-0.624c1.283-0.981-0.018-1.426-0.404-2.035
				c-0.336-0.533-0.77-0.798-1.285-0.143c-0.248,0.313-0.496,0.214-0.729-0.05c-0.389-0.444-0.777-0.889-1.186-1.316
				c-0.266-0.278-0.244-0.504,0.041-0.739c1.074-0.89-0.141-1.211-0.467-1.704c-0.299-0.449-0.693-1.096-1.344-0.303
				c-0.291,0.354-0.551,0.236-0.809-0.07c-0.26-0.312-0.537-0.61-0.832-0.891c-0.477-0.453-0.836-0.883-0.023-1.361
				c0.145-0.085,0.33-0.271,0.174-0.455c-0.475-0.562-0.932-1.157-1.494-1.62c-0.393-0.322-0.582,0.289-0.891,0.428
				c-0.092,0.041-0.25,0.109-0.285,0.074c-0.564-0.58-1.172-1.133-1.639-1.787c-0.289-0.408,0.287-0.588,0.51-0.838
				c0.25-0.279,0.088-0.457-0.09-0.658c-0.27-0.304-0.553-0.599-0.799-0.918c-0.367-0.472-0.725-0.734-1.217-0.14
				c-0.283,0.345-0.557,0.239-0.814-0.07c-0.355-0.425-0.719-0.845-1.096-1.248c-0.291-0.311-0.262-0.557,0.051-0.838
				c1.08-0.977-0.313-1.235-0.57-1.803c-0.262-0.575-0.738-0.789-1.264-0.177c-0.318,0.374-0.566,0.159-0.801-0.13
				c-0.207-0.261-0.432-0.505-0.648-0.758c-0.424-0.489-0.902-0.815-0.141-1.588c0.604-0.611-0.48-1.021-0.777-1.532
				c-0.264-0.45-0.641-0.866-1.188-0.24c-0.336,0.386-0.611,0.25-0.887-0.113c-0.313-0.41-0.678-0.78-1.008-1.178
				c-0.186-0.226-0.424-0.481-0.074-0.751c1.287-0.994-0.195-1.359-0.467-1.974c-0.316-0.714-0.799-0.603-1.275-0.097
				c-0.082,0.087-0.338,0.158-0.379,0.114c-0.523-0.569-1.07-1.125-1.516-1.754c-0.371-0.526,0.301-0.635,0.518-0.913
				c0.225-0.289,0.076-0.456-0.096-0.661c-0.258-0.313-0.533-0.615-0.756-0.953c-0.348-0.525-0.701-0.733-1.207-0.179
				c-0.236,0.258-0.496,0.268-0.734-0.047c-0.357-0.471-0.736-0.924-1.107-1.383c-0.209-0.254-0.326-0.494,0.016-0.744
				c1.248-0.91-0.141-1.312-0.402-1.902c-0.25-0.57-0.684-0.86-1.252-0.252c-0.266,0.279-0.51,0.187-0.725-0.112
				c-0.277-0.392-0.564-0.778-0.877-1.141c-0.404-0.466-0.531-0.865,0.125-1.22c0.412-0.225,0.305-0.511,0.064-0.814
				c-0.295-0.377-0.578-0.766-0.854-1.159c-0.221-0.32-0.477-0.496-0.807-0.185c-0.557,0.525-0.877,0.246-1.186-0.28
				c-0.244-0.411-0.531-0.798-0.813-1.188c-0.203-0.281-0.275-0.542,0.104-0.714c0.715-0.325,0.711-0.826,0.211-1.267
				c-0.484-0.427-0.271-1.917-1.605-1.115c-0.334,0.199-0.551,0.071-0.705-0.249c-0.258-0.531-0.516-1.063-0.779-1.59
				c-0.141-0.281-0.281-0.625,0.129-0.726c1.137-0.276,0.629-0.948,0.365-1.5c-0.207-0.436-0.232-1.363-0.725-1.206
				c-1.502,0.484-1.295-0.687-1.578-1.398c-0.26-0.661-0.436-1.304,0.617-1.425c0.25-0.028,0.34-0.226,0.279-0.497
				c-0.123-0.539-0.217-1.084-0.322-1.629c-0.063-0.318-0.205-0.597-0.584-0.496c-0.906,0.239-0.912-0.373-1.023-0.978
				c-0.061-0.339,0.111-0.759-0.27-1.015c0.01-0.296,0.021-0.591,0.031-0.888c0.457-0.045,1.182,0.244,1.311-0.189
				c0.207-0.703,0.189-1.535,0.035-2.262C118.193,396.293,117.494,396.501,117.061,396.38z"/>
		</g>
		<path fill="#FFFFFF" d="M194.061,428.121c0.018-0.542,0.016-1.089-0.006-1.64c-0.053-1.346-0.219-2.659-0.484-3.935l-6.971-1.098
			l4.617-5.341c-0.893-1.654-1.975-3.189-3.219-4.574l-6.584,2.533l1.33-6.932c-1.578-0.974-3.279-1.769-5.072-2.356l-4.42,5.467
			l-2.322-6.641c-0.539-0.015-1.088-0.013-1.637,0.009c-1.344,0.054-2.66,0.22-3.938,0.485l-1.098,6.972l-5.338-4.619
			c-1.654,0.895-3.188,1.979-4.574,3.221l2.533,6.583l-6.932-1.329c-0.975,1.579-1.771,3.278-2.355,5.071l5.488,4.44l-6.664,2.311
			c-0.016,0.543-0.014,1.088,0.006,1.637c0.055,1.344,0.221,2.658,0.486,3.938l6.973,1.098l-4.619,5.339
			c0.895,1.651,1.977,3.188,3.217,4.573l6.586-2.532l-1.33,6.931c1.578,0.976,3.281,1.77,5.072,2.357l4.422-5.466l2.322,6.641
			c0.541,0.013,1.084,0.011,1.635-0.011c1.344-0.054,2.658-0.219,3.936-0.486l1.098-6.969l5.34,4.616
			c1.654-0.893,3.188-1.976,4.574-3.217l-2.533-6.586l6.932,1.331c0.977-1.579,1.77-3.279,2.357-5.073l-5.49-4.439L194.061,428.121z
			 M170.746,440.225c-1.297,0.052-2.658-0.172-2.658-0.172l0,0c-5.836-0.991-10.387-5.953-10.635-12.108
			c-0.281-7.064,5.217-13.019,12.281-13.3c0.918-0.037,1.816,0.029,2.688,0.178c5.822,1.005,10.359,5.957,10.604,12.1
			C183.309,433.987,177.809,439.941,170.746,440.225z"/>
		<path fill="#FFFFFF" d="M150.633,395.693c0.004-0.157-0.006-0.312-0.01-0.468l-3.465-1.348l2.271-3.184
			c-0.385-0.705-0.85-1.36-1.389-1.948l-3.752,1.274l-0.309-3.938c-0.748-0.256-1.541-0.412-2.361-0.48l-2.006,3.305l-2.564-2.607
			c-0.813,0.335-1.576,0.771-2.266,1.304l0.531,3.459l-3.193-0.308c-0.453,0.845-0.785,1.763-0.977,2.734l2.264,1.985l-2.32,1.594
			c0.18,1.051,0.533,2.043,1.021,2.956l2.674,0.058l-0.697,2.513c0.779,0.727,1.674,1.334,2.658,1.779l2.055-1.647l1.125,2.467
			c0.191,0.018,0.381,0.041,0.574,0.047c0.869,0.025,1.709-0.073,2.516-0.261l0.559-2.808l2.793,1.331
			c0.787-0.543,1.492-1.196,2.092-1.942l-1.582-2.884l3.467-0.896C150.508,397.109,150.611,396.412,150.633,395.693z
			 M140.768,398.655c-1.789-0.054-3.197-1.547-3.145-3.336c0.055-1.79,1.549-3.197,3.338-3.144s3.195,1.547,3.143,3.336
			C144.051,397.302,142.557,398.709,140.768,398.655z"/>
		<path fill="#FFFFFF" d="M203.23,385.562l-16.629,15.4l15.4,16.63l16.629-15.401L203.23,385.562z M202.447,407.24
			c-3.127-0.094-5.588-2.705-5.494-5.832c0.092-3.128,2.705-5.588,5.832-5.495s5.588,2.705,5.494,5.832
			C208.186,404.873,205.574,407.333,202.447,407.24z"/>
	</g>
	<g>
		<g>
			<polygon fill="#858585" points="108.334,443.116 127.674,455.561 125.672,463.307 109.418,458.161 			"/>
		</g>
		<g>
			<polygon fill="#858585" points="33.895,391.276 73.527,434.764 104.082,441.755 105.723,469.673 94.244,479.996 84.842,484.799 
				75.104,485.499 56.525,457.209 25.818,438.349 24.59,422.872 			"/>
		</g>
		<g>
			<polygon fill="#858585" points="99.158,483.347 90.512,486.998 101.609,506.602 110.195,502.33 			"/>
		</g>
		<g>
			<polygon fill="#858585" points="85.973,488.414 78.553,490.118 83.875,509.58 92.512,505.384 			"/>
		</g>
		<g>
			<polygon fill="#858585" points="121.57,491.077 109.787,474.641 102.158,480.191 113.059,496.919 			"/>
		</g>
	</g>
	<g>
		<g>
			<polygon fill="#858585" points="235.656,408.075 213.785,415.187 213.748,423.189 230.777,422.35 			"/>
		</g>
		<g>
			<polygon fill="#858585" points="312.842,385.457 271.631,409.513 240.301,408.497 231.611,435.077 240.084,447.983 
				247.953,455.02 257.193,458.177 282.357,435.546 321.174,424.179 325.41,410.377 			"/>
		</g>
		<g>
			<polygon fill="#858585" points="234.479,449.973 241.912,455.704 226.189,471.839 218.975,465.522 			"/>
		</g>
		<g>
			<polygon fill="#858585" points="245.941,458.229 252.682,461.766 242.582,479.232 235.299,472.976 			"/>
		</g>
		<g>
			<polygon fill="#858585" points="210.836,451.743 226.416,438.849 232.381,446.156 217.582,459.56 			"/>
		</g>
	</g>
</g>
<path fill="#F8EE42" d="M111.07,386.977c0,0,3.568-11.293,2.316-14.07c-1.254-2.777-11.932-7.254-11.932-7.254
	s11.293,2.567,14.07,1.315c2.779-1.253,7.256-10.931,7.256-10.931s-3.568,11.293-2.316,14.07c1.252,2.778,11.932,7.254,11.932,7.254
	s-11.293-3.567-14.07-2.314C115.547,376.299,111.07,386.977,111.07,386.977z"/>
<path fill="#F8EE42" d="M208.582,378.3c0,0-4.596-5.688-6.453-5.991s-7.805,3.667-7.805,3.667s5.174-4.938,5.477-6.795
	c0.303-1.856-3.152-7.464-3.152-7.464s4.598,5.689,6.455,5.992c1.857,0.304,7.803-3.668,7.803-3.668s-5.688,4.598-5.99,6.454
	C204.613,372.353,208.582,378.3,208.582,378.3z"/>
</svg>
